<svg xmlns="http://www.w3.org/2000/svg" width="48" height="48" viewBox="0 0 48 48"><g transform="translate(2 2)"><path d="M0,0H44V44H0Z" fill="none"/><path d="M2,35H38.667v3.667H2ZM5.667,20.333H9.333V33.167H5.667Zm9.167,0H18.5V33.167H14.833Zm7.333,0h3.667V33.167H22.167Zm9.167,0H35V33.167H31.333ZM2,11.167,20.333,2l18.333,9.167V18.5H2Zm3.667,2.266v1.4H35v-1.4L20.333,6.1ZM20.333,13a1.833,1.833,0,1,1,1.833-1.833A1.833,1.833,0,0,1,20.333,13Z" transform="translate(1.667 1.667)" fill="rgba(255,255,255,0.87)"/></g><rect width="48" height="48" fill="none"/></svg>