<svg xmlns="http://www.w3.org/2000/svg" width="48" height="48" viewBox="0 0 48 48"><rect width="48" height="48" fill="none"/><g transform="translate(2.014 5.515)"><path d="M43.537,201.921,41,190.361l-.6-.5-.651-.5H33.085L30.766,178.8l-.707-.57-.54-.433H14.091l-.676.534-.571.469-2.319,10.558H3.815l-.627.474-.62.528-2.54,11.56c-.083.378.167.663.409.964s.451.586.837.586H42.291c.387,0,.57-.276.812-.578S43.62,202.3,43.537,201.921Zm-28.42-21.57H28.493l1.979,9.007H13.138Zm6.666,15.895-.952-4.335h1.9Zm-18.92,4.673,1.979-9.007H18.217l1.979,9.007Zm20.507,0,1.979-9.007H38.725l1.979,9.007Z" transform="translate(-0.013 -165.949)" fill="rgba(255,255,255,0.87)"/><path d="M242.53,39.108c.7,0,1.276-.215,1.276-.92V33.772c0-.7-.571-.761-1.276-.761s-1.276.056-1.276.761v4.415C241.254,38.893,241.825,39.108,242.53,39.108Z" transform="translate(-220.738 -33.011)" fill="rgba(255,255,255,0.87)"/><path d="M333.951,71.289a1.272,1.272,0,0,0,.9-.374l3.122-3.122a1.051,1.051,0,0,0-.141-1.6c-.5-.5-1.166-.7-1.664-.205l-3.122,3.122a1.028,1.028,0,0,0,0,1.586C333.3,70.946,333.624,71.289,333.951,71.289Z" transform="translate(-304.38 -63.312)" fill="rgba(255,255,255,0.87)"/><path d="M114.884,66.681a1.106,1.106,0,0,0,.857.3c.327,0,.484-.26.733-.51.5-.5.714-1.1.215-1.6l-3.122-3.122c-.5-.5-1.071-.183-1.57.316s-.734.991-.235,1.489Z" transform="translate(-101.923 -59.437)" fill="rgba(255,255,255,0.87)"/></g></svg>