<svg xmlns="http://www.w3.org/2000/svg" width="48" height="48" viewBox="0 0 48 48"><g transform="translate(2 3)"><path d="M22,43.995A22,22,0,0,1,6.443,6.443,22,22,0,0,1,37.552,37.552,21.853,21.853,0,0,1,22,43.995ZM22,2.75A19.248,19.248,0,1,0,41.245,22,19.269,19.269,0,0,0,22,2.75Z" transform="translate(0 0)" fill="rgba(255,255,255,0.87)"/><path d="M165.943,124.373a5.493,5.493,0,0,0-1.569-9.221v-1.778c0-.759-.618-.682-1.378-.682s-1.372-.077-1.372.682v1.375h-2.75v-1.375c0-.759-.616-.682-1.375-.682s-1.375-.077-1.375.682v1.375h-2.75c-.759,0-.758.636-.758,1.4s0,1.354.758,1.354h1.375v13.748h-1.375c-.759,0-.723.654-.723,1.414s-.037,1.336.723,1.336h2.75v1.375c0,.759.615.748,1.375.748s1.375.011,1.375-.748V134h2.75v1.375c0,.759.728.748,1.488.748s1.262.011,1.262-.748v-1.778a5.493,5.493,0,0,0,1.569-9.221ZM157.5,117.5h4.812a2.75,2.75,0,0,1,0,5.5H157.5Zm4.812,13.748H157.5v-5.5h4.812a2.75,2.75,0,0,1,0,5.5Z" transform="translate(-138.939 -102.376)" fill="rgba(255,255,255,0.87)"/></g><rect width="48" height="48" fill="none"/></svg>