<svg width="24" height="24" viewBox="0 0 24 24" fill="none" xmlns="http://www.w3.org/2000/svg">
<path d="M10 3H5C4.47005 3.00158 3.96227 3.2128 3.58753 3.58753C3.2128 3.96227 3.00158 4.47005 3 5V19C3.00158 19.5299 3.2128 20.0377 3.58753 20.4125C3.96227 20.7872 4.47005 20.9984 5 21H10V22C10 22.2652 10.1054 22.5196 10.2929 22.7071C10.4804 22.8946 10.7348 23 11 23C11.2652 23 11.5196 22.8946 11.7071 22.7071C11.8946 22.5196 12 22.2652 12 22V2C12 1.73478 11.8946 1.48043 11.7071 1.29289C11.5196 1.10536 11.2652 1 11 1C10.7348 1 10.4804 1.10536 10.2929 1.29289C10.1054 1.48043 10 1.73478 10 2V3ZM10 18H5L10 12V18ZM19 3H14V5H18C18.2652 5 18.5196 5.10536 18.7071 5.29289C18.8946 5.48043 19 5.73478 19 6V18L14 12V21H19C19.5299 20.9984 20.0377 20.7872 20.4125 20.4125C20.7872 20.0377 20.9984 19.5299 21 19V5C20.9984 4.47005 20.7872 3.96227 20.4125 3.58753C20.0377 3.2128 19.5299 3.00158 19 3Z" fill="black" fill-opacity="0.87"/>
<path d="M10 4H11V9.23795L9.23178 11.3598L4.23178 17.3598L4 17.638V5.00175C4.00112 4.73643 4.10701 4.48227 4.29464 4.29464C4.48227 4.10701 4.73642 4.00112 5.00173 4H10ZM10 20H5.0019C4.73653 19.9989 4.48231 19.893 4.29464 19.7054C4.10742 19.5181 4.00158 19.2647 4 19H5H10H11V20H10ZM18.2318 18.6402L19.3198 19.9458C19.2172 19.9809 19.1086 19.9996 18.9981 20H15V14.762L18.2318 18.6402ZM18 4H18.9983C19.2636 4.00112 19.5177 4.10701 19.7054 4.29464C19.893 4.48231 19.9989 4.73653 20 5.0019V6C20 5.46957 19.7893 4.96086 19.4142 4.58579C19.0391 4.21071 18.5304 4 18 4Z" stroke="white" stroke-opacity="0.87" stroke-width="2"/>
</svg>
