<svg xmlns="http://www.w3.org/2000/svg" width="48" height="48" viewBox="0 0 48 48"><g transform="translate(2 2)"><path d="M22,0a22,22,0,1,0,22,22A22.029,22.029,0,0,0,22,0Zm0,41.256A19.253,19.253,0,1,1,41.256,22,19.274,19.274,0,0,1,22,41.256Z" fill="rgba(255,255,255,0.87)"/><g transform="translate(15.127 10.234)"><path d="M182.876,129.463c-2.236,0-4.126-1.26-4.126-2.75s1.89-2.75,4.126-2.75a4.88,4.88,0,0,1,3.212,1.084c.567.5,1.158.118,1.667-.454s.729-1.1.16-1.6a7.279,7.279,0,0,0-3.664-1.661v-1.491c0-.759-.616-.768-1.375-.768s-1.375.008-1.375.768v1.485c-3.135.512-5.5,2.734-5.5,5.391,0,3.034,3.086,5.5,6.876,5.5,2.236,0,4.126,1.26,4.126,2.75s-1.89,2.75-4.126,2.75a4.88,4.88,0,0,1-3.212-1.084c-.567-.506-1.028-.142-1.534.43s-.862,1.121-.292,1.627a7.282,7.282,0,0,0,3.664,1.664v1.488c0,.759.616.8,1.375.8s1.375-.046,1.375-.8v-1.485c3.135-.512,5.5-2.734,5.5-5.391C189.752,131.93,186.666,129.463,182.876,129.463Z" transform="translate(-176 -119.069)" fill="rgba(255,255,255,0.87)"/></g></g><rect width="48" height="48" fill="none"/></svg>