<svg xmlns="http://www.w3.org/2000/svg" width="48" height="48" viewBox="0 0 48 48"><rect width="48" height="48" fill="none"/><g transform="translate(3 3)"><path d="M0,0H42V42H0Z" fill="none"/><path d="M17.75,2.051V7.336a12.252,12.252,0,1,0,9.086,21.938l3.74,3.74A17.5,17.5,0,1,1,17.75,2.051ZM36.913,21.213a17.408,17.408,0,0,1-3.862,9.324L29.31,26.8a12.177,12.177,0,0,0,2.315-5.586h5.288ZM21.253,2.051A17.506,17.506,0,0,1,36.916,17.713H31.628A12.258,12.258,0,0,0,21.254,7.338V2.049Z" transform="translate(1.5 1.537)" fill="rgba(255,255,255,0.87)"/></g></svg>