<svg width="22" height="24" viewBox="0 0 22 24" fill="none" xmlns="http://www.w3.org/2000/svg">
<path fill-rule="evenodd" clip-rule="evenodd" d="M11.2548 0L11.9333 0.52993C15.9727 3.68465 19.4089 5.11936 21.1723 5.42775L22 5.57251V6.4128V15.6645V15.8912L21.9022 16.0958C21.0906 17.7934 19.2474 19.3277 17.4604 20.5165C15.6311 21.7334 13.6741 22.7078 12.4166 23.2392L12.107 23.37L11.7812 23.2873C8.06041 22.3423 5.35547 20.9938 3.47611 19.6645C1.61983 18.3514 0.521559 17.0219 0.090728 16.0807L0 15.8825V15.6645V6.4128V5.64718L0.739104 5.44744C2.82537 4.88361 5.02069 3.94086 6.85617 2.98565C8.7175 2.01699 10.1052 1.08955 10.6299 0.592253L11.2548 0ZM11.3404 2.59468C10.4918 3.23123 9.22236 4.00888 7.77945 4.75978C7.27616 5.0217 6.74451 5.28415 6.19314 5.53987L8.05081 7.86195C8.54567 6.76647 9.68024 6 11 6C12.7746 6 14.2143 7.38574 14.2143 9.09375C14.2143 10.6436 13.0288 11.9281 11.4834 12.1527L11.966 12.756C12.0706 12.7288 12.1665 12.6996 12.2586 12.6715C12.5022 12.5973 12.7192 12.5312 13 12.5312C14.6563 12.5312 16 13.8246 16 15.4187V15.9688C16 16.4095 15.7124 16.7859 15.308 16.9334L16.6703 18.6363C18.1843 17.5932 19.4225 16.4699 20 15.423V7.21239C17.884 6.64588 14.7892 5.18165 11.3404 2.59468ZM14.9694 19.7117L12.8 17H7.07143C6.47991 17 6 16.5381 6 15.9688V15.4187C6 13.8246 7.34375 12.5312 9 12.5312C9.0843 12.5312 9.1628 12.5372 9.23795 12.5474L4.28792 6.3599C3.53582 6.65806 2.76704 6.93173 2 7.16548V15.4238C2.31814 15.9836 3.11966 16.9626 4.63106 18.0316C6.24047 19.17 8.61394 20.3801 11.9459 21.2638C12.7702 20.8997 13.8522 20.3635 14.9694 19.7117ZM10.2862 13.8578C9.92144 13.8062 9.64636 13.7232 9.43126 13.6584C9.25133 13.6041 9.11337 13.5625 9 13.5625C7.9375 13.5625 7.07143 14.3961 7.07143 15.4187V15.9688H11.975L10.2862 13.8578ZM14.5363 15.9688H14.9286V15.4187C14.9286 14.3961 14.0625 13.5625 13 13.5625C12.907 13.5625 12.7987 13.5901 12.665 13.6297L14.5363 15.9688ZM10.6662 11.1312C10.775 11.1477 10.8865 11.1562 11 11.1562C12.1808 11.1562 13.1429 10.2303 13.1429 9.09375C13.1429 7.95723 12.1808 7.03125 11 7.03125C9.89286 7.03125 8.97803 7.8453 8.86819 8.88368L10.6662 11.1312Z" fill="white" fill-opacity="0.87"/>
</svg>
