<svg xmlns="http://www.w3.org/2000/svg" width="121.999" height="121.999" viewBox="0 0 121.999 121.999"><defs><style>.a{fill:rgba(255,255,255,0.87);}</style></defs><path class="a" d="M68.624,103.175a7.863,7.863,0,1,1-7.863-7.863A7.863,7.863,0,0,1,68.624,103.175ZM44.894,22.037A73.171,73.171,0,0,1,61,20.253,71.424,71.424,0,0,1,113.747,43.28a4.766,4.766,0,1,0,6.972-6.5A80.861,80.861,0,0,0,61,10.722,82.66,82.66,0,0,0,42.793,12.74a4.766,4.766,0,1,0,2.1,9.3ZM65.6,43.125a4.766,4.766,0,0,0,3.841,5.538A50.813,50.813,0,0,1,96.455,63.176a4.766,4.766,0,1,0,6.765-6.715A60.3,60.3,0,0,0,71.14,39.284,4.765,4.765,0,0,0,65.6,43.125Zm55,70.738L8.135,1.4A4.765,4.765,0,0,0,1.4,8.135L16.9,23.642A83.3,83.3,0,0,0,1.28,36.782a4.765,4.765,0,0,0,6.972,6.5A73.489,73.489,0,0,1,23.814,30.553L36.942,43.682A62.69,62.69,0,0,0,18.776,56.462a4.766,4.766,0,0,0,6.766,6.714A51.67,51.67,0,0,1,44.225,50.964l15.3,15.3A34.664,34.664,0,0,0,37.409,76.2a4.766,4.766,0,0,0,6.709,6.771C48.531,78.6,55,75.772,60.6,75.772h.35a23.277,23.277,0,0,1,11.26,3.252c.047.026.095.047.142.072L113.864,120.6a4.765,4.765,0,1,0,6.739-6.74Zm0,0" transform="translate(0 0)"/></svg>