<svg xmlns="http://www.w3.org/2000/svg" width="48" height="48" viewBox="0 0 48 48"><rect width="48" height="48" fill="none"/><g transform="translate(2.07 10.387)"><path d="M43.409,18.3,41.55,10.064l-.158-.749-.753.163-8.074,1.887-.68.172.579.414,2.989,1.906a.779.779,0,0,1,.237,1.069l-5.03,8.19c-.219.363-.538.335-.693-.056L24.756,10.129c-.3-.753-1.062-.839-1.864-.8s-1.444.16-1.7.922L15.725,26.872c-.137.409-.437.446-.674.1l-4.319-6.34c-.383-.558-1.143-.534-1.68-.522a1.7,1.7,0,0,0-1.564.717L.6,34.1c-.492.948.286,1.161,1.206,1.663.282.158,1.81.81,2.147.15l5.094-9.771a.424.424,0,0,1,.793-.046L14.541,33c.41.6,1.066.512,1.776.41s1.358-.2,1.586-.894l5.048-15.349c.137-.409.374-.418.529-.019L28.164,28.76c.273.669.883.675,1.594.74s1.4.171,1.778-.442l7.39-12.039a.746.746,0,0,1,1.048-.242l2.962,1.887C43.291,18.877,43.9,19.646,43.409,18.3Z" transform="translate(-0.446 -9.315)" fill="rgba(255,255,255,0.87)"/></g></svg>