<svg width="28" height="28" fill="none" xmlns="http://www.w3.org/2000/svg">
  <path d="M14 28c7.732 0 14-6.268 14-14S21.732 0 14 0 0 6.268 0 14s6.268 14 14 14z" fill="#fff" fill-opacity=".87"/>
  <path d="M21.925 20.575 15.812 7.04C15.467 6.341 14.955 6 14.28 6h-.54c-.676 0-1.188.341-1.533 1.041l-2.66 5.897H7.533c-.601.004-1.09.448-1.095 1.002v.013c.005.55.494.998 1.095 1.003h1.08l-2.538 5.619a1.086 1.086 0 0 0-.075.384c0 .316.107.563.298.755.191.192.466.286.81.286.23-.004.448-.068.63-.192.196-.124.33-.303.438-.508l2.795-6.349h1.938c.601-.004 1.09-.447 1.095-1.002v-.026c-.004-.55-.493-.998-1.095-1.002h-1.034l2.134-4.869 5.815 13.244c.107.205.242.384.438.508.181.123.405.188.628.192.345 0 .616-.094.811-.286.196-.192.298-.44.298-.755a.829.829 0 0 0-.074-.38z" fill="#000"/>
</svg>
