<svg width="28" height="28" viewBox="0 0 28 28" fill="none" xmlns="http://www.w3.org/2000/svg">
<circle cx="14" cy="14" r="14" fill="white"/>
<path d="M8.77522 22L11.0973 17.9929L13.4195 14L15.7274 9.99295L16.1097 9.35802L16.2796 9.99295L16.9876 12.6314L16.1947 14L13.8726 17.9929L11.5646 22H14.3398L16.6619 17.9929L17.8655 15.9189L18.4319 17.9929L19.508 22H22L20.9239 17.9929L19.8478 14L19.5646 12.97L21.292 9.99295H18.7717L18.6867 9.69665L17.8088 6.42328L17.6956 6H15.2743L15.2177 6.08466L12.9522 9.99295L10.6301 14L8.32212 17.9929L6 22H8.77522Z" fill="black"/>
</svg>
