<svg width="28" height="28" viewBox="0 0 28 28" fill="none" xmlns="http://www.w3.org/2000/svg">
<circle cx="14" cy="14" r="14" fill="white"/>
<path fill-rule="evenodd" clip-rule="evenodd" d="M15.1064 6.24L20.6809 8.92C21.4894 9.32 22 10.08 22 10.96V12.2H19.9574V10.96C19.9574 10.84 19.8723 10.72 19.7447 10.64L14.1702 7.96C14.0851 7.92 13.9574 7.92 13.8298 7.96L8.25532 10.64C8.12766 10.68 8.04255 10.8 8.04255 10.96V12.2H6V10.96C6 10.12 6.51064 9.32 7.31915 8.92L12.8936 6.24C13.5745 5.92 14.383 5.92 15.1064 6.24ZM15.7447 13.92C15.7447 13 14.9362 12.28 14 12.28C13.0213 12.28 12.2553 13 12.2553 13.92C12.2553 14.84 13.0638 15.56 14 15.56C14.9362 15.56 15.7447 14.84 15.7447 13.92ZM19.7021 17.36C19.8298 17.32 19.9149 17.2 19.9149 17.04V15.8H21.9574V17.04C21.9574 17.88 21.4468 18.68 20.6383 19.08L15.0638 21.76C14.7234 21.92 14.3404 22 13.9574 22C13.5745 22 13.1915 21.92 12.8511 21.76L7.31915 19.08C6.51064 18.68 6 17.92 6 17.04V15.8H8.04255V17.04C8.04255 17.16 8.12766 17.28 8.25532 17.36L12.9787 19.6V17.36C11.3617 16.92 10.2128 15.56 10.2128 13.92C10.2128 11.96 11.9149 10.32 14.0426 10.32C16.1277 10.32 17.8723 11.92 17.8723 13.92C17.8723 15.56 16.6809 16.96 15.1064 17.36V19.6L19.7021 17.36Z" fill="black" fill-opacity="0.9"/>
</svg>
