<svg width="28" height="28" viewBox="0 0 28 28" fill="none" xmlns="http://www.w3.org/2000/svg">
<circle cx="14" cy="14" r="14" fill="white"/>
<path d="M14 22C18.4183 22 22 18.4183 22 14C22 9.58172 18.4183 6 14 6C9.58172 6 6 9.58172 6 14C6 18.4183 9.58172 22 14 22Z" stroke="black" stroke-width="1.5"/>
<path d="M15.5238 16.8843C15.4694 16.8299 15.4694 16.7211 15.415 16.6122C15.415 16.5034 15.3605 16.3945 15.3605 16.2857C15.2517 16.3945 15.1429 16.449 15.034 16.5578C14.9252 16.6666 14.7619 16.7211 14.6531 16.7755C14.4898 16.8299 14.381 16.8843 14.1633 16.9388C14 16.9932 13.7823 16.9932 13.619 16.9932C13.2925 16.9932 13.0204 16.9388 12.7483 16.8299C12.4762 16.7211 12.2585 16.6122 12.0408 16.449C11.8231 16.2857 11.7143 16.068 11.6054 15.8503C11.4966 15.6326 11.4422 15.3605 11.4422 15.0884C11.4422 14.4354 11.7143 13.8911 12.2041 13.5646C12.6939 13.1837 13.4558 13.0204 14.4354 13.0204H15.3605V12.6394C15.3605 12.3129 15.2517 12.0952 15.0884 11.932C14.8707 11.7687 14.5986 11.6598 14.2177 11.6598C13.8912 11.6598 13.6735 11.7143 13.5102 11.8775C13.3469 12.0408 13.2925 12.2041 13.2925 12.4217H11.6599C11.6599 12.1496 11.7143 11.8775 11.8231 11.6598C11.932 11.4422 12.0952 11.2245 12.3673 11.0068C12.585 10.8435 12.8571 10.6803 13.1837 10.5714C13.5102 10.4626 13.8912 10.4081 14.3265 10.4081C14.7075 10.4081 15.034 10.4626 15.3605 10.5714C15.6871 10.6803 15.9592 10.7891 16.2313 11.0068C16.449 11.17 16.6667 11.4422 16.7755 11.7143C16.8844 11.9864 16.9932 12.3129 16.9932 12.6939V15.4149C16.9932 15.7415 16.9932 16.0136 17.0476 16.2313C17.102 16.449 17.1565 16.6666 17.2109 16.7755V16.8843H15.5238ZM13.9456 15.7415C14.1088 15.7415 14.2721 15.7415 14.381 15.6871C14.5442 15.6326 14.6531 15.5782 14.7619 15.5238C14.8707 15.4694 14.9796 15.4149 15.034 15.3061C15.0884 15.2517 15.1973 15.1428 15.2517 15.0884V14H14.4354C14.1633 14 13.9456 14 13.7823 14.0544C13.619 14.1088 13.4558 14.1632 13.3469 14.2721C13.2381 14.3809 13.1293 14.4354 13.0748 14.5986C13.0204 14.7075 13.0204 14.8707 13.0204 14.9796C13.0204 15.1973 13.0748 15.3605 13.2381 15.5238C13.4014 15.6871 13.6735 15.7415 13.9456 15.7415Z" fill="black"/>
</svg>
