<svg width="28" height="28" viewBox="0 0 28 28" fill="none" xmlns="http://www.w3.org/2000/svg">
<circle cx="14" cy="14" r="14" fill="white"/>
<path d="M14 22C18.4183 22 22 18.4183 22 14C22 9.58172 18.4183 6 14 6C9.58172 6 6 9.58172 6 14C6 18.4183 9.58172 22 14 22Z" fill="black"/>
<path d="M16.8221 14.2079C17.0992 13.7291 17.5465 13.7291 17.8236 14.2079L19.5496 17.2378C19.8268 17.7165 19.6 18.1071 19.0457 18.1071H15.5685C15.0205 18.1071 14.7937 17.7165 15.0646 17.2378L16.8221 14.2079ZM13.4835 8.3748C13.7606 7.89606 14.2016 7.89606 14.4787 8.3748L14.863 9.06772L15.7701 10.6614C15.9906 11.115 15.9906 11.6504 15.7701 12.1039L12.7276 17.3764C12.4504 17.8047 11.9906 18.0756 11.4803 18.1071H8.95434C8.40001 18.1071 8.17323 17.7228 8.4504 17.2378L13.4835 8.3748Z" fill="white"/>
</svg>
