<svg width="28" height="28" viewBox="0 0 28 28" fill="none" xmlns="http://www.w3.org/2000/svg">
<circle cx="14" cy="14" r="14" fill="white"/>
<path d="M14 22C18.4183 22 22 18.4183 22 14C22 9.58172 18.4183 6 14 6C9.58172 6 6 9.58172 6 14C6 18.4183 9.58172 22 14 22Z" fill="black"/>
<path d="M13.96 8.94L11.701 10.2635L13.96 11.5875L16.2615 10.2635L13.96 8.94ZM14.3315 16.007V18.6545L17.4 16.904V14.256L14.3315 16.007ZM16.633 11.096V13.744L14.331 15.068V12.42L16.633 11.096ZM11.092 13.744L13.394 15.068V12.42L11.092 11.096V13.744ZM11.092 17.331L13.394 18.6545V16.007L11.092 14.6835V17.3305V17.331Z" fill="white"/>
</svg>
