<svg width="28" height="28" fill="none" xmlns="http://www.w3.org/2000/svg">
  <path d="M14 28c7.732 0 14-6.268 14-14S21.732 0 14 0 0 6.268 0 14s6.268 14 14 14z" fill="#fff" fill-opacity=".87"/>
  <path d="m14.155 10.365 2.378 2.379a.222.222 0 0 0 .239.048.22.22 0 0 0 .07-.048l1.256-1.254a.219.219 0 0 0 0-.31l-3.941-3.942a.22.22 0 0 0-.31 0l-3.94 3.941a.218.218 0 0 0 0 .31l1.253 1.254a.222.222 0 0 0 .155.064.22.22 0 0 0 .155-.064l2.377-2.377a.22.22 0 0 1 .308-.001zm-5.663 2.226-1.254 1.254a.22.22 0 0 0 0 .31l1.253 1.254a.218.218 0 0 0 .31 0l1.254-1.254a.22.22 0 0 0 0-.31l-1.253-1.254a.22.22 0 0 0-.31 0zm5.663 8.172 3.942-3.943a.219.219 0 0 0 0-.31l-1.254-1.253a.218.218 0 0 0-.31 0l-2.378 2.378a.22.22 0 0 1-.31 0l-2.377-2.377a.218.218 0 0 0-.31 0L9.903 16.51a.219.219 0 0 0 0 .31l3.942 3.943a.22.22 0 0 0 .239.048.22.22 0 0 0 .071-.048zm5.044-8.171-1.253 1.254a.22.22 0 0 0-.048.239.22.22 0 0 0 .048.071l1.253 1.254a.218.218 0 0 0 .31 0l1.254-1.254a.22.22 0 0 0 0-.31l-1.253-1.254a.219.219 0 0 0-.311 0z" fill="#000"/>
  <path d="m15.432 13.845-1.274-1.282a.22.22 0 0 0-.31 0l-1.277 1.278a.22.22 0 0 0 0 .31l1.277 1.278a.218.218 0 0 0 .31 0l1.277-1.278a.219.219 0 0 0-.003-.306z" fill="#000"/>
</svg>
