<svg width="28" height="28" viewBox="0 0 28 28" fill="none" xmlns="http://www.w3.org/2000/svg">
<circle cx="14" cy="14" r="14" fill="white"/>
<path d="M16.2539 14.8845C16.1191 14.4846 15.8637 14.1559 15.5356 13.9603C15.6356 13.9202 15.7271 13.8556 15.804 13.7709C15.8809 13.6863 15.9414 13.5834 15.9814 13.4693C16.031 13.296 16.031 13.1516 16.0062 12.9783C16.0062 12.9783 15.9814 12.7184 15.9071 12.4874C15.7585 12.1119 15.2632 11.7653 14.5697 11.6787V10.7545H13.9505V11.6787H13.4799V10.7545H12.8359V11.6787H11.8204V12.2852C11.9315 12.3004 12.0382 12.3447 12.1325 12.4147C12.2269 12.4847 12.3064 12.5787 12.3653 12.6895C12.4644 12.8628 12.4644 13.0072 12.4892 13.0939L12.5387 15.4043C12.5387 15.6931 12.4396 15.9531 12.2415 16.0975C11.9938 16.2708 11.7461 16.1841 11.6966 16.1841V16.8484H12.8111V17.8303H13.4799V16.9639H13.9505L13.9752 17.8303H14.5944V16.8773H15.1889C15.4153 16.8798 15.6381 16.8099 15.8328 16.6751C16.3034 16.2996 16.452 15.491 16.2539 14.8845ZM13.5294 12.6029H14.322C14.6192 12.6029 14.8669 12.8628 14.8669 13.2094C14.8669 13.556 14.644 13.8448 14.3467 13.8448H13.5294V12.6029ZM14.5201 16.0108H13.5789V14.6534H14.5201C14.8173 14.6823 15.065 14.9711 15.0898 15.2888C15.1146 15.6643 14.8669 15.982 14.5201 16.0108Z" fill="black"/>
<path d="M19.548 8.53069L17.0464 7H10.8793L8.50155 8.55957L6 12.4007L14 23L22 12.4007L19.548 8.53069ZM21.1827 12.2274L18.0619 14.0758L17.0464 10.4657L19.3498 9.16606L21.1827 12.2274ZM11.0774 7.57762H16.8483L18.805 8.76173L16.8235 9.85921H11.0526L9.31889 8.79061L11.0774 7.57762ZM8.67492 9.16606L10.7059 10.4657L9.98762 14.0758L6.6935 12.1408L8.67492 9.16606ZM7.33746 13.2383L9.88855 14.769L13.0093 21.0361L7.33746 13.2383ZM13.9752 21.8159L10.4334 14.6534L11.3003 10.4657H16.5759L17.517 14.5379L13.9752 21.8159ZM14.8669 21.0072L18.0372 14.7978L20.6873 13.2383L14.8669 21.0072Z" fill="black"/>
</svg>
