<svg width="28" height="28" fill="none" xmlns="http://www.w3.org/2000/svg">
  <path d="M14 28c7.732 0 14-6.268 14-14S21.732 0 14 0 0 6.268 0 14s6.268 14 14 14z" fill="#fff" fill-opacity=".87"/>
  <path d="M12.247 16.955v-1.981h1.821l.617-.971-.617-.992h-1.821v-1.983h1.821l.872-.929-.872-1.034h-1.821V7.208h-1.963v1.857H8.351v1.963h1.933v5.928H8.351v1.963h1.933v1.855h1.963v-1.858h1.821l.617-.989-.617-.974-1.821.002z" fill="#000"/>
  <path d="M19.175 12.018a2.957 2.957 0 0 0-2.954-2.954h-.153V7.207h-1.963v1.857h-.037v1.963h2.153a.992.992 0 0 1 0 1.983h-2.153v1.963h2.153a.992.992 0 0 1 0 1.983h-2.153v1.963h.034v1.854h1.966v-1.857h.157a2.952 2.952 0 0 0 2.2-4.927 2.941 2.941 0 0 0 .75-1.971z" fill="#000"/>
</svg>
