<svg width="28" height="28" viewBox="0 0 28 28" fill="none" xmlns="http://www.w3.org/2000/svg">
<circle cx="14" cy="14" r="14" fill="white"/>
<path d="M13.5766 6H14.4102C15.2799 6.0576 16.1447 6.2312 16.9528 6.5576C18.9529 7.344 20.6033 8.9752 21.409 10.9688C22.5178 13.6232 22.0418 16.8608 20.1905 19.0696C18.9377 20.6072 17.0952 21.6544 15.1287 21.9208C13.283 22.184 11.3461 21.7864 9.7668 20.7888C8.54914 20.0304 7.54109 18.9392 6.88826 17.6608C6.05062 16.0552 5.7962 14.1576 6.16422 12.3864C6.55784 10.4232 7.7299 8.632 9.36438 7.4776C10.5884 6.592 12.0725 6.0936 13.5766 6ZM13.0806 6.3624C10.6468 6.6416 8.40994 8.1744 7.24988 10.3296C6.46504 11.7624 6.15142 13.452 6.38823 15.0704C6.65625 17.0192 7.7163 18.8424 9.26838 20.0488C10.45 20.9808 11.9117 21.5528 13.4126 21.6648C15.1127 21.8 16.8536 21.3464 18.2648 20.3888C19.9953 19.2432 21.2234 17.3696 21.5762 15.324C21.7794 14.1184 21.7106 12.8624 21.3378 11.6968C20.8058 10.0016 19.6657 8.5032 18.1696 7.5432C16.6823 6.5672 14.8463 6.144 13.0806 6.3624Z" fill="black"/>
<path d="M13.2734 9.51283C14.6647 9.28003 16.1567 9.73603 17.1576 10.7344C18.0456 11.5728 18.5641 12.7912 18.5384 14.0128C18.5561 15.228 18.0352 16.4368 17.1512 17.268C16.1887 18.2248 14.7735 18.6816 13.4318 18.5048C12.1677 18.3528 10.9845 17.6344 10.266 16.5824C9.4708 15.456 9.25159 13.9568 9.66441 12.644C10.1476 11.028 11.6069 9.76483 13.2734 9.51283ZM13.551 9.78963C13.5518 10.1872 13.5526 10.5848 13.5518 10.9824C13.7502 10.9824 13.9486 10.9824 14.147 10.9832C14.1478 10.5752 14.1486 10.1672 14.147 9.76003C13.9486 9.76643 13.7494 9.77603 13.551 9.78963ZM14.9823 11.0016C15.5047 11.072 16.0663 11.152 16.4831 11.5048C17.1192 12.076 17.0368 13.2752 16.2583 13.6896C16.7248 13.7984 17.1864 14.1096 17.3016 14.5992C17.4512 15.2416 17.332 16.0128 16.816 16.4656C16.3047 16.8864 15.6127 16.9416 14.9807 17.0016C14.9839 17.3736 14.9823 17.7456 14.9815 18.1184C16.3119 17.7928 17.46 16.8024 17.948 15.5208C18.4112 14.3384 18.3016 12.9472 17.648 11.8584C17.0704 10.876 16.0879 10.1544 14.9847 9.87763C14.9815 10.252 14.9815 10.6264 14.9823 11.0016ZM11.0117 10.9856C11.5877 11.0136 12.1645 11.0072 12.7414 11.0064C12.7414 10.6552 12.7422 10.3048 12.7398 9.95363C12.0941 10.1632 11.5189 10.5392 11.0117 10.9856ZM10.9429 11.032C10.7901 11.22 10.5068 11.5752 10.3388 11.8896C9.66121 13.044 9.5844 14.5256 10.15 15.74C10.6381 16.8288 11.6061 17.676 12.7398 18.0408C12.7414 17.6904 12.7406 17.34 12.7406 16.9904C12.1621 16.9848 11.5821 17.0056 11.0045 16.9744C11.0109 16.652 11.0869 16.3368 11.1965 16.0328C11.4797 16.0272 11.7749 16.0768 12.0485 15.984C12.2085 15.8496 12.1629 15.6272 12.1717 15.4432C12.1629 14.3912 12.1757 13.3392 12.1661 12.288C12.1765 12.1184 12.0701 11.9352 11.8941 11.9016C11.6037 11.8432 11.3045 11.8664 11.0109 11.864C10.9765 11.6272 10.9725 11.388 10.9693 11.1488C10.9693 11.1488 10.9733 11.0736 10.9477 11.0248L10.9429 11.032ZM13.5758 11.936V13.4864C14.0934 13.4768 14.6679 13.5344 15.1207 13.2336C15.4967 12.9872 15.4727 12.364 15.0847 12.1424C14.6311 11.8744 14.0782 11.9504 13.5758 11.936ZM13.5758 14.3208V16.0408C14.215 15.9896 14.9319 16.0968 15.4879 15.7112C15.8855 15.4472 15.8375 14.7936 15.4279 14.5648C14.8711 14.232 14.1942 14.3376 13.5758 14.3208ZM13.5526 17.0136C13.5526 17.4112 13.5518 17.8096 13.551 18.2072C13.7582 18.2208 13.9646 18.2288 14.1718 18.2352C14.1734 17.828 14.1726 17.4208 14.1726 17.0136H13.5526Z" fill="black"/>
<path d="M13.127 6.77759C14.5286 6.62719 15.9799 6.84079 17.2392 7.48719C18.8592 8.28159 20.1545 9.70959 20.7929 11.3968C21.4442 13.0864 21.4298 15.0192 20.7553 16.7008C19.7297 19.3512 17.0215 21.2568 14.1702 21.2608C12.4957 21.3216 10.8108 20.7584 9.49957 19.7168C8.1011 18.6296 7.13386 17.0048 6.83544 15.2584C6.53062 13.5288 6.87224 11.6912 7.79709 10.196C8.92754 8.32079 10.9524 7.02479 13.127 6.77759ZM12.8829 9.12479C11.7437 9.38159 10.702 10.0544 10.0036 10.9912C9.23236 12.0056 8.87874 13.3248 9.03635 14.588C9.18436 15.94 9.92279 17.2152 11.0212 18.016C12.0493 18.7888 13.3854 19.128 14.6574 18.9536C16.2295 18.7616 17.6752 17.7608 18.4088 16.3568C18.9584 15.3552 19.1089 14.1648 18.9072 13.0472C18.6504 11.692 17.804 10.4608 16.6263 9.74239C15.5239 9.05599 14.1478 8.83599 12.8829 9.12479Z" fill="black"/>
</svg>
