<svg width="28" height="28" viewBox="0 0 28 28" fill="none" xmlns="http://www.w3.org/2000/svg">
<circle cx="14" cy="14" r="14" fill="white"/>
<path d="M14 22C18.4183 22 22 18.4183 22 14C22 9.58172 18.4183 6 14 6C9.58172 6 6 9.58172 6 14C6 18.4183 9.58172 22 14 22Z" fill="black"/>
<path d="M19.8715 12.7695C19.7924 12.3854 19.6755 12.0101 19.5225 11.649C19.3717 11.2934 19.1872 10.953 18.9715 10.6325C18.7576 10.3159 18.5137 10.0207 18.243 9.75101C17.9732 9.48033 17.6778 9.23636 17.361 9.02251C17.0401 8.8079 16.6999 8.62345 16.345 8.47151C15.611 8.16019 14.8218 7.99976 14.0245 7.99976C13.2272 7.99976 12.438 8.16019 11.704 8.47151C10.9942 8.77089 10.3496 9.20565 9.806 9.75151C9.53537 10.021 9.29141 10.3161 9.0775 10.6325C8.86287 10.9536 8.67841 11.2939 8.5265 11.649C8.21518 12.383 8.05475 13.1722 8.05475 13.9695C8.05475 14.7668 8.21518 15.556 8.5265 16.29C8.6735 16.645 8.8635 16.9815 9.0775 17.306C9.29139 17.6228 9.53536 17.9181 9.806 18.188C10.0758 18.4587 10.3712 18.7027 10.688 18.9165C11.006 19.1305 11.349 19.3145 11.704 19.4675C12.438 19.7788 13.2272 19.9393 14.0245 19.9393C14.8218 19.9393 15.611 19.7788 16.345 19.4675C16.7 19.3205 17.0365 19.1305 17.361 18.9165C17.6778 18.7027 17.9732 18.4587 18.243 18.188C18.5137 17.9182 18.7577 17.6228 18.9715 17.306C19.1855 16.988 19.3695 16.645 19.5225 16.29C19.9935 15.1791 20.1152 13.9512 19.8715 12.7695ZM14.03 19.192C11.1465 19.192 8.814 16.853 8.814 13.9755C8.814 11.098 11.153 8.75901 14.03 8.75901C16.9075 8.75901 19.2465 11.098 19.2465 13.9755C19.2465 16.853 16.908 19.192 14.03 19.192Z" fill="white"/>
<path d="M14.1225 18.739H14.2635C14.288 18.739 14.312 18.739 14.3365 18.7325H14.343C14.3675 18.7325 14.3855 18.7325 14.41 18.7265H14.4285C14.447 18.7265 14.4655 18.7265 14.4835 18.7205H14.502C14.5205 18.7205 14.539 18.7145 14.5635 18.7145H14.5755C14.6 18.7145 14.6245 18.708 14.649 18.708C14.6735 18.708 14.692 18.702 14.7165 18.696H14.7285C14.747 18.696 14.7655 18.69 14.7835 18.69H14.796C14.8205 18.6835 14.839 18.6835 14.8635 18.6775C14.912 18.6715 14.961 18.659 15.004 18.647H15.0165C15.0345 18.641 15.059 18.641 15.0775 18.6345H15.0835C15.1325 18.6225 15.1755 18.61 15.2245 18.598C14.7659 18.6125 14.3073 18.5694 13.8595 18.4695C13.1855 18.3225 12.543 18.0595 11.998 17.606C11.5683 17.2484 11.2235 16.7998 10.9885 16.2927C10.7535 15.7855 10.6341 15.2324 10.639 14.6735C10.6434 13.8396 10.9401 13.0337 11.4775 12.396C12.1755 11.5695 13.1675 11.1345 14.1835 11.11H14.3245V10.296H14.1655C13.8564 10.3017 13.5487 10.3385 13.247 10.406C12.9434 10.4746 12.6479 10.5752 12.3655 10.706C12.0775 10.841 11.808 11.006 11.557 11.196C11.2976 11.3932 11.0614 11.6191 10.853 11.8695C10.6567 12.1012 10.4864 12.3537 10.345 12.6225C10.2051 12.8816 10.0922 13.1543 10.008 13.4365C9.9254 13.7143 9.87014 13.9995 9.84299 14.288L9.82449 14.557V14.716C9.83049 15.0285 9.86749 15.3345 9.93449 15.6345C10.002 15.941 10.106 16.2345 10.2345 16.5165C10.388 16.853 10.6635 17.349 11.0735 17.7225C11.9106 18.3824 12.946 18.7406 14.012 18.739H14.1225Z" fill="white"/>
<path d="M15.457 17.955C15.155 17.9442 14.8542 17.9115 14.557 17.857C13.296 17.6305 12.212 16.859 11.8145 15.696C11.3305 14.2815 12.0715 12.751 13.4795 12.286C13.7478 12.1961 14.029 12.1505 14.312 12.151C14.6735 12.151 15.0345 12.2245 15.3655 12.359L15.708 11.6305C15.605 11.5892 15.501 11.5505 15.396 11.5145C15.0452 11.4044 14.6797 11.3486 14.312 11.349C13.9437 11.3497 13.5778 11.4096 13.2285 11.5265C12.7827 11.6735 12.3721 11.9112 12.0225 12.2245C11.8539 12.3747 11.7002 12.5408 11.5635 12.7205C11.4284 12.8982 11.3115 13.089 11.2145 13.29C11.0171 13.6942 10.9006 14.1331 10.8715 14.582C10.841 15.047 10.902 15.512 11.055 15.953C11.2109 16.4067 11.4614 16.822 11.79 17.1715C12.09 17.496 12.439 17.741 12.861 17.9675C13.302 18.2 13.847 18.3225 14.416 18.4025C14.7835 18.451 15.2735 18.4635 15.561 18.4635C15.812 18.3715 15.916 18.3285 16.051 18.2735C16.1675 18.2185 16.2835 18.1635 16.4 18.096C16.5165 18.0285 16.535 18.016 16.7305 17.888C16.7479 17.8772 16.7643 17.8648 16.7795 17.851C16.106 17.9675 15.9345 17.961 15.457 17.955Z" fill="white"/>
<path d="M16.9635 17.043C16.7735 17.055 16.504 17.073 16.198 17.073C15.653 17.073 14.9855 17.0245 14.4165 16.8345C13.5345 16.541 12.702 15.788 12.702 14.857C12.7018 14.6366 12.7451 14.4184 12.8293 14.2148C12.9135 14.0112 13.0371 13.8262 13.1929 13.6704C13.3487 13.5146 13.5337 13.391 13.7373 13.3068C13.9409 13.2226 14.1591 13.1793 14.3795 13.1795C15.01 13.1795 15.555 13.5285 15.843 14.0365L16.5715 13.6755C16.4573 13.4604 16.3105 13.2643 16.1365 13.094C15.9059 12.863 15.632 12.6797 15.3304 12.5546C15.0289 12.4296 14.7057 12.3652 14.3792 12.3652C14.0528 12.3652 13.7296 12.4296 13.4281 12.5546C13.1265 12.6797 12.8526 12.863 12.622 13.094C12.3911 13.3246 12.2078 13.5985 12.0828 13.9C11.9578 14.2015 11.8935 14.5246 11.8935 14.851C11.8951 15.193 11.9684 15.531 12.1085 15.843C12.2365 16.1245 12.4145 16.388 12.641 16.633C13.039 17.061 13.5835 17.404 14.1655 17.6C14.7225 17.7835 15.543 17.851 16.339 17.796C16.559 17.7775 16.7245 17.759 17.006 17.698C17.2776 17.4836 17.5242 17.2392 17.741 16.9695C17.551 16.988 17.202 17.0245 16.9635 17.043Z" fill="white"/>
</svg>
