<?xml version="1.0" standalone="no"?>
<!DOCTYPE svg PUBLIC "-//W3C//DTD SVG 20010904//EN"
 "http://www.w3.org/TR/2001/REC-SVG-20010904/DTD/svg10.dtd">
<svg version="1.0" xmlns="http://www.w3.org/2000/svg"
 width="90.000000pt" height="60.000000pt" viewBox="0 0 90.000000 60.000000"
 preserveAspectRatio="xMidYMid meet">
<metadata>
Created by potrace 1.16, written by Peter Selinger 2001-2019
</metadata>
<g transform="translate(0.000000,60.000000) scale(0.100000,-0.100000)"
fill="#000000" stroke="none">
<path d="M126 587 c-16 -12 -17 -14 -1 -27 9 -7 32 -13 51 -12 61 2 33 -22
-32 -28 -81 -7 -144 -54 -144 -108 0 -20 38 -63 78 -89 19 -13 22 -24 22 -79
0 -62 -1 -64 -25 -64 -30 0 -33 -22 -10 -78 9 -20 13 -47 10 -59 -5 -21 -2
-23 35 -23 28 0 40 4 40 14 0 8 -5 18 -10 21 -20 12 -10 44 20 65 24 17 34 19
45 10 7 -6 11 -18 8 -25 -3 -10 14 -23 51 -42 37 -18 56 -33 56 -45 0 -14 8
-18 40 -18 33 0 38 3 33 18 -4 9 -24 33 -45 53 l-38 36 26 51 26 51 29 -14
c15 -8 37 -15 48 -15 19 0 18 -4 -11 -74 -38 -90 -34 -106 24 -106 l42 0 -21
22 -22 21 47 68 c26 38 50 69 53 69 12 0 20 -33 26 -102 l6 -68 38 0 c42 0 48
9 24 34 -27 27 -15 126 16 126 14 0 19 -9 21 -48 4 -68 31 -69 92 -1 46 51 57
83 34 92 -7 3 -3 6 8 6 12 1 33 -8 47 -19 31 -25 37 -25 37 -1 0 20 -36 71
-51 71 -5 0 -59 48 -119 107 -133 129 -153 143 -207 143 -42 0 -191 -49 -335
-111 -64 -27 -83 -31 -105 -23 -36 12 -41 40 -12 70 17 18 33 24 66 24 51 0
78 12 94 41 9 18 6 26 -17 50 -30 31 -60 37 -88 16z"/>
</g>
</svg>
