<svg width="28" height="28" fill="none" xmlns="http://www.w3.org/2000/svg">
  <path d="M14 28c7.732 0 14-6.268 14-14S21.732 0 14 0 0 6.268 0 14s6.268 14 14 14z" fill="#fff" fill-opacity=".87"/>
  <path d="M13.802 7.044a.448.448 0 0 1 .589.588.45.45 0 0 1-.724.143.455.455 0 0 1 .135-.731zm-3.75.4a.348.348 0 0 1 .458.338.348.348 0 0 1-.5.316.355.355 0 0 1 .042-.65v-.004zm7.679.665a.35.35 0 0 1-.065-.665c.247-.121.474.105.51.34a.385.385 0 0 1-.445.325zm-6.829.935a.542.542 0 1 1-.076.9.547.547 0 0 1 .076-.9zm5.4.238a.547.547 0 0 1 .978-.023.573.573 0 0 1-.357.8.565.565 0 0 1-.62-.772l-.001-.005zm-2.959.754a.673.673 0 0 1 .659-.64.711.711 0 0 1 .556.36.64.64 0 0 1-.3.872.847.847 0 0 1-.477.042.693.693 0 0 1-.428-.64l-.01.006zm-5.566.505a.45.45 0 0 1 .565.665.447.447 0 0 1-.73-.518.454.454 0 0 1 .162-.148h.003zm11.971-.001a.446.446 0 1 1 .497.74.446.446 0 0 1-.497-.74zm-4.83.629a1.082 1.082 0 1 1-.734.976 1.085 1.085 0 0 1 .734-.976zm-2.657.054a1.08 1.08 0 1 1-.5 1.462 1.09 1.09 0 0 1 .5-1.462zm-2.659.909a.68.68 0 0 1 .651-.555.717.717 0 0 1 .633.633.674.674 0 0 1-.631.655.634.634 0 0 1-.653-.733zm7.857-.485a.639.639 0 1 1-.048 1.1.64.64 0 0 1 .048-1.1zm-6.279 1.706a1.08 1.08 0 1 1-.7 1.508 1.091 1.091 0 0 1 .7-1.508zm5.039 0a1.082 1.082 0 1 1-.637 1.55 1.091 1.091 0 0 1 .637-1.55zm-8.03.537a.547.547 0 0 1 .684.69.54.54 0 0 1-.871.229.547.547 0 0 1 .191-.92h-.004zm10.892.578a.615.615 0 0 1 .573-.646.576.576 0 0 1 .521.565.542.542 0 0 1-.788.479.732.732 0 0 1-.306-.4v.002zm-12.867-.385a.353.353 0 0 1 .478.413.352.352 0 0 1-.619.126.357.357 0 0 1 .141-.54zm15.238-.006a.35.35 0 0 1 .537.337.343.343 0 0 1-.366.306c-.343.03-.454-.492-.171-.643zm-8.96 1.459a1.08 1.08 0 1 1-.84 1.04 1.093 1.093 0 0 1 .84-1.04zm2.518 0a1.082 1.082 0 1 1 .523 2.1 1.082 1.082 0 0 1-.523-2.1zm-4.856.4a.639.639 0 1 1-.4 1.052.642.642 0 0 1 .4-1.052zm7.386.02a.638.638 0 0 1 .497 1.171.638.638 0 1 1-.497-1.171zm2.062 2.072a.444.444 0 0 1 .45-.622.549.549 0 0 1 .376.23c.021.172.057.378-.086.51a.444.444 0 0 1-.74-.117v-.001zm-11.83-.541a.45.45 0 0 1 .668.45.448.448 0 1 1-.668-.45zm5.96.653a.637.637 0 1 1-.119 1.129.643.643 0 0 1 .119-1.13zm-2.76.644a.54.54 0 1 1 .157 1.032.533.533 0 0 1-.161-1.032h.004zm5.587.005a.544.544 0 1 1-.064.91.545.545 0 0 1 .064-.91zm.972 2.4a.384.384 0 0 1 .277-.566c.2.04.413.192.371.425a.357.357 0 0 1-.648.142v-.001zm-7.718-.2c.061-.183.21-.367.427-.32a.353.353 0 0 1 .133.648.378.378 0 0 1-.56-.327zm3.724.213a.442.442 0 0 1 .647-.261c.154.066.2.238.238.385-.021.076-.04.153-.059.229a.5.5 0 0 1-.377.222.442.442 0 0 1-.45-.575" fill="#000"/>
</svg>
