<svg width="28" height="28" viewBox="0 0 28 28" fill="none" xmlns="http://www.w3.org/2000/svg">
<circle cx="14" cy="14" r="14" fill="white"/>
<path d="M12.3158 20.3158C14.8741 20.3158 16.9474 18.2425 16.9474 15.6842C16.9474 13.1259 14.8741 11.0526 12.3158 11.0526C9.75747 11.0526 7.68421 13.1259 7.68421 15.6842C7.68421 18.2425 9.75747 20.3158 12.3158 20.3158ZM12.3158 22C8.82779 22 6 19.1722 6 15.6842C6 12.1962 8.82779 9.36841 12.3158 9.36841C15.8038 9.36841 18.6316 12.1962 18.6316 15.6842C18.6316 19.1722 15.8038 22 12.3158 22Z" fill="black"/>
<path d="M15.6842 16.9474C18.2425 16.9474 20.3158 14.8741 20.3158 12.3158C20.3158 9.75747 18.2425 7.68421 15.6842 7.68421C13.1259 7.68421 11.0526 9.75747 11.0526 12.3158C11.0526 14.8741 13.1259 16.9474 15.6842 16.9474ZM15.6842 18.6316C12.1962 18.6316 9.36842 15.8038 9.36842 12.3158C9.36842 8.82779 12.1962 6 15.6842 6C19.1722 6 22 8.82779 22 12.3158C22 15.8038 19.1722 18.6316 15.6842 18.6316Z" fill="black"/>
<path d="M15.8931 18.6316C16.331 18.101 16.6442 17.4796 16.811 16.8109C17.4779 16.6442 18.0994 16.3309 18.6316 15.893C18.608 16.6661 18.4413 17.4274 18.1398 18.1415C17.4274 18.4413 16.6661 18.608 15.8931 18.6316ZM11.1891 11.189C10.5221 11.3558 9.90063 11.669 9.36842 12.1069C9.392 11.3339 9.55874 10.5726 9.86021 9.8602C10.5726 9.56041 11.3356 9.39367 12.107 9.36841C11.6691 9.89893 11.3558 10.5204 11.1891 11.189Z" fill="#F1F1F1"/>
</svg>
