<svg width="28" height="28" viewBox="0 0 28 28" fill="none" xmlns="http://www.w3.org/2000/svg">
<circle cx="14" cy="14" r="14" fill="white"/>
<path d="M18.0069 12.6274C18.2213 12.6274 18.3952 12.4536 18.3952 12.2392C18.3952 12.0248 18.2213 11.851 18.0069 11.851C17.7925 11.851 17.6187 12.0248 17.6187 12.2392C17.6187 12.4536 17.7925 12.6274 18.0069 12.6274Z" fill="black"/>
<path d="M14.0139 6C9.57712 6 6 9.57712 6 14.0139C6 18.4506 9.57712 22.0277 14.0139 22.0277C18.4506 22.0277 22.0277 18.4506 22.0277 14.0139C22.0277 9.57712 18.4229 6 14.0139 6ZM17.6464 17.3414C16.7036 18.3951 15.3449 18.9775 13.9584 18.9775C12.5442 18.9775 11.1854 18.3674 10.2426 17.3137C9.2721 16.2322 8.85615 14.8735 8.9948 13.4315C9.24437 11.13 11.0745 9.29983 13.3761 9.02253C13.5702 8.9948 13.7643 8.9948 13.9584 8.9948C15.0676 8.9948 16.1213 9.35529 17.0087 10.0485C17.0641 10.0763 17.0919 10.1594 17.0919 10.2149C17.0919 10.2981 17.0641 10.3536 17.0087 10.409L16.4818 10.8804C16.4263 10.9359 16.3432 10.9636 16.26 10.9636C16.2045 10.9636 16.1213 10.9359 16.0936 10.9081C15.4558 10.4645 14.7071 10.2426 13.9584 10.2426C12.8769 10.2426 11.851 10.714 11.1577 11.5182C10.4367 12.3224 10.104 13.3761 10.2426 14.4575C10.4367 16.1768 11.8232 17.5633 13.5425 17.7574C13.6811 17.7851 13.8198 17.7851 13.9861 17.7851C14.9844 17.7851 15.9272 17.3969 16.6482 16.6759C16.7036 16.6205 16.7868 16.5927 16.87 16.5927C16.9255 16.5927 16.9809 16.6205 17.0364 16.6482L17.6187 17.0364C17.6742 17.0641 17.7019 17.1196 17.7296 17.2028C17.7019 17.2305 17.6742 17.286 17.6464 17.3414ZM18.0069 13.4593C17.3414 13.4593 16.7868 12.9047 16.7868 12.2392C16.7868 11.5737 17.3414 11.0191 18.0069 11.0191C18.6724 11.0191 19.227 11.5737 19.227 12.2392C19.227 12.9047 18.6724 13.4593 18.0069 13.4593Z" fill="black"/>
</svg>
