<svg width="28" height="28" fill="none" xmlns="http://www.w3.org/2000/svg">
  <path d="M14 28c7.732 0 14-6.268 14-14S21.732 0 14 0 0 6.268 0 14s6.268 14 14 14z" fill="#fff" fill-opacity=".87"/>
  <path d="M14.203 20.645a.89.89 0 0 1-.434-.113l-5.313-2.966A.89.89 0 0 1 8 16.789v-5.932a.89.89 0 0 1 .456-.777l5.313-2.966a.89.89 0 0 1 .867 0l5.313 2.966a.89.89 0 0 1 .456.777v5.932a.89.89 0 0 1-.456.777l-5.313 2.966a.889.889 0 0 1-.433.113zm-4.189-4.247 3.966 2.214a.457.457 0 0 0 .446 0l3.966-2.214a.458.458 0 0 0 .234-.4v-4.353a.458.458 0 0 0-.234-.4l-3.964-2.212a.457.457 0 0 0-.446 0l-3.966 2.214a.457.457 0 0 0-.234.4v4.35a.457.457 0 0 0 .232.4v.001z" fill="#000"/>
</svg>
