<svg width="28" height="28" viewBox="0 0 28 28" fill="none" xmlns="http://www.w3.org/2000/svg">
<circle cx="14" cy="14" r="14" fill="white"/>
<path d="M14 22C18.4184 22 22 18.4184 22 14C22 9.5816 18.4184 6 14 6C9.5816 6 6 9.5816 6 14C6 18.4184 9.5816 22 14 22Z" fill="black"/>
<path fill-rule="evenodd" clip-rule="evenodd" d="M10.6216 16.6824C10.3824 16.536 10.236 16.276 10.236 15.996V14.4328C10.236 14.2472 10.3872 14.0968 10.5728 14.0976C10.632 14.0976 10.6904 14.1136 10.7416 14.1432L14.2688 16.2C14.4752 16.32 14.6024 16.5408 14.6024 16.78V18.3992C14.6032 18.6216 14.4232 18.8024 14.2008 18.8024C14.1264 18.8024 14.0528 18.7816 13.9896 18.7432L10.6216 16.6824ZM15.8792 13.7152C16.0856 13.8352 16.212 14.0568 16.2128 14.2952V17.5816C16.2128 17.6784 16.1608 17.768 16.076 17.8152L15.304 18.2496C15.2944 18.2552 15.284 18.2592 15.2728 18.2624V16.4376C15.2728 16.2016 15.1488 15.9824 14.9456 15.8608L11.848 14.008V11.948C11.848 11.7624 11.9992 11.612 12.1848 11.6128C12.244 11.6128 12.3024 11.6288 12.3536 11.6584L15.8792 13.7152ZM17.4232 11.288C17.6304 11.408 17.7576 11.6296 17.7576 11.8688V16.6688C17.7568 16.7672 17.7024 16.8576 17.616 16.9048L16.884 17.3V13.9584C16.884 13.7224 16.76 13.504 16.5584 13.3824L13.392 11.4832V9.52962C13.392 9.47042 13.408 9.41202 13.4368 9.36082C13.5304 9.20082 13.736 9.14642 13.896 9.23922L17.4232 11.288Z" fill="white"/>
</svg>
