<svg width="28" height="28" viewBox="0 0 28 28" fill="none" xmlns="http://www.w3.org/2000/svg">
<circle cx="14" cy="14" r="14" fill="white"/>
<path d="M14 22C18.4183 22 22 18.4183 22 14C22 9.58172 18.4183 6 14 6C9.58172 6 6 9.58172 6 14C6 18.4183 9.58172 22 14 22Z" fill="black"/>
<path d="M14 18.642C16.5637 18.642 18.6419 16.5637 18.6419 14C18.6419 11.4363 16.5637 9.35806 14 9.35806C11.4363 9.35806 9.35802 11.4363 9.35802 14C9.35802 16.5637 11.4363 18.642 14 18.642Z" fill="#121212"/>
<path d="M14.0165 7.02063C13.1529 7.02063 12.4527 10.1528 12.4527 14.0165C12.4527 17.8803 13.1529 21.0124 14.0165 21.0124C14.88 21.0124 15.5802 17.8803 15.5802 14.0165C15.5802 10.1528 14.88 7.02063 14.0165 7.02063ZM14.1244 20.6176C14.0257 20.7493 13.9269 20.6505 13.9269 20.6505C13.5292 20.1897 13.3304 19.3337 13.3304 19.3337C12.6348 17.095 12.8003 12.2884 12.8003 12.2884C13.1272 8.47247 13.7219 7.57103 13.9243 7.3709C13.945 7.35048 13.9722 7.33799 14.0011 7.33565C14.0301 7.33331 14.0589 7.34126 14.0826 7.3581C14.3763 7.56617 14.6225 8.43631 14.6225 8.43631C15.3498 11.1359 15.2839 13.6709 15.2839 13.6709C15.3498 15.8766 14.9195 18.3457 14.9195 18.3457C14.5883 20.2222 14.1244 20.6176 14.1244 20.6176Z" fill="white"/>
<path d="M20.0846 10.535C19.6547 9.78566 16.5897 10.7371 13.2366 12.6598C9.88361 14.5825 7.51843 16.7487 7.94806 17.4977C8.37769 18.2466 11.443 17.2955 14.7961 15.3729C18.1491 13.4502 20.5143 11.284 20.0846 10.535ZM8.34473 17.3949C8.18012 17.3741 8.21731 17.2388 8.21731 17.2388C8.41923 16.6647 9.06179 16.0662 9.06179 16.0662C10.6581 14.3487 14.91 12.1004 14.91 12.1004C18.3823 10.4849 19.4608 10.5531 19.7344 10.6284C19.7625 10.6362 19.7869 10.6538 19.8033 10.6779C19.8197 10.702 19.8271 10.7311 19.824 10.7601C19.7911 11.1185 19.1573 11.7649 19.1573 11.7649C17.179 13.7399 14.9472 14.9445 14.9472 14.9445C13.0667 16.0997 10.7109 16.9547 10.7109 16.9547C8.9183 17.6006 8.3448 17.3949 8.3448 17.3949H8.34473Z" fill="white"/>
<path d="M20.0693 17.5225C20.5026 16.7752 18.1434 14.5991 14.8021 12.662C11.4609 10.7248 8.39632 9.76166 7.96343 10.5103C7.53054 11.2589 9.88936 13.4337 13.2325 15.3708C16.5756 17.3079 19.6364 18.2712 20.0693 17.5225ZM8.25053 10.799C8.18653 10.6473 8.32163 10.6107 8.32163 10.6107C8.91977 10.4978 9.75995 10.7552 9.75995 10.7552C12.0457 11.2757 16.1215 13.8287 16.1215 13.8287C19.2596 16.0246 19.7408 16.9918 19.813 17.2664C19.8203 17.2945 19.8175 17.3244 19.8049 17.3506C19.7924 17.3769 19.771 17.3979 19.7445 17.4099C19.4173 17.5597 18.5409 17.3365 18.5409 17.3365C15.8396 16.6122 13.6793 15.2852 13.6793 15.2852C11.7383 14.2383 9.81896 12.6275 9.81896 12.6275C8.36054 11.3995 8.25098 10.8007 8.25098 10.8007L8.25053 10.799Z" fill="white"/>
<path d="M14 14.8231C14.4545 14.8231 14.823 14.4546 14.823 14C14.823 13.5455 14.4545 13.177 14 13.177C13.5454 13.177 13.177 13.5455 13.177 14C13.177 14.4546 13.5454 14.8231 14 14.8231Z" fill="white"/>
<path d="M17.3745 11.3333C17.6381 11.3333 17.8518 11.1122 17.8518 10.8395C17.8518 10.5668 17.6381 10.3457 17.3745 10.3457C17.1108 10.3457 16.8971 10.5668 16.8971 10.8395C16.8971 11.1122 17.1108 11.3333 17.3745 11.3333Z" fill="white"/>
<path d="M9.53907 13.0124C9.80272 13.0124 10.0165 12.7913 10.0165 12.5185C10.0165 12.2458 9.80272 12.0247 9.53907 12.0247C9.27543 12.0247 9.0617 12.2458 9.0617 12.5185C9.0617 12.7913 9.27543 13.0124 9.53907 13.0124Z" fill="white"/>
<path d="M13.0288 19.07C13.2924 19.07 13.5062 18.8489 13.5062 18.5761C13.5062 18.3034 13.2924 18.0823 13.0288 18.0823C12.7651 18.0823 12.5514 18.3034 12.5514 18.5761C12.5514 18.8489 12.7651 19.07 13.0288 19.07Z" fill="white"/>
</svg>
