<svg width="28" height="28" viewBox="0 0 28 28" fill="none" xmlns="http://www.w3.org/2000/svg">
<circle cx="14" cy="14" r="14" fill="white"/>
<path d="M14 22C18.4183 22 22 18.4183 22 14C22 9.58172 18.4183 6 14 6C9.58172 6 6 9.58172 6 14C6 18.4183 9.58172 22 14 22Z" fill="black"/>
<path d="M13.99 8.509L18.75 11.2505V16.7505L13.9955 19.5L13.957 19.4905L9.25 16.7505V11.2505L13.957 8.509H13.99ZM13.9745 9.078L9.75 11.538V16.463L13.974 18.9225L14.49 18.624L18.25 16.4615V11.539L14.49 9.364L13.9745 9.078ZM10.4045 14.383L11.655 13.448L12.7605 14.154V15.424L13.597 16.23L13.5965 16.608L12.7905 17.363H12.11L10.405 14.383H10.4045ZM14.356 16.609L14.3545 16.229L15.188 15.424V14.154L16.2815 13.439L17.5295 14.3835L15.833 17.3545H15.161L14.356 16.609ZM13.171 14.154L12.764 13.0885H15.183L14.784 14.154L14.902 15.345L13.9685 15.347L13.046 15.3485L13.171 14.154ZM13.9685 12.7965L11.6695 12.7955L12.097 10.8855H15.829L16.279 12.798L13.9685 12.7965Z" fill="white"/>
</svg>
