<svg xmlns="http://www.w3.org/2000/svg" fill="none" viewBox="0 0 24 24" height="24" width="24">
<path fill-opacity="0.6" fill="white" d="M11.9991 23.497C9.82383 23.497 7.6974 22.8519 5.8887 21.6434C4.08 20.4349 2.67028 18.7172 1.83778 16.7075C1.00528 14.6978 0.787393 12.4864 1.21167 10.3529C1.63596 8.21935 2.68335 6.25955 4.22141 4.72129C6.28731 2.67413 9.07993 1.52856 11.9883 1.53518C14.8967 1.54181 17.6841 2.7001 19.7406 4.75665C21.7972 6.81319 22.9555 9.60056 22.9621 12.509C22.9687 15.4173 21.8231 18.21 19.776 20.2759C18.7571 21.3003 17.5451 22.1124 16.2102 22.6653C14.8753 23.2183 13.444 23.5009 11.9991 23.497ZM11.9991 2.87414C10.0957 2.87414 8.23505 3.43856 6.65241 4.49602C5.06977 5.55348 3.83624 7.05649 3.10779 8.815C2.37935 10.5735 2.18871 12.5085 2.55999 14.3754C2.93126 16.2422 3.84777 17.9571 5.19363 19.303C6.53948 20.649 8.25424 21.5657 10.1211 21.9371C11.9879 22.3086 13.9229 22.1181 15.6815 21.3898C17.44 20.6615 18.9432 19.4281 20.0008 17.8456C21.0584 16.263 21.623 14.4024 21.6231 12.499C21.6213 9.9468 20.6069 7.4996 18.8025 5.6946C16.9982 3.88959 14.5513 2.8743 11.9991 2.87157V2.87414Z"></path>
<path fill-opacity="0.6" fill="white" d="M12.3593 7H14.1408V8.34875C15.0155 8.73295 15.7397 9.39382 16.2024 10.2304L14.4722 11.1916C14.2169 10.7298 13.8161 10.3657 13.3321 10.1558C13.1683 10.0848 12.998 10.0328 12.8246 10H12.3593V9.9585C12.1704 9.96016 11.9812 9.98415 11.7956 10.0308C11.2832 10.1596 10.8272 10.454 10.4983 10.8682C10.1695 11.2825 9.98628 11.7934 9.97706 12.3217C9.96785 12.85 10.1332 13.3661 10.4474 13.7899C10.7616 14.2137 11.2071 14.5214 11.7148 14.6654C12.2224 14.8094 12.7638 14.7815 13.2548 14.586C13.7459 14.3906 14.1592 14.0386 14.4305 13.5847L16.1262 14.5967C15.6609 15.3753 14.9666 15.9895 14.1408 16.3566V17.9009H12.3593V16.7342C12.161 16.734 11.9626 16.7204 11.7654 16.6932V17.9009H9.98393V16.0292C9.55176 15.7482 9.16999 15.3908 8.85881 14.9711C8.28551 14.1979 7.98386 13.2563 8.00067 12.2924C8.01748 11.3285 8.35181 10.3963 8.95177 9.64046C9.24531 9.27066 9.59441 8.95322 9.98393 8.69789V7H11.7654V8.02458C11.9627 7.99633 12.1611 7.98167 12.3593 7.98049V7Z" clip-rule="evenodd" fill-rule="evenodd"></path>
</svg>
