<svg width="28" height="28" viewBox="0 0 28 28" fill="none" xmlns="http://www.w3.org/2000/svg">
<circle cx="14" cy="14" r="14" fill="white"/>
<path d="M13.0405 15.9192H16.9895C18.4567 15.9192 19.6585 14.3839 19.6585 12.4647C19.6585 10.5455 18.4723 9.03039 17.0051 9.03039H15.7408L13.0405 6.00011H16.9895C19.7522 5.9799 21.9999 8.86877 21.9999 12.4445C22.0155 15.091 20.7668 17.4748 18.8625 18.4647L21.9842 21.9596H18.4255L13.0405 15.9192Z" fill="black"/>
<path d="M14.9752 12.0611H11.0261C9.55893 12.0611 8.35706 13.5964 8.35706 15.5156C8.35706 17.4348 9.54332 18.9701 11.0261 18.9701H12.2905L14.9752 22.0004H11.0261C8.26341 22.0004 6.01575 19.1115 6.00014 15.556C5.98454 12.8894 7.23323 10.5055 9.13749 9.51565L6.01575 6.00052H9.59015L14.9752 12.0611Z" fill="black"/>
<path d="M14.9752 12.0611H11.0261C9.55893 12.0611 8.35706 13.5964 8.35706 15.5156C8.35706 17.4348 9.54332 18.9701 11.0261 18.9701H12.2905L14.9752 22.0004H11.0261C8.26341 22.0004 6.01575 19.1115 6.00014 15.556C5.98454 12.8894 7.23323 10.5055 9.13749 9.51565L6.01575 6.00052H9.59015L14.9752 12.0611Z" fill="black"/>
</svg>
