<svg width="28" height="28" viewBox="0 0 28 28" fill="none" xmlns="http://www.w3.org/2000/svg">
<circle cx="14" cy="14" r="14" fill="white"/>
<path fill-rule="evenodd" clip-rule="evenodd" d="M14 6C18.4222 6 22 9.57778 22 14C22 18.3778 18.4889 21.9333 14.1333 22H14V15.2667L12.9778 16.2889L12.8444 18.8222L13.9111 22C13.2889 22 12.6889 21.9111 12.0889 21.7556L11.9333 21.7111L11.4222 20.1778L9.97778 20.9111C9.44444 20.6 8.95556 20.2444 8.51111 19.8222L8.4 19.7111L11.0889 18.3556L11.1778 16.8222L9.64444 16.9111L8.28889 19.6C7.86667 19.1556 7.48889 18.6667 7.17778 18.1556L7.08889 18.0222L7.82222 16.5778L6.28889 16.0667C6.13333 15.4667 6.04444 14.8667 6.02222 14.2667V14.1111L9.22222 15.1778L11.7556 15.0444L12.7778 14.0222L11.7556 13L9.22222 12.8667L6 13.9111C6 13.2889 6.08889 12.6667 6.22222 12.0889L6.26667 11.9333L7.8 11.4222L7.06667 9.97778C7.37778 9.44444 7.73333 8.95556 8.15556 8.51111L8.26667 8.4L9.62222 11.0889L11.1556 11.1778L11.0667 9.64444L8.37778 8.28889C8.82222 7.86667 9.31111 7.48889 9.82222 7.17778L9.95556 7.08889L11.4 7.82222L11.9111 6.28889C12.5111 6.13333 13.1111 6.04444 13.7111 6.02222H13.8667L12.8 9.2L12.9333 11.7333L13.9556 12.7556C14 12.7333 14 6 14 6ZM15.7778 8.04444V19.9778C18.3333 19.2 20.2222 16.8222 20.2222 14C20.2222 11.2222 18.3778 8.86667 15.8667 8.06667L15.7778 8.04444Z" fill="black"/>
</svg>
