<svg width="28" height="28" viewBox="0 0 28 28" fill="none" xmlns="http://www.w3.org/2000/svg">
<circle cx="14" cy="14" r="14" fill="white"/>
<circle cx="14" cy="14" r="8" fill="black"/>
<path d="M10.0161 12.082H14.9916C14.9916 12.082 16.709 12.0656 15.5213 14.3279C15.5213 14.3279 14.6546 16.0984 12.5038 16.0656L13.6627 13.0426C13.6766 13.0068 13.6819 12.968 13.6781 12.9296C13.6742 12.8912 13.6614 12.8544 13.6405 12.8222C13.6197 12.79 13.5916 12.7634 13.5586 12.7447C13.5255 12.726 13.4886 12.7157 13.4508 12.7148L11.926 12.6885L10 17.4754C10 17.4754 10.642 17.541 10.9951 17.5082L10.8025 18H11.711C11.7361 18.0002 11.7608 17.9924 11.7815 17.9777C11.8022 17.9631 11.8179 17.9422 11.8265 17.918L11.9902 17.4754L12.3754 17.4426L12.1507 18H13.0367C13.0693 18.0002 13.1012 17.9903 13.1282 17.9716C13.1551 17.9528 13.1758 17.9261 13.1876 17.8951L13.4347 17.2459C13.4347 17.2459 16.1312 16.7869 17.351 14.5574C17.351 14.5574 18.9881 11.9672 17.0621 11.0492C16.6867 10.8734 16.2853 10.7626 15.8744 10.7213L16.0991 10.1541C16.1059 10.1373 16.1086 10.119 16.1069 10.1009C16.1052 10.0827 16.0992 10.0653 16.0893 10.0501C16.0795 10.0349 16.0662 10.0224 16.0506 10.0136C16.0349 10.0049 16.0174 10.0002 15.9996 10H15.1682L14.9114 10.6885H14.5583L14.7573 10.1541C14.7634 10.137 14.7654 10.1186 14.7632 10.1006C14.761 10.0825 14.7547 10.0652 14.7446 10.0501C14.7346 10.0351 14.7212 10.0227 14.7055 10.014C14.6899 10.0052 14.6724 10.0005 14.6546 10H13.8199L13.5631 10.6885H10.9694C10.8997 10.6883 10.8313 10.7074 10.7713 10.7437C10.7114 10.7801 10.6623 10.8324 10.6292 10.8951L10.0161 12.082Z" fill="white"/>
</svg>
