<svg width="28" height="28" viewBox="0 0 28 28" fill="none" xmlns="http://www.w3.org/2000/svg">
<circle cx="14" cy="14" r="14" fill="white"/>
<path fill-rule="evenodd" clip-rule="evenodd" d="M18.8074 9.17499C18.7448 9.11249 18.7072 9.04999 18.7072 8.96249C18.7072 8.87499 18.7448 8.81249 18.8074 8.74999C18.9327 8.63749 19.1332 8.63749 19.271 8.74999C19.3336 8.81249 19.3712 8.87499 19.3712 8.96249C19.3712 9.04999 19.3336 9.11249 19.271 9.17499C19.2084 9.22499 19.1206 9.26249 19.0455 9.26249C18.9578 9.27499 18.8701 9.24999 18.8074 9.17499Z" fill="black"/>
<path fill-rule="evenodd" clip-rule="evenodd" d="M18.0062 10.0375C17.956 9.97498 17.9185 9.91248 17.9185 9.82498C17.9185 9.73748 17.956 9.67498 18.0062 9.61248C18.1189 9.49998 18.3194 9.49998 18.4322 9.61248C18.4823 9.67498 18.5199 9.73748 18.5199 9.82498C18.5199 9.91248 18.4823 9.97498 18.4322 10.0375C18.3695 10.0875 18.3069 10.125 18.2192 10.125C18.1315 10.125 18.0688 10.0875 18.0062 10.0375Z" fill="black"/>
<path fill-rule="evenodd" clip-rule="evenodd" d="M17.1298 10.8625C17.0797 10.8125 17.0421 10.7375 17.0421 10.65C17.0421 10.5625 17.0797 10.5 17.1298 10.4375C17.2426 10.325 17.443 10.325 17.5558 10.4375C17.6059 10.4875 17.6435 10.5625 17.6435 10.65C17.6435 10.7375 17.6059 10.8 17.5558 10.8625C17.4932 10.925 17.4305 10.95 17.3428 10.95C17.2551 10.95 17.1799 10.9125 17.1298 10.8625Z" fill="black"/>
<path fill-rule="evenodd" clip-rule="evenodd" d="M16.291 11.7C16.2284 11.65 16.1908 11.575 16.1908 11.4875C16.1908 11.4 16.2284 11.3375 16.291 11.275C16.4163 11.1625 16.6168 11.1625 16.7546 11.275C16.8172 11.325 16.8548 11.4 16.8548 11.4875C16.8548 11.575 16.8172 11.65 16.7546 11.7C16.692 11.7625 16.6042 11.7875 16.5291 11.7875C16.4414 11.7875 16.3662 11.775 16.291 11.7Z" fill="black"/>
<path fill-rule="evenodd" clip-rule="evenodd" d="M15.4898 12.5375C15.4271 12.4875 15.4021 12.4125 15.4021 12.325C15.4021 12.2375 15.4396 12.175 15.4898 12.1125C15.6025 12 15.803 12 15.9158 12.1125C15.9784 12.1625 16.0035 12.2375 16.0035 12.325C16.0035 12.4125 15.9659 12.4875 15.9158 12.5375C15.8656 12.6 15.7905 12.625 15.7028 12.625C15.6276 12.6375 15.5399 12.6125 15.4898 12.5375Z" fill="black"/>
<path fill-rule="evenodd" clip-rule="evenodd" d="M14.5257 13.1625C14.5257 13.075 14.5633 13.0125 14.6134 12.95C14.7262 12.8375 14.9267 12.8375 15.0394 12.95C15.1021 13.0125 15.1271 13.075 15.1271 13.1625C15.1271 13.25 15.0895 13.3125 15.0394 13.375C14.9893 13.425 14.9141 13.4625 14.8264 13.4625C14.7387 13.4625 14.6761 13.425 14.6134 13.375C14.5508 13.325 14.5257 13.25 14.5257 13.1625Z" fill="black"/>
<path fill-rule="evenodd" clip-rule="evenodd" d="M12.9608 15.0125C12.9107 14.9625 12.8731 14.8875 12.8731 14.8C12.8731 14.7125 12.9107 14.65 12.9608 14.5875C13.0736 14.475 13.2741 14.475 13.3868 14.5875C13.4495 14.65 13.4745 14.7125 13.4745 14.8C13.4745 14.8875 13.437 14.95 13.3868 15.0125C13.3367 15.075 13.2615 15.1 13.1738 15.1C13.0987 15.1125 13.0235 15.0875 12.9608 15.0125Z" fill="black"/>
<path fill-rule="evenodd" clip-rule="evenodd" d="M12.097 15.85C12.0344 15.8 11.9968 15.725 11.9968 15.6375C11.9968 15.55 12.0344 15.4875 12.097 15.425C12.2223 15.3125 12.4228 15.3125 12.5606 15.425C12.6233 15.4875 12.6609 15.55 12.6609 15.6375C12.6609 15.725 12.6233 15.7875 12.5606 15.85C12.498 15.9125 12.4103 15.9375 12.3351 15.9375C12.2349 15.95 12.1597 15.9125 12.097 15.85Z" fill="black"/>
<path fill-rule="evenodd" clip-rule="evenodd" d="M11.2833 16.7C11.2331 16.65 11.1956 16.575 11.1956 16.4875C11.1956 16.4 11.2331 16.325 11.2833 16.275C11.396 16.1625 11.5965 16.1625 11.7093 16.275C11.7594 16.325 11.797 16.4 11.797 16.4875C11.797 16.575 11.7594 16.6375 11.7093 16.7C11.6466 16.7625 11.584 16.7875 11.4963 16.7875C11.4086 16.7875 11.3584 16.75 11.2833 16.7Z" fill="black"/>
<path fill-rule="evenodd" clip-rule="evenodd" d="M10.4444 17.5375C10.3818 17.4875 10.3567 17.4125 10.3567 17.325C10.3567 17.2375 10.3943 17.175 10.4444 17.1125C10.5572 17 10.7577 17 10.8704 17.1125C10.9206 17.175 10.9582 17.2375 10.9582 17.325C10.9582 17.4125 10.9206 17.4875 10.8704 17.5375C10.8078 17.6 10.7452 17.625 10.6574 17.625C10.5823 17.625 10.4946 17.6 10.4444 17.5375Z" fill="black"/>
<path fill-rule="evenodd" clip-rule="evenodd" d="M9.58062 18.375C9.51797 18.325 9.48038 18.25 9.48038 18.1625C9.48038 18.075 9.51797 18.0125 9.58062 17.95C9.70591 17.8375 9.90638 17.8375 10.0191 17.95C10.0818 18.0125 10.1194 18.075 10.1194 18.1625C10.1194 18.25 10.0818 18.325 10.0191 18.375C9.9565 18.425 9.8688 18.4625 9.79362 18.4625C9.70591 18.4625 9.63074 18.4375 9.58062 18.375Z" fill="black"/>
<path fill-rule="evenodd" clip-rule="evenodd" d="M8.75433 19.2125C8.69168 19.15 8.66663 19.0875 8.66663 19C8.66663 18.9125 8.70421 18.85 8.75433 18.7875C8.8671 18.675 9.06757 18.675 9.18033 18.7875C9.24298 18.85 9.26804 18.9125 9.26804 19C9.26804 19.0875 9.23045 19.15 9.18033 19.2125C9.13021 19.2625 9.05504 19.3 8.96733 19.3C8.90468 19.3125 8.82951 19.275 8.75433 19.2125Z" fill="black"/>
<path fill-rule="evenodd" clip-rule="evenodd" d="M9.18033 9.17499C9.23045 9.11249 9.26804 9.04999 9.26804 8.96249C9.26804 8.87499 9.23045 8.81249 9.18033 8.74999C9.06757 8.63749 8.8671 8.63749 8.75433 8.74999C8.69168 8.81249 8.66663 8.87499 8.66663 8.96249C8.66663 9.04999 8.70421 9.11249 8.75433 9.17499C8.80445 9.22499 8.87963 9.26249 8.96733 9.26249C9.05504 9.27499 9.13021 9.24999 9.18033 9.17499Z" fill="black"/>
<path fill-rule="evenodd" clip-rule="evenodd" d="M10.0192 10.0375C10.0818 9.97498 10.1194 9.91248 10.1194 9.82498C10.1194 9.73748 10.0818 9.67498 10.0192 9.61248C9.89387 9.49998 9.6934 9.49998 9.55558 9.61248C9.49293 9.67498 9.45535 9.73748 9.45535 9.82498C9.45535 9.91248 9.49293 9.97498 9.55558 10.0375C9.61823 10.0875 9.70593 10.125 9.78111 10.125C9.86881 10.1125 9.95652 10.0875 10.0192 10.0375Z" fill="black"/>
<path fill-rule="evenodd" clip-rule="evenodd" d="M10.8704 10.8625C10.9206 10.8125 10.9582 10.7375 10.9582 10.65C10.9582 10.5625 10.9206 10.5 10.8704 10.4375C10.7577 10.325 10.5572 10.325 10.4444 10.4375C10.3943 10.4875 10.3567 10.5625 10.3567 10.65C10.3567 10.7375 10.3943 10.8 10.4444 10.8625C10.5071 10.925 10.5697 10.95 10.6574 10.95C10.7326 10.95 10.8078 10.9125 10.8704 10.8625Z" fill="black"/>
<path fill-rule="evenodd" clip-rule="evenodd" d="M11.7093 11.7C11.7594 11.65 11.797 11.575 11.797 11.4875C11.797 11.4 11.7594 11.3375 11.7093 11.275C11.5965 11.1625 11.396 11.1625 11.2833 11.275C11.2331 11.325 11.1956 11.4 11.1956 11.4875C11.1956 11.575 11.2331 11.65 11.2833 11.7C11.3459 11.7625 11.4086 11.7875 11.4963 11.7875C11.5714 11.7875 11.6466 11.775 11.7093 11.7Z" fill="black"/>
<path fill-rule="evenodd" clip-rule="evenodd" d="M12.5356 12.5375C12.5982 12.4875 12.6358 12.4125 12.6358 12.325C12.6358 12.2375 12.5982 12.175 12.5356 12.1125C12.4228 12 12.2098 12 12.097 12.1125C12.0344 12.1625 11.9968 12.2375 11.9968 12.325C11.9968 12.4125 12.0344 12.4875 12.097 12.5375C12.1597 12.6 12.2474 12.625 12.3226 12.625C12.3977 12.6375 12.4854 12.6125 12.5356 12.5375Z" fill="black"/>
<path fill-rule="evenodd" clip-rule="evenodd" d="M13.4745 13.1625C13.4745 13.075 13.437 13.0125 13.3868 12.95C13.2741 12.8375 13.0736 12.8375 12.9608 12.95C12.8982 13.0125 12.8731 13.075 12.8731 13.1625C12.8731 13.25 12.9107 13.3125 12.9608 13.375C13.011 13.425 13.0861 13.4625 13.1738 13.4625C13.2615 13.4625 13.3242 13.425 13.3868 13.375C13.4495 13.325 13.4745 13.25 13.4745 13.1625Z" fill="black"/>
<path fill-rule="evenodd" clip-rule="evenodd" d="M14.2257 14.225C14.2883 14.1625 14.3134 14.1 14.3134 14.0125C14.3134 13.925 14.2758 13.8625 14.2257 13.8C14.1129 13.6875 13.9124 13.6875 13.7997 13.8C13.737 13.8625 13.712 13.925 13.712 14.0125C13.712 14.1 13.7495 14.1625 13.7997 14.225C13.8498 14.275 13.925 14.3125 14.0127 14.3125C14.1004 14.3125 14.1755 14.275 14.2257 14.225Z" fill="black"/>
<path fill-rule="evenodd" clip-rule="evenodd" d="M15.0645 15.0125C15.1271 14.9625 15.1647 14.8875 15.1647 14.8C15.1647 14.7125 15.1271 14.65 15.0645 14.5875C14.9392 14.475 14.7387 14.475 14.6259 14.5875C14.5633 14.65 14.5257 14.7125 14.5257 14.8C14.5257 14.8875 14.5633 14.95 14.6259 15.0125C14.6886 15.075 14.7763 15.1 14.8515 15.1C14.9141 15.1125 15.0018 15.0875 15.0645 15.0125Z" fill="black"/>
<path fill-rule="evenodd" clip-rule="evenodd" d="M15.9158 15.85C15.9659 15.8 16.0035 15.725 16.0035 15.6375C16.0035 15.55 15.9659 15.4875 15.9158 15.425C15.803 15.3125 15.6025 15.3125 15.4898 15.425C15.4396 15.4875 15.4021 15.55 15.4021 15.6375C15.4021 15.725 15.4396 15.7875 15.4898 15.85C15.5524 15.9125 15.6151 15.9375 15.7028 15.9375C15.7654 15.95 15.8531 15.9125 15.9158 15.85Z" fill="black"/>
<path fill-rule="evenodd" clip-rule="evenodd" d="M16.7546 16.7C16.8047 16.65 16.8423 16.575 16.8423 16.4875C16.8423 16.4 16.8047 16.325 16.7546 16.275C16.6418 16.1625 16.4413 16.1625 16.3286 16.275C16.2785 16.325 16.2409 16.4 16.2409 16.4875C16.2409 16.575 16.2785 16.6375 16.3286 16.7C16.3912 16.7625 16.4539 16.7875 16.5416 16.7875C16.6293 16.7875 16.6919 16.75 16.7546 16.7Z" fill="black"/>
<path fill-rule="evenodd" clip-rule="evenodd" d="M17.5433 17.5375C17.6059 17.4875 17.631 17.4125 17.631 17.325C17.631 17.2375 17.5934 17.175 17.5433 17.1125C17.4305 17 17.2301 17 17.1173 17.1125C17.0672 17.175 17.0296 17.2375 17.0296 17.325C17.0296 17.4125 17.0672 17.4875 17.1173 17.5375C17.1799 17.6 17.2426 17.625 17.3303 17.625C17.4055 17.625 17.4932 17.6 17.5433 17.5375Z" fill="black"/>
<path fill-rule="evenodd" clip-rule="evenodd" d="M18.4322 18.375C18.4948 18.325 18.5199 18.25 18.5199 18.1625C18.5199 18.075 18.4823 18.0125 18.4322 17.95C18.3194 17.8375 18.1189 17.8375 18.0062 17.95C17.9435 18.0125 17.9185 18.075 17.9185 18.1625C17.9185 18.25 17.956 18.325 18.0062 18.375C18.0563 18.425 18.1315 18.4625 18.2192 18.4625C18.3069 18.4625 18.382 18.4375 18.4322 18.375Z" fill="black"/>
<path fill-rule="evenodd" clip-rule="evenodd" d="M19.271 19.2125C19.3336 19.15 19.3712 19.0875 19.3712 19C19.3712 18.9125 19.3336 18.85 19.271 18.7875C19.1457 18.675 18.9452 18.675 18.8325 18.7875C18.7698 18.85 18.7322 18.9125 18.7322 19C18.7322 19.0875 18.7698 19.15 18.8325 19.2125C18.8951 19.2625 18.9828 19.3 19.058 19.3C19.1206 19.3125 19.1958 19.275 19.271 19.2125Z" fill="black"/>
<path fill-rule="evenodd" clip-rule="evenodd" d="M11.1705 9.4125C12.0218 8.85 12.9608 8.5875 13.9999 8.575C15.014 8.575 15.9529 8.85 16.8293 9.4125L18.6321 7.6125C17.2174 6.5375 15.69 6 13.9999 6C12.3098 6 10.7574 6.5375 9.38024 7.6125L11.1705 9.4125Z" fill="black"/>
<path fill-rule="evenodd" clip-rule="evenodd" d="M9.36772 16.8C8.79182 15.925 8.5164 15 8.5164 14C8.5164 12.9875 8.79182 12.05 9.36772 11.2L7.57744 9.41251C6.52581 10.7875 6 12.3125 6 14.0125C6 15.6875 6.52581 17.225 7.58996 18.625L9.36772 16.8Z" fill="black"/>
<path fill-rule="evenodd" clip-rule="evenodd" d="M16.8168 18.5875C15.9654 19.1625 15.0265 19.4625 14.0124 19.475C12.9733 19.475 12.0218 19.2 11.1705 18.6L9.36772 20.3875C10.7574 21.475 12.3098 22.0125 14.0124 22C15.7025 21.9875 17.2299 21.4375 18.607 20.3875L16.8168 18.5875Z" fill="black"/>
<path fill-rule="evenodd" clip-rule="evenodd" d="M18.582 11.175C19.1579 12.05 19.4583 13 19.4333 14.025C19.4208 15.025 19.1328 15.9375 18.582 16.775L20.3848 18.5625C21.4489 17.1875 21.9998 15.6625 21.9998 13.9875C22.0123 12.2875 21.474 10.7375 20.3848 9.35001L18.582 11.175Z" fill="black"/>
<path fill-rule="evenodd" clip-rule="evenodd" d="M20.4599 19.15C21.1485 19.15 21.7244 19.7125 21.7244 20.4125C21.7244 21.1 21.161 21.675 20.4599 21.675C19.7713 21.675 19.1954 21.1125 19.1954 20.4125C19.1954 19.7125 19.7588 19.15 20.4599 19.15Z" fill="black"/>
<path fill-rule="evenodd" clip-rule="evenodd" d="M7.56517 19.15C8.25374 19.15 8.81711 19.7125 8.81711 20.4125C8.81711 21.1 8.25374 21.675 7.56517 21.675C6.87661 21.675 6.31323 21.1125 6.31323 20.4125C6.31323 19.7125 6.87661 19.15 7.56517 19.15Z" fill="black"/>
<path fill-rule="evenodd" clip-rule="evenodd" d="M20.4849 6.27499C21.1735 6.27499 21.7369 6.83749 21.7369 7.53749C21.7369 8.23749 21.1735 8.79999 20.4849 8.79999C19.7964 8.79999 19.233 8.23749 19.233 7.53749C19.233 6.83749 19.7964 6.27499 20.4849 6.27499Z" fill="black"/>
<path fill-rule="evenodd" clip-rule="evenodd" d="M7.54011 6.27499C8.22868 6.27499 8.80457 6.83749 8.80457 7.52499C8.80457 8.21249 8.24119 8.77499 7.54011 8.77499C6.85154 8.77499 6.27565 8.21249 6.27565 7.52499C6.27565 6.83749 6.83902 6.27499 7.54011 6.27499Z" fill="black"/>
</svg>
