<svg width="28" height="28" viewBox="0 0 28 28" fill="none" xmlns="http://www.w3.org/2000/svg">
<circle cx="14" cy="14" r="14" fill="white"/>
<path d="M14.0056 22.0113C18.427 22.0113 22.0113 18.427 22.0113 14.0056C22.0113 9.58425 18.427 6 14.0056 6C9.58425 6 6 9.58425 6 14.0056C6 18.427 9.58425 22.0113 14.0056 22.0113Z" fill="black"/>
<path d="M17.2463 10.1101C17.5173 10.144 17.7996 10.1666 18.0706 10.2117C18.6013 10.3134 18.7819 10.5843 18.6916 11.1263C18.669 11.3296 18.5109 11.4877 18.3077 11.5215C18.1835 11.5441 18.048 11.5554 17.9238 11.5441C16.1623 11.5441 14.4121 11.5554 12.6507 11.5554C12.391 11.5554 12.12 11.578 11.8603 11.6232C10.9908 11.7587 10.6521 12.12 10.5843 13.0007C10.5504 13.4072 10.5504 13.4072 10.9682 13.4072H17.9689C18.0367 13.4072 18.1044 13.4072 18.1722 13.4072C18.2851 13.4072 18.3867 13.4411 18.4883 13.4975C18.8045 13.7008 18.7255 14.0282 18.7142 14.3218C18.7029 14.5589 18.5561 14.6944 18.3077 14.7396C18.2061 14.7622 18.1044 14.7622 17.9915 14.7622C15.5977 14.7622 13.2039 14.7622 10.8101 14.7622C10.5504 14.7622 10.5504 14.7622 10.573 15.0219C10.5843 15.259 10.6069 15.4961 10.6634 15.7333C10.7763 16.1623 11.036 16.4333 11.4763 16.5575C11.9506 16.693 12.4474 16.7156 12.9329 16.7269C14.638 16.7269 16.3543 16.7269 18.0706 16.7269C18.2851 16.7269 18.4883 16.7495 18.6238 16.9527C18.8384 17.2915 18.7255 17.7318 18.3867 17.9464C18.3416 17.9803 18.2964 18.0028 18.2399 18.0141C17.8673 18.1383 17.4834 18.1609 17.0882 18.1722C15.4735 18.2061 13.8701 18.2061 12.2667 18.1722C11.7699 18.1609 11.2731 18.1045 10.7876 18.0028C9.64713 17.7657 9.07127 17.1786 8.87931 16.0268C8.83414 15.7671 8.81156 15.4961 8.77769 15.2251V13.1249C8.80027 12.9217 8.82285 12.7071 8.84544 12.5039C8.99222 11.2054 9.57938 10.5618 10.8553 10.2682C11.307 10.1666 11.7812 10.144 12.2329 10.0988L17.2463 10.1101Z" fill="white"/>
<path d="M14.6718 18.398C13.8589 18.398 13.0572 18.3867 12.2555 18.3755C11.7473 18.3642 11.2392 18.3077 10.7424 18.1948C9.51164 17.9351 8.87932 17.2802 8.67607 16.0607C8.6422 15.8688 8.61961 15.6768 8.60832 15.4961C8.59703 15.4171 8.58574 15.3381 8.57445 15.2477V15.2251V13.1023L8.59703 12.8991C8.60832 12.7523 8.6309 12.6168 8.6422 12.4813C8.80028 11.0925 9.45518 10.3811 10.8214 10.0762C11.1828 9.99719 11.5328 9.96332 11.8828 9.92944C11.9958 9.91815 12.1087 9.90686 12.2216 9.89557H12.2442H17.2689H17.2802C17.3592 9.90686 17.4495 9.91815 17.5286 9.91815C17.7205 9.94073 17.9125 9.95203 18.1157 9.99719C18.7593 10.1214 19.0078 10.4827 18.8948 11.1376C18.861 11.4199 18.6351 11.657 18.3303 11.7022C18.1948 11.7248 18.0593 11.7361 17.9125 11.7361C16.1623 11.7474 14.4008 11.7587 12.6507 11.7587C12.4023 11.7587 12.1425 11.7812 11.8941 11.8264C11.115 11.9506 10.8553 12.2329 10.7876 13.0233C10.7876 13.0911 10.7763 13.1588 10.7763 13.2153C10.8214 13.2153 10.9005 13.2153 10.9682 13.2153H18.1722C18.319 13.2153 18.4658 13.2604 18.59 13.3282C18.9739 13.5766 18.94 13.9492 18.9174 14.2202C18.9174 14.2541 18.9061 14.2992 18.9061 14.3331C18.8835 14.6493 18.6916 14.8638 18.3416 14.9316C18.2174 14.9541 18.1044 14.9541 17.9915 14.9541H10.8214C10.8102 14.9541 10.7876 14.9541 10.7763 14.9541C10.7763 14.9654 10.7763 14.9767 10.7763 14.988V14.9993C10.7876 15.2364 10.8102 15.4623 10.8666 15.6881C10.9569 16.0381 11.1715 16.2527 11.5328 16.3543C12.0183 16.4898 12.5152 16.5124 12.9442 16.5124C14.2766 16.5237 15.6316 16.5237 16.9527 16.5237H18.0819C18.2512 16.5237 18.6013 16.5237 18.8045 16.8511C18.94 17.0656 18.9739 17.3141 18.9174 17.5512C18.861 17.7883 18.7142 17.9915 18.4996 18.127C18.4432 18.1609 18.3754 18.1948 18.3077 18.2174C17.8899 18.3529 17.4608 18.3755 17.0995 18.3867C16.2978 18.3867 15.4848 18.398 14.6718 18.398ZM8.98094 15.2138C8.99223 15.2929 9.00352 15.3719 9.00352 15.451C9.02611 15.6316 9.04869 15.8123 9.07127 15.993C9.25194 17.0544 9.76005 17.5738 10.8214 17.7996C11.2957 17.9012 11.7812 17.9577 12.2668 17.969C13.8589 18.0028 15.4848 18.0028 17.0882 17.969C17.4157 17.9577 17.8109 17.9351 18.1722 17.8222C18.2061 17.8109 18.2399 17.7883 18.2738 17.777C18.3867 17.698 18.4771 17.5851 18.5109 17.4496C18.5448 17.3141 18.5222 17.1786 18.4432 17.0544C18.3754 16.9527 18.2851 16.9189 18.0706 16.9189H16.9414C15.6316 16.9189 14.2653 16.9189 12.933 16.9076C12.4813 16.9076 11.9506 16.885 11.4199 16.7269C10.9118 16.5914 10.5956 16.264 10.4714 15.7558C10.415 15.5074 10.3811 15.2477 10.3811 14.9993V14.988C10.3698 14.8299 10.3585 14.717 10.4488 14.6154C10.5392 14.5138 10.6634 14.5138 10.8214 14.5138H18.0028C18.0931 14.5138 18.1948 14.5138 18.2851 14.4912C18.4658 14.4573 18.5109 14.3783 18.5222 14.2654C18.5222 14.2202 18.5335 14.1863 18.5335 14.1412C18.5561 13.8589 18.5561 13.7234 18.398 13.6218C18.3416 13.5879 18.2625 13.5653 18.1948 13.5653H10.9682C10.7198 13.5653 10.573 13.5653 10.4601 13.4524C10.3472 13.3395 10.3698 13.1814 10.3811 12.9443C10.4601 11.9732 10.8666 11.5328 11.8264 11.386C12.0974 11.3409 12.3684 11.3183 12.6507 11.307C14.4121 11.307 16.1623 11.2957 17.9238 11.2957C18.048 11.2957 18.1609 11.2957 18.2738 11.2731C18.3867 11.2618 18.4771 11.1715 18.4883 11.0586C18.5674 10.6069 18.4545 10.4601 18.0254 10.3698C17.8447 10.3359 17.6641 10.3134 17.4834 10.3021C17.4044 10.2908 17.314 10.2795 17.235 10.2795H12.2442C12.1313 10.2908 12.0183 10.3021 11.9054 10.3134C11.5554 10.3472 11.2279 10.3698 10.8892 10.4489C9.70359 10.7424 9.18419 11.3183 9.04869 12.5378C9.0374 12.6733 9.01481 12.8088 9.00352 12.9556L8.98094 13.1475V15.2138Z" fill="white"/>
</svg>
