<svg width="28" height="28" fill="none" xmlns="http://www.w3.org/2000/svg">
  <path d="M14 28c7.732 0 14-6.268 14-14S21.732 0 14 0 0 6.268 0 14s6.268 14 14 14z" fill="#fff" fill-opacity=".87"/>
  <path d="m13.957 7.076-3.932 6.341a.164.164 0 0 0 .052.225l4.011 2.534a.164.164 0 0 0 .177 0l3.9-2.531a.164.164 0 0 0 .05-.225l-3.981-6.343a.164.164 0 0 0-.278 0l.001-.001zM14.232 18.371l3.446-2.143a.164.164 0 0 1 .25.123.164.164 0 0 1-.026.106l-3.473 5.275a.165.165 0 0 1-.21.056.163.163 0 0 1-.06-.051l-3.758-5.243a.164.164 0 0 1 .219-.235l3.438 2.113a.163.163 0 0 0 .174-.001z" fill="#000"/>
</svg>
