<svg xmlns="http://www.w3.org/2000/svg" width="96" height="96" viewBox="0 0 96 96">
  <g id="Group_4766" data-name="Group 4766" transform="translate(-118 -138)">
    <g id="noun_market_crash_2534515" data-name="noun_market crash_2534515" transform="translate(116 136)">
      <g id="Group_4765" data-name="Group 4765">
        <path id="Path_4911" data-name="Path 4911" d="M92.67,72.932l-20.7-21.264-4.053,4.124-9.24-13.156-7.256,4.957-11.4-13.331L30.8,42.147,6.077,19,4.539,20.643,3,22.285l27.663,25.9,8.867-7.577,11.1,12.98,6.924-4.729L67.34,62.8l4.615-4.7L89.488,76.114l-2.973,2.972A.83.83,0,0,0,87.1,80.5h10v-10a.83.83,0,0,0-1.416-.586Z" fill="rgba(255,255,255,0.87)" fill-rule="evenodd"/>
      </g>
    </g>
    <rect id="Rectangle_1468" data-name="Rectangle 1468" width="96" height="96" transform="translate(118 138)" fill="none"/>
  </g>
</svg>
