<svg width="28" height="28" viewBox="0 0 28 28" fill="none" xmlns="http://www.w3.org/2000/svg">
<circle cx="14" cy="14" r="14" fill="white"/>
<path d="M18.5484 6C17.6346 5.99929 16.7578 6.3622 16.1105 7.00908C15.4632 7.65595 15.0984 8.53393 15.096 9.45028V13.2758C14.7404 13.2999 14.3769 13.315 14 13.315C13.6231 13.315 13.2613 13.3302 12.904 13.3516V9.45028C12.8895 8.54188 12.5194 7.67561 11.8736 7.03836C11.2278 6.40111 10.3581 6.04396 9.452 6.04396C8.54595 6.04396 7.67621 6.40111 7.03042 7.03836C6.38462 7.67561 6.01454 8.54188 6 9.45028V18.5934C6.01454 19.5018 6.38462 20.3681 7.03042 21.0053C7.67621 21.6426 8.54595 21.9997 9.452 21.9997C10.3581 21.9997 11.2278 21.6426 11.8736 21.0053C12.5194 20.3681 12.8895 19.5018 12.904 18.5934V14.7679C13.2596 14.7438 13.6231 14.7287 14 14.7287C14.3769 14.7287 14.7387 14.7135 15.096 14.6921V18.5934C15.1105 19.5018 15.4806 20.3681 16.1264 21.0053C16.7722 21.6426 17.6419 21.9997 18.548 21.9997C19.4541 21.9997 20.3238 21.6426 20.9696 21.0053C21.6154 20.3681 21.9855 19.5018 22 18.5934V9.45028C21.9976 8.53408 21.6329 7.65624 20.9858 7.00939C20.3387 6.36254 19.4622 5.99953 18.5484 6ZM9.45156 7.41363C9.99089 7.41339 10.5083 7.62769 10.8902 8.00951C11.2722 8.39133 11.4875 8.90948 11.4889 9.45028V13.5013C10.4789 13.6481 9.49264 13.9277 8.55556 14.3329C8.14954 14.5116 7.76733 14.7403 7.41778 15.0139V9.45028C7.41919 8.9101 7.634 8.39248 8.01518 8.01077C8.39636 7.62905 8.91284 7.41433 9.45156 7.41363ZM11.4889 18.5934C11.4889 19.1352 11.2742 19.6548 10.8922 20.0379C10.5101 20.4211 9.99189 20.6363 9.45156 20.6363C8.91122 20.6363 8.39302 20.4211 8.01094 20.0379C7.62887 19.6548 7.41422 19.1352 7.41422 18.5934V17.6762C7.41422 16.866 8.05422 16.0986 9.12711 15.6209C9.88309 15.2938 10.6763 15.0612 11.4889 14.9283V18.5934ZM18.5484 20.63C18.0091 20.6303 17.4917 20.416 17.1098 20.0342C16.7278 19.6523 16.5125 19.1342 16.5111 18.5934V14.5424C17.5211 14.3956 18.5074 14.116 19.4444 13.7108C19.8505 13.5321 20.2327 13.3033 20.5822 13.0298V18.5934C20.5808 19.1336 20.366 19.6512 19.9848 20.0329C19.6036 20.4146 19.0872 20.6293 18.5484 20.63ZM18.8729 12.4175C18.1169 12.7445 17.3237 12.9771 16.5111 13.11V9.45028C16.5111 8.90847 16.7258 8.38885 17.1078 8.00574C17.4899 7.62262 18.0081 7.40739 18.5484 7.40739C19.0888 7.40739 19.607 7.62262 19.9891 8.00574C20.3711 8.38885 20.5858 8.90847 20.5858 9.45028V10.3674C20.5858 11.1741 19.9458 11.9415 18.8729 12.4175Z" fill="black"/>
</svg>
