<svg width="28" height="28" viewBox="0 0 28 28" fill="none" xmlns="http://www.w3.org/2000/svg">
<circle cx="14" cy="14" r="14" fill="white"/>
<path d="M16.1306 10.1617C16.5948 9.69741 17.3575 9.69741 17.8218 10.1617C18.286 10.6259 18.286 11.3886 17.8218 11.8528C17.5482 12.1264 17.1834 12.2425 16.8104 12.1927C16.7938 12.1927 16.7772 12.1927 16.7523 12.1927C16.6446 12.1762 16.5285 12.1927 16.4124 12.2425C16.2549 12.3171 16.1472 12.4415 16.0891 12.5907C16.0311 12.7399 16.0394 12.9057 16.1057 13.0549C16.5036 13.9171 16.3212 14.9617 15.6415 15.6332C14.9617 16.313 13.9254 16.4953 13.0632 16.0974C12.9057 16.0228 12.7399 16.0228 12.5907 16.0808C12.4415 16.1389 12.3171 16.2466 12.2508 16.3959C12.2093 16.4953 12.1845 16.5948 12.1927 16.7026C12.1927 16.7192 12.1927 16.744 12.1927 16.7606C12.2591 17.142 12.1264 17.5316 11.8611 17.8052C11.3969 18.2694 10.6342 18.2694 10.1699 17.8052C9.94611 17.5813 9.82176 17.2829 9.82176 16.9596C9.82176 16.6446 9.94611 16.3378 10.1699 16.114C10.4435 15.8404 10.8083 15.7244 11.1813 15.7741C11.1896 15.7741 11.1896 15.7741 11.1979 15.7741C11.2394 15.7824 11.2808 15.7907 11.3223 15.7907C11.4135 15.7907 11.4964 15.7741 11.5793 15.7326C11.7368 15.658 11.8446 15.5337 11.8943 15.3927C11.9523 15.2435 11.9523 15.0694 11.8777 14.9119C11.4798 14.0415 11.6622 13.0052 12.342 12.3337C13.0218 11.6539 14.058 11.4715 14.9202 11.8694C15.0694 11.944 15.2435 11.944 15.3927 11.886C15.542 11.828 15.6663 11.7202 15.7409 11.571C15.799 11.4549 15.8073 11.3223 15.7907 11.1979C15.7326 10.8249 15.857 10.4352 16.1306 10.1617ZM14.9451 14.9368C15.4591 14.4228 15.4591 13.5855 14.9451 13.0632C14.4311 12.5492 13.5938 12.5492 13.0715 13.0632C12.5575 13.5772 12.5575 14.4145 13.0715 14.9368C13.5938 15.4508 14.4311 15.4508 14.9451 14.9368ZM14 6C18.4187 6 22 9.58135 22 14C22 18.4187 18.4187 22 14 22C9.58135 22 6 18.4187 6 14C6 9.58135 9.58135 6 14 6ZM18.2611 12.3005C18.9658 11.5959 18.9658 10.4518 18.2611 9.73886C17.5565 9.0342 16.4124 9.0342 15.6995 9.73886C15.4342 10.0041 15.2767 10.3275 15.2021 10.6591C13.9171 10.1782 12.4497 10.485 11.4715 11.4632C10.4933 12.4415 10.1865 13.9171 10.6756 15.2021C10.3358 15.2684 10.0124 15.4342 9.74715 15.6995C9.04249 16.4041 9.04249 17.5482 9.74715 18.2611C10.4518 18.9658 11.5959 18.9658 12.3088 18.2611C12.5741 17.9959 12.7399 17.6642 12.8062 17.3244C13.2041 17.4736 13.6187 17.5482 14.0332 17.5482C14.9534 17.5482 15.857 17.1917 16.5285 16.5202C17.5067 15.542 17.8135 14.0829 17.3409 12.8062C17.6725 12.7233 17.9959 12.5575 18.2611 12.3005Z" fill="black"/>
</svg>
