<svg width="28" height="28" viewBox="0 0 28 28" fill="none" xmlns="http://www.w3.org/2000/svg">
<circle cx="14" cy="14" r="14" fill="white" fill-opacity="0.87"/>
<path d="M9.76046 20.6788L8.67713 18.8093C8.66035 18.7752 8.65163 18.7377 8.65163 18.6998C8.65163 18.6618 8.66035 18.6244 8.67713 18.5903L9.88005 16.515C9.9012 16.4829 9.92956 16.4562 9.96287 16.437C9.99618 16.4178 10.0335 16.4066 10.0719 16.4043H12.4773C12.5158 16.4066 12.5532 16.4178 12.5866 16.437C12.62 16.4562 12.6484 16.4829 12.6697 16.515L13.8726 18.5903C13.8896 18.6247 13.8985 18.6626 13.8985 18.701C13.8985 18.7393 13.8896 18.7772 13.8726 18.8116L12.6697 20.887C12.6485 20.9183 12.6205 20.9445 12.5878 20.9636C12.5551 20.9827 12.5184 20.9942 12.4806 20.9972H10.3182C10.207 20.9901 10.0989 20.9577 10.0022 20.9025C9.90555 20.8473 9.82284 20.7708 9.76046 20.6788ZM17.5721 16.4081L15.1757 12.2743C15.1466 12.2306 15.1077 12.1942 15.0621 12.168C15.0165 12.1417 14.9655 12.1264 14.9129 12.1231H10.1202C10.0676 12.1264 10.0165 12.1417 9.97094 12.168C9.92534 12.1942 9.88647 12.2306 9.85736 12.2743L7.46097 16.4099C7.43743 16.4569 7.42517 16.5086 7.42517 16.5611C7.42517 16.6136 7.43743 16.6653 7.46097 16.7123L8.16335 17.9254L9.39226 15.8062C9.42556 15.7553 9.47043 15.7129 9.52323 15.6825C9.57603 15.652 9.63528 15.6344 9.69618 15.631H12.8535C12.9145 15.6344 12.9737 15.652 13.0265 15.6825C13.0793 15.7129 13.1242 15.7553 13.1575 15.8062L14.7366 18.531C14.7641 18.5852 14.7785 18.6451 14.7785 18.7059C14.7785 18.7667 14.7641 18.8266 14.7366 18.8809L13.5077 21H14.9115C14.9641 20.9968 15.0152 20.9814 15.0609 20.9551C15.1065 20.9287 15.1453 20.8922 15.1743 20.8484L17.5707 16.7132C17.5949 16.666 17.6077 16.6138 17.6079 16.5608C17.6082 16.5078 17.5959 16.4555 17.5721 16.4081ZM21.9206 13.6725L18.2447 7.32635C18.1824 7.2315 18.0986 7.15256 18.0001 7.09588C17.9016 7.03919 17.7911 7.00635 17.6775 7H10.3225C10.2089 7.00635 10.0984 7.03919 9.99985 7.09588C9.90133 7.15256 9.81756 7.2315 9.75526 7.32635L6.07797 13.6725C6.02671 13.7736 6 13.8853 6 13.9986C6 14.1119 6.02671 14.2236 6.07797 14.3247L6.92072 15.7789L9.36437 11.5613C9.40554 11.4986 9.46096 11.4463 9.52616 11.4088C9.59136 11.3714 9.66451 11.3497 9.73967 11.3457H15.2892C15.3643 11.3497 15.4375 11.3714 15.5027 11.4088C15.5679 11.4463 15.6233 11.4986 15.6645 11.5613L18.4394 16.3501C18.4734 16.417 18.4912 16.4909 18.4912 16.5658C18.4912 16.6408 18.4734 16.7146 18.4394 16.7815L15.9963 20.9972H17.6775C17.7911 20.9908 17.9016 20.958 18.0001 20.9013C18.0986 20.8446 18.1824 20.7657 18.2447 20.6708L21.922 14.3247C21.9733 14.2236 22 14.1119 22 13.9986C22 13.8853 21.9733 13.7736 21.922 13.6725H21.9206Z" fill="black"/>
</svg>
