<svg width="28" height="28" viewBox="0 0 28 28" fill="none" xmlns="http://www.w3.org/2000/svg">
<circle cx="14" cy="14" r="14" fill="white"/>
<path d="M6.4187 6.01762C6.17642 6.04404 5.98994 6.09688 6.00042 6.13651C6.09706 6.45545 6.6946 8.33321 6.70277 8.34453C6.71094 8.35585 6.84977 8.36906 7.01311 8.3785C7.73724 8.41624 8.31028 8.61251 8.9296 9.03713C9.37469 9.34097 9.70409 9.66745 10.0471 10.1411C10.5521 10.8394 10.8815 11.615 11.0748 12.5643C11.0965 12.6737 11.1142 12.7719 11.1142 12.787C11.1142 12.8077 11.004 12.8115 10.5167 12.8115C10.1873 12.8115 9.90417 12.8191 9.88648 12.8285C9.86062 12.8417 9.79256 13.0455 9.50944 13.9457C9.31888 14.5515 9.16099 15.061 9.15827 15.078C9.14874 15.1271 9.26308 15.1705 9.54892 15.229C9.60744 15.2422 9.95862 15.2554 10.3738 15.263L11.0965 15.2743L11.053 15.4819C10.5657 17.7729 9.05346 19.3752 7.20095 19.5677C7.09614 19.5771 6.95866 19.5865 6.89469 19.5865H6.77899L6.42237 20.7245C6.11612 21.6964 6.06848 21.8625 6.0889 21.8719C6.18145 21.9191 6.38835 21.9361 6.86747 21.9361C7.47998 21.9361 7.77807 21.8983 8.28305 21.7549C10.3452 21.168 12.0589 19.3488 12.8347 16.918C12.9844 16.45 13.16 15.68 13.1913 15.3573L13.2009 15.2649H14.7485L14.7539 15.3064C14.8655 16.065 14.9867 16.5765 15.1963 17.1804C15.8265 18.9996 17.008 20.4848 18.4712 21.3001C19.3597 21.7935 20.3115 22.0304 21.2683 21.9965C21.6685 21.9795 21.987 21.9172 21.9707 21.8587C21.9571 21.8097 21.2792 19.6526 21.2751 19.6469C21.2711 19.6413 21.1309 19.6337 20.9607 19.6243C20.483 19.5979 20.1236 19.5205 19.718 19.3601C19.0932 19.111 18.4753 18.6599 18.0016 18.1089C17.4054 17.4125 16.9739 16.5463 16.7453 15.5857C16.7194 15.4762 16.6935 15.3611 16.6895 15.3271L16.6799 15.2668L17.2625 15.2611C17.5824 15.2573 17.8546 15.2479 17.8655 15.2403C17.8832 15.2271 18.5801 13.0361 18.5801 12.9927C18.5801 12.9644 18.4045 12.8927 18.2452 12.8568C18.1282 12.8304 17.9798 12.8228 17.3877 12.8172L16.6704 12.8077L16.6976 12.6737C17.0951 10.7224 18.3147 9.17301 19.8868 8.62383C20.2339 8.50305 20.5714 8.44078 21.0097 8.41624C21.2711 8.40114 21.3037 8.39548 21.3201 8.36529C21.331 8.34453 21.4916 7.84442 21.6767 7.25373C21.904 6.53094 22.0088 6.17426 21.9993 6.16482C21.9693 6.14217 21.7788 6.09499 21.629 6.07423C21.4113 6.04215 20.7756 6.04781 20.4952 6.08178C18.8918 6.27994 17.4463 7.17636 16.3628 8.64082C15.7013 9.53535 15.2371 10.5393 14.9513 11.6981C14.8778 11.9906 14.7893 12.4511 14.7621 12.6737L14.7458 12.8115H13.2244L13.219 12.7681C13.2149 12.7455 13.1999 12.6379 13.1836 12.5284C12.959 10.9809 12.3247 9.47684 11.4291 8.36906C10.4096 7.10653 9.13826 6.3158 7.73901 6.07556C7.31841 6.00441 6.77627 5.97988 6.4187 6.01762Z" fill="black"/>
</svg>
