<svg width="28" height="28" viewBox="0 0 28 28" fill="none" xmlns="http://www.w3.org/2000/svg">
<circle cx="14" cy="14" r="14" fill="white"/>
<path d="M20.6207 8.75862C21.3825 8.75862 22 8.14108 22 7.37931C22 6.61754 21.3825 6 20.6207 6C19.8589 6 19.2414 6.61754 19.2414 7.37931C19.2414 8.14108 19.8589 8.75862 20.6207 8.75862Z" fill="black"/>
<path d="M10.0166 16.3669C9.49707 15.485 9.28527 14.4556 9.41443 13.4403C9.54358 12.425 10.0064 11.4814 10.7301 10.7577C11.4538 10.0339 12.3974 9.57116 13.4127 9.44201C14.428 9.31286 15.4575 9.52466 16.3393 10.0441L17.4428 8.94069L17.3876 8.89655C16.2007 8.11424 14.7794 7.7675 13.3656 7.91538C11.9519 8.06326 10.633 8.69662 9.63377 9.7076C8.63449 10.7186 8.01654 12.0447 7.88514 13.4601C7.75374 14.8755 8.11702 16.2927 8.9131 17.4703L10.0166 16.3669Z" fill="black"/>
<path d="M17.9834 11.6938C18.5029 12.5757 18.7147 13.6051 18.5856 14.6204C18.4564 15.6357 17.9936 16.5793 17.2699 17.3031C16.5462 18.0268 15.6026 18.4895 14.5873 18.6187C13.572 18.7478 12.5425 18.536 11.6607 18.0166L10.5572 19.12C11.7391 19.9224 13.1637 20.2876 14.5858 20.1528C16.0079 20.0181 17.3385 19.3917 18.3485 18.3817C19.3586 17.3716 19.985 16.041 20.1197 14.6189C20.2545 13.1968 19.8893 11.7722 19.0869 10.5904L17.9834 11.6938Z" fill="black"/>
<path d="M7.37931 22C8.14108 22 8.75862 21.3825 8.75862 20.6207C8.75862 19.8589 8.14108 19.2414 7.37931 19.2414C6.61754 19.2414 6 19.8589 6 20.6207C6 21.3825 6.61754 22 7.37931 22Z" fill="black"/>
</svg>
