<svg width="28" height="28" viewBox="0 0 28 28" fill="none" xmlns="http://www.w3.org/2000/svg">
<circle cx="14" cy="14" r="14" fill="white" fill-opacity="0.87"/>
<path d="M17.7775 10C16.125 10 14.8325 11.0325 14 11.965C13.1675 11.0325 11.875 10 10.2225 10C7.895 10 6 11.795 6 14C6 16.205 7.895 18 10.2225 18C11.875 18 13.1675 16.9675 14 16.035C14.8325 16.9675 16.125 18 17.7775 18C20.105 18 22 16.205 22 14C22 11.795 20.105 10 17.7775 10ZM10.2225 15.6C9.2175 15.6 8.4 14.8825 8.4 14C8.4 13.1175 9.2175 12.4 10.2225 12.4C11.1775 12.4 12.0575 13.3025 12.5725 14C12.0625 14.69 11.175 15.6 10.2225 15.6ZM17.7775 15.6C16.8225 15.6 15.9425 14.6975 15.4275 14C15.9375 13.31 16.825 12.4 17.7775 12.4C18.7825 12.4 19.6 13.1175 19.6 14C19.6 14.8825 18.7825 15.6 17.7775 15.6Z" fill="black"/>
</svg>
