<svg xmlns="http://www.w3.org/2000/svg" fill="none" viewBox="0 0 50 50" height="50" width="50">
<path fill="white" d="M3.125 46.4286C3.125 48.404 4.52148 50 6.25 50H21.875V32.1429H3.125V46.4286ZM28.125 50H43.75C45.4785 50 46.875 48.404 46.875 46.4286V32.1429H28.125V50ZM46.875 14.2857H42.7637C43.3691 12.9353 43.75 11.4397 43.75 9.82143C43.75 4.40848 39.8926 0 35.1562 0C31.0938 0 28.4668 2.37723 25.0977 7.62277C21.7285 2.37723 19.1016 0 15.0391 0C10.3027 0 6.44531 4.40848 6.44531 9.82143C6.44531 11.4397 6.81641 12.9353 7.43164 14.2857H3.125C1.39648 14.2857 0 15.8817 0 17.8571V26.7857C0 27.7679 0.703125 28.5714 1.5625 28.5714H48.4375C49.2969 28.5714 50 27.7679 50 26.7857V17.8571C50 15.8817 48.6035 14.2857 46.875 14.2857ZM15.0293 14.2857C12.8711 14.2857 11.123 12.2879 11.123 9.82143C11.123 7.35491 12.8711 5.35714 15.0293 5.35714C16.9727 5.35714 18.4082 5.72545 23.4375 14.2857H15.0293ZM35.1562 14.2857H26.748C31.7676 5.74777 33.1641 5.35714 35.1562 5.35714C37.3145 5.35714 39.0625 7.35491 39.0625 9.82143C39.0625 12.2879 37.3145 14.2857 35.1562 14.2857Z"></path>
</svg>
