<svg width="28" height="28" viewBox="0 0 28 28" fill="none" xmlns="http://www.w3.org/2000/svg">
<circle cx="14" cy="14" r="14" fill="white"/>
<path d="M14 6L6 10V18L14 22L22 18V10L14 6ZM14.1636 18.9577L8.02311 15.9246L8.048 14.4496L14.16 17.4796L17.1076 16.0077L15.1307 15.0192L14.3911 15.3888L13.0044 14.699L13.7476 14.3264L12.7769 13.8399L12.1902 14.1355L10.8 13.4457L11.3902 13.1501L8.25778 11.5828L14.16 8.63279L19.728 11.3826L18.2347 12.1339L14.16 10.1109L11.2124 11.5828L12.8622 12.408L13.7049 11.9831L15.0951 12.6728L14.2453 13.0978L15.216 13.5843L15.9058 13.2363L17.296 13.9261L16.5991 14.2771L20.0551 16.0046L14.1636 18.9577Z" fill="black"/>
</svg>
