<svg width="28" height="28" fill="none" xmlns="http://www.w3.org/2000/svg">
  <path d="M14 28c7.732 0 14-6.268 14-14S21.732 0 14 0 0 6.268 0 14s6.268 14 14 14z" fill="#fff" fill-opacity=".87"/>
  <path d="M17.783 7.82a.9.9 0 0 0 .9-.91.901.901 0 1 0-1.792 0 .9.9 0 0 0 .892.91zm.264 2.365a.772.772 0 0 0 .167-1.526.771.771 0 1 0-.167 1.525v.001zm2.084.3a.77.77 0 0 0 .56-1.309.77.77 0 1 0-.559 1.31h-.001zm-.25 2.023a.658.658 0 1 0 .017-1.315.658.658 0 0 0-.017 1.315zm1.669.656a.661.661 0 1 0 .022-1.325.661.661 0 0 0-.022 1.326zm-3.766-.93a.673.673 0 1 0-.615-.416.668.668 0 0 0 .615.417zm-.6 1.61a.564.564 0 1 0 .013-1.127.564.564 0 0 0-.013 1.127zm2.087.285a.561.561 0 1 0-.001 0h.001zm1.664.654a.567.567 0 1 0-.001 0h.001zM20.112 16a.478.478 0 0 0 .347-.812.477.477 0 1 0-.347.812zm-1.672-.639a.489.489 0 1 0 .013-.977.489.489 0 0 0-.013.977zm-2.084-.3a.484.484 0 1 0 .011-.972.484.484 0 0 0-.011.974v-.002zm1.158 1.147a.42.42 0 1 0-.295-.123.417.417 0 0 0 .295.125v-.002zm1.671.654a.424.424 0 1 0-.298-.124.422.422 0 0 0 .298.126v-.002zm-.941.491a.335.335 0 1 0 .008-.672.335.335 0 0 0-.008.673zm-.892.263a.3.3 0 1 0-.114-.022.3.3 0 0 0 .115.023h-.001zm-.781-.872a.36.36 0 1 0-.136-.027c.043.018.09.028.137.028h-.001zm-1.146-.825a.42.42 0 1 0 .01-.841.42.42 0 0 0-.01.841zm3.4 5.255a.905.905 0 1 0-.001 0h.001zm-2.266-1.146a.756.756 0 1 0-.001 0h.001zm-1.295 1.657a.763.763 0 1 0-.533-.225.755.755 0 0 0 .533.225zm-.389-3.055a.66.66 0 1 0 .017-1.32.66.66 0 0 0-.017 1.32zm-1.292 1.681a.658.658 0 1 0 .017-1.315.658.658 0 0 0-.017 1.315zm-1.392 1.141a.656.656 0 1 0 .02-1.311.656.656 0 0 0-.02 1.311zm-1.158-1.486a.56.56 0 0 0 .405-.952.559.559 0 1 0-.405.952zm1.394-1.146a.56.56 0 0 0 .405-.952.559.559 0 0 0-.916.606.555.555 0 0 0 .511.346zm1.3-1.68a.561.561 0 1 0-.392-.166.555.555 0 0 0 .393.166h-.001zm-1.99.23a.487.487 0 1 0-.184-.037.482.482 0 0 0 .185.038h-.001zm-1.385 1.143a.482.482 0 1 0 .013-.963.482.482 0 0 0-.013.963zm-.319-1.338a.416.416 0 0 0 .413-.493.415.415 0 1 0-.414.493h.001zM10.021 16a.359.359 0 1 0 .013-.717.359.359 0 0 0-.013.717zm.193-.976a.3.3 0 1 0 0-.602.3.3 0 0 0 0 .603zm1.2-.163a.36.36 0 1 0-.004.001h.004zm1.309-.51a.42.42 0 1 0 .01-.841.42.42 0 0 0-.01.84zm.312 1.33a.48.48 0 1 0 .014-.959.48.48 0 0 0-.014.96zm-1.609.354a.418.418 0 1 0-.292-.123.414.414 0 0 0 .292.124zm-4.537-.618a.9.9 0 1 0 0-1.8.9.9 0 0 0 0 1.8zm2.019-1.609a.774.774 0 1 0 .022-1.547.774.774 0 0 0-.022 1.547zm-.788-1.983a.77.77 0 0 0 .166-1.522.77.77 0 1 0-.166 1.522zm1.946-.94a.66.66 0 1 0 .017-1.32.66.66 0 0 0-.017 1.32zm.795 1.98a.662.662 0 1 0 .018-1.324.662.662 0 0 0-.018 1.323zm1.771-.412a.564.564 0 1 0 .017-1.128.564.564 0 0 0-.017 1.128zm1.529.005a.483.483 0 1 0-.183-.037.484.484 0 0 0 .184.037h-.001zm1.264.291a.408.408 0 1 0-.283-.122c.075.077.177.12.284.122h-.001zm.165-1.49a.356.356 0 1 0-.135-.028c.043.018.09.028.136.028h-.001zm-.972-.488a.414.414 0 1 0-.156-.031c.05.02.103.032.157.032h-.001zm-1.249-.3a.482.482 0 1 0-.474-.47.478.478 0 0 0 .474.475v-.005zm-1.527 0a.564.564 0 1 0-.556-.563.56.56 0 0 0 .556.57v-.007zM9.786 9.07a.639.639 0 1 0 .02-1.278.639.639 0 0 0-.02 1.278zm1.77-.387a.563.563 0 1 0 .014-1.126.563.563 0 0 0-.014 1.126zm1.529.007a.486.486 0 1 0 .014-.972.486.486 0 0 0-.014.972zm1.255.29a.408.408 0 1 0 .016-.817.408.408 0 0 0-.016.816zm.964.5a.365.365 0 1 0-.004 0h.004zm.707.573a.3.3 0 1 0 0-.602.3.3 0 0 0 0 .603z" fill="#000"/>
</svg>
