<svg width="28" height="28" viewBox="0 0 28 28" fill="none" xmlns="http://www.w3.org/2000/svg">
<circle cx="14" cy="14" r="14" fill="white"/>
<path d="M21.9637 6H6V21.9637H21.9637V6Z" fill="black" stroke="black" stroke-miterlimit="10"/>
<path d="M19.5365 10.6041C19.3478 10.4553 19.1229 10.2522 18.7129 10.2014C18.3283 10.1506 17.9365 10.4082 17.6716 10.5787C17.4068 10.7492 16.9061 11.2499 16.6993 11.4023C16.4925 11.5547 15.9628 11.6962 15.1102 12.2077C14.2576 12.7193 10.9125 14.8671 10.9125 14.8671L11.7832 14.878L7.90113 16.8771H8.28934L7.73061 17.3016C7.73061 17.3016 8.22403 17.4322 8.63764 17.171V17.2907C8.63764 17.2907 13.2599 15.4694 14.1524 15.9411L13.6082 16.1007C13.6553 16.1007 14.5333 16.1587 14.5333 16.1587C14.5546 16.3406 14.6158 16.5154 14.7123 16.671C14.8089 16.8265 14.9385 16.9588 15.0921 17.0585C15.6218 17.4068 15.6326 17.5991 15.6326 17.5991C15.6326 17.5991 15.3569 17.7116 15.3569 17.8531C15.3569 17.8531 15.7633 17.7297 16.1406 17.7406C16.3801 17.7497 16.6176 17.7874 16.8481 17.8531C16.8481 17.8531 16.819 17.7007 16.4526 17.5991C16.0862 17.4975 15.7234 17.0984 15.5456 16.8807C15.4367 16.7422 15.3657 16.5777 15.3396 16.4034C15.3135 16.2291 15.3333 16.051 15.3968 15.8866C15.5238 15.5565 15.9664 15.3751 16.8807 14.9034C17.9583 14.3447 18.205 13.9311 18.3574 13.6082C18.5097 13.2853 18.7347 12.6431 18.8617 12.342C19.0213 11.9538 19.2172 11.7469 19.3805 11.6236C19.5438 11.5002 20.2694 11.2281 20.2694 11.2281C20.2694 11.2281 19.7143 10.7456 19.5365 10.6041Z" fill="white"/>
</svg>
