<svg width="28" height="28" viewBox="0 0 28 28" fill="none" xmlns="http://www.w3.org/2000/svg">
<circle cx="14" cy="14" r="14" fill="white"/>
<path d="M13.2555 14.0001L18.5745 17.4172C18.6172 17.446 18.666 17.4616 18.7159 17.4622C18.7658 17.4629 18.8149 17.4486 18.8582 17.4209C18.9015 17.3932 18.9375 17.3531 18.9624 17.3046C18.9873 17.2561 19.0003 17.2011 19 17.1452V10.8502C19.0006 10.7941 18.9878 10.739 18.9629 10.6904C18.938 10.6418 18.9019 10.6016 18.8584 10.5741C18.8149 10.5465 18.7656 10.5326 18.7156 10.5337C18.6657 10.5348 18.6169 10.551 18.5745 10.5805L13.2555 14.0001Z" fill="black"/>
<path d="M18.4617 9.06666L14.8257 6.06711C14.788 6.03469 14.7439 6.01316 14.6971 6.00441C14.6502 5.99566 14.6022 5.99997 14.5572 6.01694C14.5122 6.03392 14.4717 6.06305 14.4391 6.10176C14.4065 6.14047 14.3829 6.18757 14.3704 6.23892L13.0428 12.9205L18.4298 9.57971C18.4708 9.55606 18.5057 9.52096 18.531 9.47779C18.5564 9.43462 18.5714 9.38484 18.5746 9.33327C18.5778 9.2817 18.5691 9.23006 18.5493 9.18336C18.5296 9.13666 18.4994 9.09647 18.4617 9.06666Z" fill="black"/>
<path d="M14.8214 21.9297L18.4617 18.9301C18.4999 18.9 18.5305 18.8594 18.5507 18.8123C18.5709 18.7651 18.5799 18.7129 18.5769 18.6606C18.5739 18.6084 18.559 18.5579 18.5336 18.514C18.5082 18.4701 18.4732 18.4343 18.4319 18.4099L13.0428 15.0691L14.3704 21.7507C14.3814 21.8026 14.4037 21.8506 14.4354 21.8905C14.4671 21.9303 14.507 21.9607 14.5518 21.9789C14.5965 21.9971 14.6445 22.0026 14.6916 21.9949C14.7387 21.9871 14.7833 21.9663 14.8214 21.9344" fill="black"/>
<path d="M11.8723 13.876L13.2552 6.62168C13.2658 6.56157 13.2601 6.49928 13.2389 6.44281C13.2178 6.38633 13.182 6.33823 13.1363 6.30466C13.0906 6.27108 13.037 6.25357 12.9824 6.25436C12.9278 6.25515 12.8746 6.2742 12.8297 6.30908L9.28731 9.35636C9.19761 9.43354 9.12501 9.53292 9.07519 9.64675C9.02537 9.76058 8.99967 9.88578 9.00008 10.0126V17.7441C8.99834 17.8725 9.02341 17.9996 9.07328 18.1152C9.12316 18.2308 9.19645 18.3317 9.28731 18.4099L12.8127 21.4476C12.8576 21.4825 12.9108 21.5016 12.9654 21.5023C13.02 21.5031 13.0736 21.4856 13.1193 21.4521C13.165 21.4185 13.2007 21.3704 13.2219 21.3139C13.2431 21.2574 13.2488 21.1951 13.2382 21.135L11.8723 13.876Z" fill="black"/>
</svg>
