<svg width="28" height="28" viewBox="0 0 28 28" fill="none" xmlns="http://www.w3.org/2000/svg">
<circle cx="14" cy="14" r="14" fill="white"/>
<path d="M14 22C18.4183 22 22 18.4183 22 14C22 9.58172 18.4183 6 14 6C9.58172 6 6 9.58172 6 14C6 18.4183 9.58172 22 14 22Z" fill="black"/>
<path d="M10.0624 16.4V12.6347L12.9179 14.7837V16.4H13.6467V14.632C13.6465 14.5663 13.6312 14.5015 13.6018 14.4428C13.5724 14.384 13.5298 14.3328 13.4773 14.2933L10.0144 11.6861C9.95106 11.6391 9.87592 11.6105 9.79732 11.6036C9.71873 11.5967 9.63975 11.6117 9.56918 11.647C9.49862 11.6823 9.43921 11.7365 9.39758 11.8035C9.35594 11.8705 9.3337 11.9478 9.33333 12.0267V16.4H10.0624ZM17.9595 16.4V12.6347L15.104 14.7837V16.4H14.3752V14.632C14.3753 14.5663 14.3907 14.5015 14.4201 14.4428C14.4495 14.384 14.4921 14.3328 14.5445 14.2933L18.0075 11.6872C18.0707 11.6402 18.1458 11.6117 18.2243 11.6047C18.3028 11.5978 18.3817 11.6127 18.4522 11.6479C18.5227 11.683 18.5822 11.737 18.6239 11.8039C18.6656 11.8707 18.688 11.9479 18.6885 12.0267V16.4H17.9595Z" fill="white"/>
</svg>
