<svg width="28" height="28" fill="none" xmlns="http://www.w3.org/2000/svg">
  <path d="M28 14a14 14 0 1 1-4.1-9.9A13.908 13.908 0 0 1 28 14z" fill="#fff" fill-opacity=".87"/>
  <path d="m24.47 17.526-.064.185-.021.06-.01.024-.057.154c-.02.054-.033.087-.051.13l-.037.093c-.005.015-.012.029-.018.044a5.79 5.79 0 0 1-.141.327l-.022.049-.07.15-.021.044-.091.184-.1.2h-5.763v-6.305l-4 4.719-4-4.719v6.305H4.237a10.94 10.94 0 0 1-.708-1.641h4.824V8.395l5.646 6.648 5.645-6.653v9.134l4.826.002z" fill="#000"/>
</svg>
