<svg width="28" height="28" viewBox="0 0 28 28" fill="none" xmlns="http://www.w3.org/2000/svg">
<circle cx="14" cy="14" r="14" fill="white"/>
<path d="M7.15144 18C7.78737 18 8.30289 17.3989 8.30289 16.6573C8.30289 15.9158 7.78737 15.3146 7.15144 15.3146C6.51552 15.3146 6 15.9158 6 16.6573C6 17.3989 6.51552 18 7.15144 18Z" fill="black"/>
<path d="M20.8726 10C20.2493 10 19.7212 10.5878 19.7212 11.3427C19.7212 12.406 19.5769 12.6854 18.5697 12.6854H18.4735C17.8983 12.7414 17.4423 13.3012 17.4423 14V14.028C17.4423 15.0634 17.274 15.3146 16.2909 15.3146C16.2428 15.3146 16.1947 15.3146 16.1707 15.3427C15.5954 15.4268 15.1394 15.9865 15.1394 16.6573C15.1394 17.3842 15.6435 18 16.2909 18C16.8902 18 17.3942 17.4403 17.4183 16.7695V16.6573C17.4183 15.7061 17.6819 15.3427 18.5457 15.3146H18.5697C19.169 15.3146 19.6731 14.7549 19.6971 14.0561V13.972C19.6971 12.9927 19.9607 12.6293 20.8486 12.6293C21.4719 12.6293 22 12.0415 22 11.2866C22 10.5878 21.496 10 20.8726 10ZM14.1082 12.6854H14.012C13.0049 12.6854 12.8606 12.406 12.8606 11.3427C12.8606 10.6158 12.3566 10 11.7092 10C11.0858 10 10.5577 10.5878 10.5577 11.3427C10.5577 12.406 10.4134 12.6573 9.40628 12.6573H9.31009C8.73483 12.7134 8.27888 13.2731 8.27888 13.972C8.27888 14.6988 8.78293 15.3146 9.43032 15.3146C10.0296 15.3146 10.5337 14.7549 10.5577 14.0841V14C10.5577 13.0208 10.8213 12.6573 11.7092 12.6573C12.597 12.6573 12.8606 13.0208 12.8606 13.972C12.8606 14.6988 13.3646 15.3146 14.012 15.3146C14.6594 15.3146 15.1635 14.7269 15.1635 13.972C15.1394 13.3012 14.6835 12.7414 14.1082 12.6854Z" fill="black"/>
</svg>
