<svg width="28" height="28" viewBox="0 0 28 28" fill="none" xmlns="http://www.w3.org/2000/svg">
<circle cx="14" cy="14" r="14" fill="white"/>
<path d="M14.0042 22L13.9126 21.9541C10.3385 19.8579 7.63506 16.4 6.53534 12.2689C6.35969 11.6186 6.22986 10.953 6.13822 10.2798C6.05421 9.60656 6.00839 8.92568 6.00075 8.24481C6.00075 8.13005 5.98548 8.14536 6.0924 8.0918C7.4365 7.32678 8.85696 6.76831 10.3614 6.41639C10.9189 6.28634 11.4764 6.18689 12.0416 6.11803C12.8205 6.02623 13.5995 5.98798 14.3861 6.00328C14.829 6.01093 15.2643 6.04153 15.6996 6.08743C17.8914 6.32459 19.9458 6.98251 21.8703 8.0612C21.9008 8.0765 21.9237 8.0918 21.9543 8.1071C21.9848 8.1224 22.0001 8.14536 22.0001 8.18361V8.29836C21.9925 8.69617 21.9772 9.08634 21.9466 9.48415C21.9008 10.0503 21.8245 10.6087 21.7175 11.1672C21.4884 12.3683 21.1295 13.5235 20.6331 14.6328C19.8465 16.4 18.7697 17.976 17.4103 19.353C16.4328 20.3475 15.3407 21.2044 14.1341 21.9158C14.0883 21.9464 14.0501 21.9694 14.0042 22ZM6.7339 8.63497V8.72678C6.7339 9.28525 6.77208 9.85137 6.84082 10.4022C6.90191 10.9071 6.98592 11.4044 7.10047 11.9016C7.12338 11.9858 7.14629 12.0699 7.18448 12.1541C7.8718 13.6153 9.46028 14.3956 11.0335 14.0361C12.2325 13.7607 13.21 12.835 13.5384 11.6492C13.63 11.3202 13.6606 10.9836 13.6759 10.647C13.6835 10.4251 13.7064 10.2033 13.7446 9.98142C14.0042 8.63497 14.8978 7.52568 16.1579 6.99781C16.2266 6.96721 16.303 6.94426 16.3717 6.91366C16.3793 6.90601 16.3946 6.90601 16.3946 6.89071C16.196 6.82186 15.0123 6.69945 14.3021 6.68415C12.7747 6.65355 11.2779 6.85246 9.81922 7.29617C8.73477 7.62514 7.71142 8.06885 6.7339 8.63497ZM17.9984 17.8C18.0365 17.777 18.0595 17.7464 18.0747 17.7235C18.3802 17.341 18.6704 16.9432 18.9377 16.5301C19.8923 15.0459 20.5644 13.447 20.9386 11.718C21.0684 11.129 21.1524 10.5399 21.2059 9.94317C21.2441 9.5377 21.2593 9.13224 21.2593 8.71913C21.2593 8.68852 21.2593 8.66557 21.2517 8.63497L21.1371 8.56612C20.824 8.39016 20.5033 8.22186 20.1825 8.06885C19.709 7.84699 19.2355 7.64809 18.7391 7.48743C18.1358 7.29617 17.5249 7.27322 16.9139 7.42623C15.1651 7.84699 14.0424 9.56831 14.3785 11.3355C14.5617 12.3148 15.0887 13.0798 15.9288 13.6153C15.9822 13.6536 16.0433 13.6842 16.0968 13.7224C16.7154 14.0973 17.1965 14.6098 17.5401 15.2448C17.9067 15.9104 18.0671 16.6295 18.0213 17.3869C18.0289 17.5169 18.0136 17.6546 17.9984 17.8ZM14.0042 21.2197C14.0348 21.2044 14.073 21.1814 14.1035 21.1585C15.0658 20.5923 15.9517 19.9191 16.7612 19.1541C16.8146 19.1082 16.8528 19.047 16.8834 18.9858C16.9368 18.8863 16.9903 18.7792 17.0361 18.6798C17.418 17.8842 17.502 17.0579 17.2499 16.2011C16.7535 14.5486 15.1651 13.6 13.5689 13.7989C13.1107 13.8525 12.6907 13.9978 12.2936 14.2273C11.5375 14.6557 10.728 14.8317 9.8574 14.7475C9.42973 14.7093 9.02498 14.5945 8.63549 14.4262C8.33002 14.2885 8.03981 14.1202 7.78016 13.9137C7.76488 13.8984 7.74197 13.8907 7.70379 13.8678C7.71142 13.906 7.71906 13.929 7.7267 13.9443C8.07036 14.8164 8.49039 15.6426 8.98679 16.4306C9.52901 17.2798 10.1476 18.0678 10.8502 18.7869C11.5528 19.506 12.3241 20.1486 13.1566 20.7071C13.5384 20.9519 13.8973 21.1738 14.0042 21.2197Z" fill="black"/>
</svg>
