<svg width="28" height="28" fill="none" xmlns="http://www.w3.org/2000/svg">
  <path d="M14 28c7.732 0 14-6.268 14-14S21.732 0 14 0 0 6.268 0 14s6.268 14 14 14z" fill="#fff" fill-opacity=".87"/>
  <path d="m14.021 22.007-.092-.046a16.043 16.043 0 0 1-7.791-11.68 18.336 18.336 0 0 1-.139-2.034c0-.116-.015-.1.092-.154a16.032 16.032 0 0 1 5.962-1.975 17.41 17.41 0 0 1 2.35-.116 16.062 16.062 0 0 1 7.5 2.064c.031.015.053.031.084.046a.076.076 0 0 1 .046.077v.116a15.803 15.803 0 0 1-.282 2.871 15.84 15.84 0 0 1-4.316 8.189 15.898 15.898 0 0 1-3.284 2.563c-.046.026-.085.048-.13.079z" fill="#fff" fill-opacity=".6"/>
  <path d="M6.742 8.632A14.245 14.245 0 0 1 9.826 7.3a14.666 14.666 0 0 1 4.493-.613c.704.011 1.407.08 2.1.207.007.015-.007.024-.024.024-.068.031-.145.053-.215.084a4.045 4.045 0 0 0-2.418 2.985 4.96 4.96 0 0 0-.068.666c0 .338-.047.675-.138 1a3.424 3.424 0 0 1-2.51 2.388 3.413 3.413 0 0 1-3.858-1.884 1.14 1.14 0 0 1-.084-.253 14.38 14.38 0 0 1-.26-1.5 13.871 13.871 0 0 1-.109-1.672.45.45 0 0 0 .007-.1z" fill="#000"/>
  <path d="M18.008 17.803c.015-.145.031-.275.039-.413a4.04 4.04 0 0 0-1.928-3.665c-.053-.039-.116-.068-.169-.106a3.306 3.306 0 0 1-1.554-2.28 3.4 3.4 0 0 1 4.37-3.851c.495.16.978.355 1.446.582.328.154.642.321.958.5l.116.068c0 .031.007.053.007.084 0 .405-.024.818-.053 1.224a14.327 14.327 0 0 1-2.275 6.583c-.268.413-.558.811-.864 1.194a.53.53 0 0 1-.093.08z" fill="#000"/>
  <path d="M14.014 21.228a7.53 7.53 0 0 1-.842-.512 14.557 14.557 0 0 1-4.178-4.278 13.9 13.9 0 0 1-1.262-2.488c-.007-.024-.015-.038-.024-.077l.077.046c.262.207.55.38.857.512a4.073 4.073 0 0 0 3.666-.2 3.63 3.63 0 0 1 1.279-.429 3.4 3.4 0 0 1 3.689 2.4 3.322 3.322 0 0 1-.215 2.48c-.053.106-.1.207-.154.306a.528.528 0 0 1-.123.169 14.711 14.711 0 0 1-2.77 2.071z" fill="#000"/>
</svg>
