<svg width="28" height="28" viewBox="0 0 28 28" fill="none" xmlns="http://www.w3.org/2000/svg">
<circle cx="14" cy="14" r="14" fill="white" fill-opacity="0.87"/>
<path d="M13.0075 6.04239C9.55605 6.51128 6.77819 9.11264 6.14307 12.4719C5.74531 14.5916 6.18156 16.7176 7.39407 18.5354C7.81748 19.1648 8.87602 20.2311 9.48549 20.6357C10.4157 21.2459 11.3652 21.6442 12.4622 21.8818C13.2192 22.0424 14.7846 22.0424 15.5416 21.8818C17.107 21.5478 18.3708 20.8927 19.4871 19.8393C20.6675 18.7152 21.4502 17.3535 21.7966 15.8184C22.3997 13.1592 21.6619 10.4551 19.795 8.47033C18.698 7.31417 17.107 6.4342 15.5288 6.13231C14.868 6.00385 13.6042 5.95889 13.0075 6.04239ZM14.8038 6.67828C16.7092 6.89666 18.5119 7.87298 19.686 9.32461C20.443 10.2688 20.8792 11.1424 21.1679 12.3306C21.3091 12.8959 21.3347 13.1528 21.3411 13.9364C21.3411 15.054 21.2257 15.7413 20.86 16.6662C18.9289 21.6313 12.5456 22.9738 8.80545 19.2034C6.69479 17.0837 6.0725 14.0006 7.19519 11.2194C7.76616 9.78707 8.95942 8.4061 10.281 7.65459C11.7245 6.82601 13.2257 6.50485 14.8038 6.67828Z" fill="black"/>
<path d="M8.82475 12.1122C7.99075 12.4141 7.45827 13.4482 7.65073 14.4117C7.74696 14.8934 7.85603 15.1183 8.15755 15.433C8.5553 15.8633 8.81192 15.9597 9.5112 15.9597C10.0693 15.9597 10.1527 15.9404 10.4607 15.7734C11.0316 15.4523 11.346 14.9448 11.4166 14.2254C11.5064 13.2363 10.9354 12.3114 10.095 12.0737C9.76781 11.9838 9.1391 12.003 8.82475 12.1122ZM10.2297 12.9151C10.6082 13.1913 10.8007 13.8272 10.666 14.386C10.4094 15.4651 8.99155 15.6771 8.50398 14.7072C8.20887 14.1291 8.36284 13.2234 8.81192 12.9087C9.18401 12.6389 9.8448 12.6454 10.2297 12.9151Z" fill="black"/>
<path d="M17.5048 12.1379C16.2987 12.6197 15.9587 14.3989 16.8697 15.478C17.3636 16.0689 18.5312 16.1781 19.0509 15.6771L19.192 15.5422L19.2113 15.722C19.2305 15.8826 19.2498 15.8955 19.5513 15.8955H19.8721L19.8913 14.8806L19.9105 13.8722H19.006H18.1078V14.1933V14.5145H18.6531C19.2433 14.5145 19.2626 14.5273 19.0958 14.8742C18.9803 15.1118 18.5697 15.3495 18.2618 15.3495C17.524 15.3495 17.0814 14.8292 17.0814 13.9878C17.0878 13.0564 17.6844 12.5233 18.4992 12.716C18.8135 12.7931 19.1343 13.0693 19.1343 13.2684C19.1343 13.3326 19.2305 13.3583 19.5192 13.3583H19.8977L19.8079 13.0693C19.609 12.3949 19.115 12.0544 18.3003 12.0287C17.941 12.0159 17.7421 12.0416 17.5048 12.1379Z" fill="black"/>
<path d="M11.9491 14.0006V15.9276H12.2698H12.5906L12.6034 14.6301L12.6227 13.3262L13.0974 14.6301L13.5721 15.934L13.8929 15.9147L14.2137 15.8955L14.682 14.6108L15.1503 13.3262L15.1696 14.6108L15.1888 15.8955L15.5288 15.9147L15.8624 15.934L15.8496 14.0199L15.8304 12.1058H15.3877H14.9386L14.4254 13.5317C14.1431 14.3218 13.8929 14.9448 13.8737 14.9127C13.848 14.887 13.6171 14.2768 13.3604 13.551C13.1038 12.8252 12.86 12.1957 12.828 12.1508C12.7895 12.1058 12.6098 12.0737 12.3596 12.0737H11.9491V14.0006Z" fill="black"/>
</svg>
