<svg width="28" height="28" fill="none" xmlns="http://www.w3.org/2000/svg">
  <path d="M14 28c7.732 0 14-6.268 14-14S21.732 0 14 0 0 6.268 0 14s6.268 14 14 14z" fill="#fff" fill-opacity=".87"/>
  <path d="M10.388 14.225a3.387 3.387 0 1 0-.006 6.774 3.387 3.387 0 0 0 .006-6.774zm0 5.75a2.36 2.36 0 1 1-.004-4.722 2.36 2.36 0 0 1 .004 4.722zM17.618 7a3.387 3.387 0 1 0-.006 6.774A3.387 3.387 0 0 0 17.618 7zm0 5.75a2.361 2.361 0 1 1-.002-4.723 2.361 2.361 0 0 1 .002 4.723zM10.39 7a3.39 3.39 0 1 0 2.424 1.025h.96V7H10.39zm2.36 3.387a2.36 2.36 0 1 1-4.718-.004 2.36 2.36 0 0 1 4.718.004z" fill="#000"/>
</svg>
