<svg width="28" height="28" viewBox="0 0 28 28" fill="none" xmlns="http://www.w3.org/2000/svg">
<circle cx="14" cy="14" r="14" fill="white" fill-opacity="0.87"/>
<path d="M14 6C9.5808 6 6 9.5808 6 14C6 18.4192 9.5808 22 14 22C18.4192 22 22 18.4192 22 14C22 9.5808 18.4192 6 14 6ZM10.3888 11.932C10.3888 10.9432 11.1904 10.1472 12.1856 10.1472H16.2848C16.7536 10.1472 17.204 10.3312 17.5384 10.66L15.4408 11.7152H12.5528C12.2272 11.7152 11.968 11.9504 11.968 12.2336V13.5176L10.3944 14.3376V11.932H10.3888ZM18.0632 14.6032C18.0632 15.592 17.2616 16.388 16.2784 16.388H11.9624V17.9136C11.9624 18.1728 11.7696 18.384 11.54 18.4384L11.0032 18.4504H10.388V15.7976L12.444 14.7248H15.8984C16.224 14.7248 16.4952 14.4896 16.4952 14.2V12.6312L18.0624 11.8416L18.0632 14.6032Z" fill="black"/>
</svg>
