<svg width="28" height="28" fill="none" xmlns="http://www.w3.org/2000/svg">
  <path d="M14 28c7.732 0 14-6.268 14-14S21.732 0 14 0 0 6.268 0 14s6.268 14 14 14z" fill="#fff" fill-opacity=".87"/>
  <path d="M13.2 20.02a.992.992 0 0 0-1.174.767l-.003.015a.984.984 0 0 0 .757 1.17h.028a.973.973 0 0 0 1.174-.713l.003-.012v-.054a1.024 1.024 0 0 0-.785-1.172z" fill="#000"/>
  <path d="M14.107 6C9.637 6.014 6.018 8.755 6 12.14c0 .678.144 1.352.428 1.995.21.438.837.674 1.426.538.568-.165.87-.636.689-1.076a3.167 3.167 0 0 1-.316-1.565c.098-2.446 2.794-4.368 6.022-4.295 3.229.074 5.768 2.116 5.67 4.561-.091 2.29-2.472 4.149-5.49 4.288 0 0-1.139.053-1.705.105a7.602 7.602 0 0 0-.62.093.092.092 0 0 1-.106 0 .046.046 0 0 1 0-.068l.175-.728 1.07-3.641c.127-.455-.255-.902-.855-1-.6-.096-1.191.193-1.32.648 0 0-2.541 8.911-2.541 8.992-.146.433.2.874.772.984a.206.206 0 0 0 .019.003h.059c.57.112 1.154-.148 1.3-.58a.166.166 0 0 0 .008-.023.16.16 0 0 1 0-.04c.031-.105.352-1.29.352-1.29.243-.896 1.195-1.582 2.387-1.72.246-.029 1.277-.081 1.277-.081 4.453-.336 7.703-3.343 7.258-6.715C21.554 8.449 18.19 6.08 14.108 6z" fill="#000"/>
</svg>
