<svg width="28" height="28" viewBox="0 0 28 28" fill="none" xmlns="http://www.w3.org/2000/svg">
<circle cx="14" cy="14" r="14" fill="white" fill-opacity="0.87"/>
<path d="M18.1149 10.8902C17.8225 10.7003 17.4465 10.7003 17.1123 10.8902L14.7728 12.457L13.1854 13.454L10.8877 15.0208C10.5953 15.2107 10.2193 15.2107 9.88512 15.0208L8.08877 13.7863C7.79634 13.5964 7.58747 13.2166 7.58747 12.7893V10.4154C7.58747 10.0356 7.75457 9.65579 8.08877 9.4184L9.88512 8.23145C10.1775 8.04154 10.5535 8.04154 10.8877 8.23145L12.6841 9.46588C12.9765 9.65579 13.1854 10.0356 13.1854 10.4629V12.0297L14.7728 10.9852V9.37092C14.7728 8.9911 14.6057 8.61128 14.2715 8.37389L10.9295 6.14243C10.6371 5.95252 10.2611 5.95252 9.92689 6.14243L6.50131 8.42136C6.1671 8.61128 6 8.9911 6 9.37092V13.8338C6 14.2136 6.1671 14.5935 6.50131 14.8309L9.88512 17.0623C10.1775 17.2522 10.5535 17.2522 10.8877 17.0623L13.1854 15.543L14.7728 14.4985L17.0705 12.9792C17.3629 12.7893 17.7389 12.7893 18.0731 12.9792L19.8695 14.1662C20.1619 14.3561 20.3708 14.7359 20.3708 15.1632V17.5371C20.3708 17.9169 20.2037 18.2967 19.8695 18.5341L18.1149 19.7211C17.8225 19.911 17.4465 19.911 17.1123 19.7211L15.3159 18.5341C15.0235 18.3442 14.8146 17.9644 14.8146 17.5371V16.0178L13.2272 17.0623V18.6291C13.2272 19.0089 13.3943 19.3887 13.7285 19.6261L17.1123 21.8576C17.4047 22.0475 17.7807 22.0475 18.1149 21.8576L21.4987 19.6261C21.7911 19.4362 22 19.0564 22 18.6291V14.1187C22 13.7389 21.8329 13.3591 21.4987 13.1217L18.1149 10.8902Z" fill="black"/>
</svg>
