<svg width="28" height="28" viewBox="0 0 28 28" fill="none" xmlns="http://www.w3.org/2000/svg">
<circle cx="14" cy="14" r="14" fill="white" fill-opacity="0.87"/>
<path d="M15.6989 21.502H11.3004L7.75129 18.6225L6.39856 13.9716L7.74838 9.32062L11.2975 6.44116H15.6989L19.248 9.32062L20.5978 13.9716L19.248 18.6225L19.1986 18.6773L15.6989 21.502ZM11.3993 21.167H15.6L19.0007 18.4003L20.3011 13.9716L19.0007 9.54286L15.6 6.77613H11.3993L8.00147 9.54286L6.70111 13.9716L8.00147 18.4003L11.3993 21.167Z" fill="black"/>
<path d="M21.1012 20.7258L19.0503 18.6773L17.0488 17.8463L13.4997 18.3455L9.90111 17.8463L7.89964 18.6773L7.80073 18.3455L9.84875 17.4598H9.90111L13.4997 18.0138L17.1012 17.4598L17.1506 17.5146L19.251 18.4003L21.299 20.5035L21.1012 20.7258Z" fill="black"/>
<path d="M15.6 21.6663L13.4996 18.4551L11.3004 21.6663L9.70038 17.7368L10 17.5693L11.3993 21.0028L13.4996 17.8463L15.5505 21.0028L16.9498 17.5693L18.8494 13.3629L19.3003 18.5098H19.0007L18.6487 14.5803L17.2494 17.7368L15.6 21.6663Z" fill="black"/>
<path d="M6.59929 13.8041H20.4988V14.1359H6.59929V13.8041Z" fill="black"/>
<path d="M18.8494 14.5802L17.1011 10.7603L15.6 14.358L13.4996 10.2063L11.3498 14.358L9.8487 10.7603L8.10034 14.5802L7.69888 9.4881L8.00143 9.43335L8.30106 13.4175L9.8487 10.0421L11.3498 13.6398L13.4996 9.54286L15.5505 13.6398L17.1011 10.0421L18.6487 13.3628L18.8989 9.43335H19.2014L18.8494 14.5802Z" fill="black"/>
<path d="M16.9498 10.4834L15.5505 6.99519L13.4996 10.2064L11.3992 6.99519L9.99997 10.4834L9.74979 10.3191L11.3003 6.3317L13.4996 9.59763L15.6 6.3317L17.2494 10.3191L16.9498 10.4834ZM19.0007 18.5097L18.6487 14.5803L17.1011 18.0137L15.5505 14.358L13.4996 18.5097L11.3498 14.358L9.8487 18.0137L8.30106 14.5803L8.00143 18.5097H7.69888L8.10034 13.3628L9.8487 17.2375L11.3498 13.6398L13.4996 17.7914L15.6 13.6398L17.1011 17.2922L18.8494 13.3628L19.3003 18.5097H19.0007Z" fill="black"/>
<path d="M17.1011 10.5961L13.4502 10.0421L9.84873 10.5961L7.80073 9.59762L7.89964 9.26587L9.90109 10.2064L13.4502 9.71035L17.1011 10.2064L19.0502 9.26587L19.2015 9.59762L17.1011 10.5961Z" fill="black"/>
<path d="M11.3498 21.998C11.6808 21.998 11.9491 21.7009 11.9491 21.3345C11.9491 20.968 11.6808 20.671 11.3498 20.671C11.0189 20.671 10.7505 20.968 10.7505 21.3345C10.7505 21.7009 11.0189 21.998 11.3498 21.998Z" fill="black"/>
<path d="M15.5506 21.998C15.8816 21.998 16.1499 21.7009 16.1499 21.3345C16.1499 20.968 15.8816 20.671 15.5506 20.671C15.2196 20.671 14.9513 20.968 14.9513 21.3345C14.9513 21.7009 15.2196 21.998 15.5506 21.998Z" fill="black"/>
<path d="M11.3498 7.32701C11.6808 7.32701 11.9491 7.02995 11.9491 6.66351C11.9491 6.29706 11.6808 6 11.3498 6C11.0189 6 10.7505 6.29706 10.7505 6.66351C10.7505 7.02995 11.0189 7.32701 11.3498 7.32701Z" fill="black"/>
<path d="M15.5506 7.32701C15.8816 7.32701 16.1499 7.02995 16.1499 6.66351C16.1499 6.29706 15.8816 6 15.5506 6C15.2196 6 14.9513 6.29706 14.9513 6.66351C14.9513 7.02995 15.2196 7.32701 15.5506 7.32701Z" fill="black"/>
<path d="M19.0502 10.097C19.3811 10.097 19.6494 9.79993 19.6494 9.43349C19.6494 9.06705 19.3811 8.76999 19.0502 8.76999C18.7192 8.76999 18.4509 9.06705 18.4509 9.43349C18.4509 9.79993 18.7192 10.097 19.0502 10.097Z" fill="black"/>
<path d="M7.85013 10.097C8.1811 10.097 8.44941 9.79993 8.44941 9.43349C8.44941 9.06705 8.1811 8.76999 7.85013 8.76999C7.51917 8.76999 7.25086 9.06705 7.25086 9.43349C7.25086 9.79993 7.51917 10.097 7.85013 10.097Z" fill="black"/>
<path d="M7.85013 19.2313C8.1811 19.2313 8.44941 18.9343 8.44941 18.5679C8.44941 18.2015 8.1811 17.9044 7.85013 17.9044C7.51917 17.9044 7.25086 18.2015 7.25086 18.5679C7.25086 18.9343 7.51917 19.2313 7.85013 19.2313Z" fill="black"/>
<path d="M6.59928 14.6352C6.93025 14.6352 7.19856 14.3381 7.19856 13.9717C7.19856 13.6052 6.93025 13.3082 6.59928 13.3082C6.26831 13.3082 6 13.6052 6 13.9717C6 14.3381 6.26831 14.6352 6.59928 14.6352Z" fill="black"/>
<path d="M20.4494 14.6352C20.7804 14.6352 21.0487 14.3381 21.0487 13.9717C21.0487 13.6052 20.7804 13.3082 20.4494 13.3082C20.1185 13.3082 19.8502 13.6052 19.8502 13.9717C19.8502 14.3381 20.1185 14.6352 20.4494 14.6352Z" fill="black"/>
<path d="M18.7506 14.6352C19.0816 14.6352 19.3499 14.3381 19.3499 13.9717C19.3499 13.6052 19.0816 13.3082 18.7506 13.3082C18.4196 13.3082 18.1513 13.6052 18.1513 13.9717C18.1513 14.3381 18.4196 14.6352 18.7506 14.6352Z" fill="black"/>
<path d="M8.19927 14.6352C8.53024 14.6352 8.79854 14.3381 8.79854 13.9717C8.79854 13.6052 8.53024 13.3082 8.19927 13.3082C7.8683 13.3082 7.6 13.6052 7.6 13.9717C7.6 14.3381 7.8683 14.6352 8.19927 14.6352Z" fill="black"/>
<path d="M11.3498 14.6352C11.6808 14.6352 11.9491 14.3381 11.9491 13.9717C11.9491 13.6052 11.6808 13.3082 11.3498 13.3082C11.0189 13.3082 10.7505 13.6052 10.7505 13.9717C10.7505 14.3381 11.0189 14.6352 11.3498 14.6352Z" fill="black"/>
<path d="M15.5506 14.6352C15.8816 14.6352 16.1499 14.3381 16.1499 13.9717C16.1499 13.6052 15.8816 13.3082 15.5506 13.3082C15.2196 13.3082 14.9513 13.6052 14.9513 13.9717C14.9513 14.3381 15.2196 14.6352 15.5506 14.6352Z" fill="black"/>
<path d="M14.0913 9.98172C14.1443 9.62002 13.9225 9.27921 13.5958 9.2205C13.2691 9.1618 12.9613 9.40742 12.9082 9.76912C12.8552 10.1308 13.0771 10.4716 13.4038 10.5303C13.7304 10.589 14.0383 10.3434 14.0913 9.98172Z" fill="black"/>
<path d="M9.8487 11.0922C10.1797 11.0922 10.448 10.7951 10.448 10.4287C10.448 10.0623 10.1797 9.7652 9.8487 9.7652C9.51773 9.7652 9.24943 10.0623 9.24943 10.4287C9.24943 10.7951 9.51773 11.0922 9.8487 11.0922Z" fill="black"/>
<path d="M17.1011 11.0922C17.432 11.0922 17.7003 10.7951 17.7003 10.4287C17.7003 10.0623 17.432 9.7652 17.1011 9.7652C16.7701 9.7652 16.5018 10.0623 16.5018 10.4287C16.5018 10.7951 16.7701 11.0922 17.1011 11.0922Z" fill="black"/>
<path d="M13.4996 18.8416C13.8306 18.8416 14.0989 18.5446 14.0989 18.1781C14.0989 17.8117 13.8306 17.5146 13.4996 17.5146C13.1687 17.5146 12.9004 17.8117 12.9004 18.1781C12.9004 18.5446 13.1687 18.8416 13.4996 18.8416Z" fill="black"/>
<path d="M9.8487 18.2876C10.1797 18.2876 10.448 17.9906 10.448 17.6241C10.448 17.2577 10.1797 16.9606 9.8487 16.9606C9.51773 16.9606 9.24943 17.2577 9.24943 17.6241C9.24943 17.9906 9.51773 18.2876 9.8487 18.2876Z" fill="black"/>
<path d="M17.1011 18.2876C17.432 18.2876 17.7003 17.9906 17.7003 17.6241C17.7003 17.2577 17.432 16.9606 17.1011 16.9606C16.7701 16.9606 16.5018 17.2577 16.5018 17.6241C16.5018 17.9906 16.7701 18.2876 17.1011 18.2876Z" fill="black"/>
<path d="M21.2 21.502C21.6418 21.502 22 21.1055 22 20.6163C22 20.1271 21.6418 19.7306 21.2 19.7306C20.7582 19.7306 20.4 20.1271 20.4 20.6163C20.4 21.1055 20.7582 21.502 21.2 21.502Z" fill="black"/>
</svg>
