<svg width="28" height="28" viewBox="0 0 28 28" fill="none" xmlns="http://www.w3.org/2000/svg">
<circle cx="14" cy="14" r="14" fill="white" fill-opacity="0.87"/>
<path d="M9.99789 12.0009V15.9991L6 14.0037V9.99817L9.99789 12.0009Z" fill="black"/>
<path d="M6 18.0018L9.99789 15.9991V20.0046L6 22V18.0018Z" fill="black"/>
<path d="M13.9958 9.99817V6L22 9.99817L18.0021 12.0009L13.9958 9.99817Z" fill="black"/>
<path d="M13.9958 18.0018L18.0021 15.9991L22 18.0018L18.0021 20.0046L13.9958 22V18.0018Z" fill="black"/>
<path d="M22 9.99817V14.0037V18.0018L18.0021 15.9991V12.0009L22 9.99817Z" fill="black"/>
<path d="M9.99789 15.9991L13.9958 18.0018V22L9.99789 20.0046V15.9991Z" fill="black"/>
<path d="M9.99789 12.0009L6.00001 9.99817L9.99789 8.00275L13.9958 6V9.99817L9.99789 12.0009Z" fill="black"/>
</svg>
