<svg width="28" height="28" viewBox="0 0 28 28" fill="none" xmlns="http://www.w3.org/2000/svg">
<circle cx="14" cy="14" r="14" fill="white" fill-opacity="0.87"/>
<path d="M13.3351 18.9823L9 22L11.7521 9.72139L13.3351 18.9823ZM13.4228 18.954L16.0628 18.987L11.8544 9.76862L13.4228 18.954ZM16.3113 18.7509L18.3327 11.4876L17.5679 10.5809L16.3113 18.7509ZM15.3371 7.36484L12.0102 9.53721L16.8714 8.01183L15.3371 7.36484ZM14.9182 7.36484L12.8529 7.43095L12.5509 8.26684L14.9182 7.36484Z" fill="black"/>
<path d="M17.4218 10.3022L12.0979 9.59386L16.8958 8.12988L17.4218 10.3022ZM16.1603 7.57262L16.4525 6.80284L14.9182 6.15585L16.1603 7.57262ZM16.6035 6.72728L16.9493 7.93625L18.9951 7.41205L16.6035 6.72728Z" fill="black"/>
<path d="M16.1797 18.9398L11.9128 9.68359L17.4754 10.4392L16.1797 18.9398ZM15.1763 7.36482L12.546 8.36127L11.9128 9.49469L15.1763 7.36482ZM13.5446 6.60921L12.887 7.31287L15.0692 7.26092L13.5446 6.60921ZM14.6941 6.06139L13.6517 6.52893L16.0287 7.54427L14.6941 6.06139ZM15.8826 6H14.7623L16.4963 6.65171L15.8826 6ZM16.5304 6.86423L16.2625 7.63872L16.7983 7.88902L16.5304 6.86423Z" fill="black"/>
</svg>
