<?xml version="1.0" standalone="no"?>
<!DOCTYPE svg PUBLIC "-//W3C//DTD SVG 20010904//EN"
 "http://www.w3.org/TR/2001/REC-SVG-20010904/DTD/svg10.dtd">
<svg version="1.0" xmlns="http://www.w3.org/2000/svg"
 width="92.000000pt" height="62.000000pt" viewBox="0 0 92.000000 62.000000"
 preserveAspectRatio="xMidYMid meet">

<g transform="translate(0.000000,62.000000) scale(0.100000,-0.100000)"
fill="#000000" stroke="none">
<path d="M335 584 c-60 -28 -139 -32 -166 -8 -17 15 -18 14 -25 -9 -3 -15 -21
-35 -40 -46 -19 -11 -34 -25 -34 -31 0 -5 -16 -16 -35 -24 -40 -17 -42 -25
-16 -57 14 -17 37 -27 83 -36 60 -11 145 -36 178 -52 25 -12 59 -92 71 -168
11 -67 10 -73 -10 -99 -11 -14 -21 -31 -21 -35 0 -5 36 -9 79 -9 l79 0 7 43
c4 23 19 72 32 109 l25 66 34 -20 c19 -11 34 -28 34 -37 0 -9 11 -33 25 -51
14 -19 21 -36 15 -38 -6 -2 -15 -12 -20 -23 -10 -18 -6 -19 65 -19 66 0 75 2
75 18 0 35 10 34 68 -4 2 -1 -2 -12 -8 -24 -11 -20 -10 -21 31 -18 40 3 44 5
51 38 5 25 1 50 -13 89 -19 51 -19 58 -4 129 20 101 19 138 -9 197 -51 110
-97 130 -270 121 -99 -5 -125 -3 -140 9 -28 21 -83 17 -141 -11z m-215 -105
c0 -5 -7 -9 -15 -9 -15 0 -20 12 -9 23 8 8 24 -1 24 -14z"/>
</g>
</svg>
