<svg width="28" height="28" viewBox="0 0 28 28" fill="none" xmlns="http://www.w3.org/2000/svg">
<circle cx="14" cy="14" r="14" fill="white" fill-opacity="0.87"/>
<path fill-rule="evenodd" clip-rule="evenodd" d="M14.0001 22C18.4065 22 22.0001 18.4064 22.0001 14C22.0001 9.5944 18.4065 6 14.0001 6C9.59443 6 6 9.5944 6 14C5.9992 18.4064 9.59363 22 14.0001 22Z" fill="black"/>
<path fill-rule="evenodd" clip-rule="evenodd" d="M11.948 9.85361H13.1C13.144 9.85361 13.1792 9.88961 13.1792 9.93361V11.6168C13.1792 11.6616 13.2152 11.6968 13.2592 11.6968H14.7384C14.7824 11.6968 14.8184 11.6616 14.8184 11.6168V9.93361C14.8184 9.88961 14.8536 9.85361 14.8984 9.85361H16.0496C16.0936 9.85361 16.1296 9.88961 16.1296 9.93361V11.6168C16.1296 11.6616 16.1648 11.6968 16.2096 11.6968H17.6176C17.6624 11.6968 17.6976 11.7328 17.6976 11.7768V12.9256C17.6976 12.9704 17.6624 13.0056 17.6176 13.0056H16.2096C16.1648 13.0056 16.1296 13.0416 16.1296 13.0856V14.8736C16.1296 14.9176 16.1648 14.9536 16.2096 14.9536H17.6176C17.6624 14.9536 17.6976 14.9888 17.6976 15.0336V16.1824C17.6976 16.2264 17.6624 16.2624 17.6176 16.2624H16.2096C16.1648 16.2624 16.1296 16.2984 16.1296 16.3424V18.0255C16.1296 18.0695 16.0936 18.1055 16.0496 18.1055H14.8984C14.8536 18.1055 14.8184 18.0695 14.8184 18.0255V16.3424C14.8184 16.2976 14.7824 16.2624 14.7384 16.2624H13.26C13.216 16.2624 13.18 16.2984 13.18 16.3424V18.0255C13.18 18.0695 13.1448 18.1055 13.1008 18.1055H11.9488C11.9048 18.1055 11.8688 18.0695 11.8688 18.0255V16.3424C11.8688 16.2976 11.8336 16.2624 11.7888 16.2624H10.3808C10.336 16.2624 10.3008 16.2264 10.3008 16.1824V15.0336C10.3008 14.9888 10.336 14.9536 10.3808 14.9536H11.7888C11.8336 14.9536 11.8688 14.9176 11.8688 14.8736V13.0856C11.8688 13.0416 11.8336 13.0056 11.7888 13.0056H10.3808C10.336 13.0056 10.3008 12.9704 10.3008 12.9256V11.7768C10.3008 11.7328 10.336 11.6968 10.3808 11.6968H11.7888C11.8336 11.6968 11.8688 11.6616 11.8688 11.6168V9.93361C11.8672 9.88961 11.904 9.85361 11.948 9.85361ZM14.8192 14.8744V13.0856C14.8192 13.0416 14.7832 13.0056 14.7392 13.0056H13.26C13.216 13.0056 13.18 13.0416 13.18 13.0856V14.8736C13.18 14.9176 13.216 14.9536 13.26 14.9536H14.7392C14.7832 14.9544 14.8192 14.9176 14.8192 14.8744Z" fill="white"/>
</svg>
