<svg xmlns="http://www.w3.org/2000/svg" fill="none" viewBox="0 0 13 18" height="18" width="13">
  <path fill="white" d="M12.5125 3.10869C12.7817 3.10869 13 2.89881 13 2.63994V1.07744C13 0.818571 12.7817 0.608688 12.5125 0.608688H0.4875C0.218278 0.608688 0 0.818571 0 1.07744V2.82541C0 3.08427 0.218278 3.29416 0.4875 3.29416H3.952C5.06139 3.29416 5.9126 3.68314 6.42891 4.35869H0.4875C0.218278 4.35869 0 4.56857 0 4.82744V6.38994C0 6.64881 0.218278 6.85869 0.4875 6.85869H6.937C6.68444 8.2683 5.59796 9.149 3.9 9.149H0.4875C0.218278 9.149 0 9.35888 0 9.61775V11.6885C0 11.8194 0.056875 11.9442 0.156853 12.033L6.86209 17.9844C6.95214 18.0643 7.07019 18.1087 7.19274 18.1087H10.5468C10.9906 18.1087 11.2036 17.5849 10.8775 17.2955L4.74788 11.855C7.85566 11.7636 10.0756 9.76927 10.3671 6.85869H12.5125C12.7817 6.85869 13 6.64881 13 6.38994V4.82744C13 4.56857 12.7817 4.35869 12.5125 4.35869H10.1282C9.9866 3.90787 9.79184 3.4897 9.54923 3.10869H12.5125Z"></path>
</svg>
