<svg width="28" height="28" viewBox="0 0 28 28" fill="none" xmlns="http://www.w3.org/2000/svg">
<circle cx="14" cy="14" r="14" fill="white" fill-opacity="0.87"/>
<path d="M16.401 13.9991V16.3989H13.9992C13.5245 16.3989 13.0606 16.2582 12.6659 15.9945C12.2713 15.7308 11.9637 15.356 11.782 14.9175C11.6004 14.479 11.5529 13.9965 11.6455 13.531C11.7381 13.0655 11.9666 12.6379 12.3022 12.3023C12.6379 11.9666 13.0655 11.7381 13.531 11.6455C13.9965 11.5529 14.479 11.6004 14.9175 11.782C15.3561 11.9637 15.7309 12.2713 15.9946 12.6659C16.2583 13.0605 16.399 13.5245 16.399 13.9991H16.401ZM14.0309 9.99954C13.5056 9.98394 12.9824 10.0719 12.4912 10.2585C12 10.4451 11.5503 10.7266 11.1678 11.087C10.7854 11.4474 10.4777 11.8795 10.2623 12.3588C10.0469 12.8381 9.92795 13.3551 9.91235 13.8803C9.89675 14.4056 9.98476 14.9287 10.1713 15.42C10.3579 15.9112 10.6395 16.3609 10.9998 16.7433C11.3602 17.1257 11.7924 17.4334 12.2717 17.6488C12.751 17.8642 13.268 17.9831 13.7933 17.9987H17.9989V14.0467C17.9989 11.8409 16.2366 10.0154 14.0309 9.99954Z" fill="black"/>
<path d="M19.6562 8.34309C18.3525 7.0394 16.6386 6.22603 14.8042 6.04058C12.9699 5.85513 11.1278 6.30899 9.58961 7.32537C9.67962 7.42489 9.75678 7.53531 9.81929 7.65405C11.2811 6.69458 13.0286 6.26766 14.7682 6.44507C16.5077 6.62248 18.1331 7.3934 19.3711 8.62821C22.3332 11.5863 22.3332 16.4057 19.3711 19.3677C16.4089 22.3298 11.5895 22.3298 8.6273 19.3677C7.39308 18.1293 6.62288 16.5037 6.44618 14.7642C6.26949 13.0248 6.69709 11.2775 7.65708 9.81621C7.53825 9.75384 7.42781 9.67667 7.32839 9.58653C4.89095 13.2693 5.90275 18.234 9.58565 20.6714C13.2685 23.1088 18.2333 22.097 20.6708 18.4142C21.6888 16.8759 22.1439 15.0331 21.959 13.1978C21.7741 11.3624 20.9606 9.64739 19.6562 8.34309Z" fill="black"/>
<path d="M7.83924 7.83621C7.95085 7.72408 8.0932 7.64756 8.24829 7.61633C8.40338 7.5851 8.56425 7.60055 8.71056 7.66074C8.85687 7.72094 8.98205 7.82316 9.07026 7.95448C9.15847 8.08581 9.20576 8.24035 9.20615 8.39855C9.20654 8.55675 9.16001 8.71151 9.07244 8.84327C8.98487 8.97503 8.8602 9.07786 8.71418 9.13877C8.56817 9.19968 8.40738 9.21592 8.25213 9.18545C8.09689 9.15498 7.95417 9.07916 7.84201 8.96758L7.83924 8.96481C7.69003 8.8149 7.60627 8.61201 7.60627 8.40051C7.60627 8.18901 7.69003 7.98611 7.83924 7.83621Z" fill="black"/>
</svg>
