<svg width="28" height="28" fill="none" xmlns="http://www.w3.org/2000/svg">
  <path d="M14 28c7.732 0 14-6.268 14-14S21.732 0 14 0 0 6.268 0 14s6.268 14 14 14z" fill="#fff" fill-opacity=".87"/>
  <g clip-path="url(#a)" fill="#000">
    <path d="M8.599 18.212a.474.474 0 0 1 .37-.195h12.77c.233 0 .35.359.184.57l-2.522 3.218a.474.474 0 0 1-.37.195H6.26c-.233 0-.35-.36-.185-.57L8.6 18.212zM8.599 6.195A.486.486 0 0 1 8.969 6h12.77c.233 0 .35.36.184.57l-2.522 3.218a.474.474 0 0 1-.37.195H6.26c-.233 0-.35-.359-.185-.57L8.6 6.196zM19.401 12.165a.474.474 0 0 0-.37-.195H6.26c-.233 0-.35.36-.185.57L8.6 15.758c.096.123.23.195.37.195h12.77c.233 0 .35-.36.184-.57l-2.522-3.218z"/>
  </g>
  <defs>
    <clipPath id="a">
      <path fill="#fff" transform="translate(6 6)" d="M0 0h16v16H0z"/>
    </clipPath>
  </defs>
</svg>
