<svg xmlns="http://www.w3.org/2000/svg" width="81.379" height="118" viewBox="0 0 81.379 118">
  <g id="Solid" transform="translate(-96 -24)">
    <path id="Path_4757" data-name="Path 4757" d="M173.2,352c-.827,2.522-3.807,4.762-8.319,6.166-11.458,3.565-18.546,8.652-19.919,14.179h56.476c-1.373-5.527-8.461-10.613-19.919-14.179C177.008,356.762,174.028,354.522,173.2,352Z" transform="translate(-36.511 -244.586)" fill="rgba(255,255,255,0.87)"/>
    <path id="Path_4758" data-name="Path 4758" d="M160.1,128a45.523,45.523,0,0,0,16.07,16.924,18.444,18.444,0,0,1,8.318,12.667,18.444,18.444,0,0,1,8.318-12.667A45.523,45.523,0,0,0,208.877,128Z" transform="translate(-47.799 -77.552)" fill="rgba(255,255,255,0.87)"/>
    <path id="Path_4759" data-name="Path 4759" d="M149.392,74.228c14.561-9.31,23.918-23.79,23.918-40.056h0a4.069,4.069,0,0,0,4.069-4.069V24H96v5.849a4.319,4.319,0,0,0,4.069,4.31v.013c0,16.265,9.357,30.746,23.918,40.056a10.417,10.417,0,0,1,0,17.544c-14.561,9.31-23.918,23.79-23.918,40.056v.013A4.319,4.319,0,0,0,96,136.151V142h81.379v-6.1a4.069,4.069,0,0,0-4.069-4.069h0c0-16.265-9.357-30.746-23.918-40.056A10.417,10.417,0,0,1,149.392,74.228ZM140.525,83A14.414,14.414,0,0,0,147.2,95.2c14.007,8.956,22.041,22.306,22.041,36.628h-65.1c0-14.321,8.034-27.672,22.041-36.628a14.486,14.486,0,0,0,0-24.4c-14.007-8.956-22.041-22.306-22.041-36.628h65.1c0,14.321-8.034,27.672-22.041,36.628A14.414,14.414,0,0,0,140.525,83Z" fill="rgba(255,255,255,0.87)"/>
    <path id="Path_4760" data-name="Path 4760" d="M250.407,270.346a1.907,1.907,0,0,0,1.907-1.907v-2.031a1.907,1.907,0,0,0-3.815,0v2.031A1.907,1.907,0,0,0,250.407,270.346Z" transform="translate(-113.718 -179.338)" fill="rgba(255,255,255,0.87)"/>
    <path id="Path_4761" data-name="Path 4761" d="M248.5,308.439a1.907,1.907,0,1,0,3.815,0v-2.031a1.907,1.907,0,0,0-3.815,0Z" transform="translate(-113.718 -209.166)" fill="rgba(255,255,255,0.87)"/>
  </g>
</svg>
