<svg width="28" height="28" viewBox="0 0 28 28" fill="none" xmlns="http://www.w3.org/2000/svg">
<circle cx="14" cy="14" r="14" fill="white" fill-opacity="0.87"/>
<path d="M14 22C18.4183 22 22 18.4183 22 14C22 9.58172 18.4183 6 14 6C9.58172 6 6 9.58172 6 14C6 18.4183 9.58172 22 14 22Z" fill="black"/>
<path d="M17.2641 18.2153L15.5419 15.5119H18.015V14.4906H9.90488V15.5119H12.378L10.6558 18.2153H11.9374L13.9599 15.0413L15.9825 18.2153H17.2641ZM18.015 13.4994V12.4781H15.592L17.2941 9.80475H16.0025L13.9599 13.0288L11.9174 9.80475H10.6258L12.3279 12.4781H9.90488V13.5094L18.015 13.4994Z" fill="white"/>
</svg>
