<svg width="28" height="28" viewBox="0 0 28 28" fill="none" xmlns="http://www.w3.org/2000/svg">
<path d="M14 28C21.732 28 28 21.732 28 14C28 6.26801 21.732 0 14 0C6.26801 0 0 6.26801 0 14C0 21.732 6.26801 28 14 28Z" fill="white" fill-opacity="0.87"/>
<path d="M19.7417 8.09363L17.8152 9.25363L8.5121 14.8536C8.48064 14.5701 8.46481 14.2844 8.46471 13.9984C8.46599 12.8574 8.71948 11.7365 9.20008 10.7469C9.68069 9.75724 10.3717 8.93315 11.2047 8.35624C12.0378 7.77934 12.9839 7.46963 13.9493 7.45781C14.9148 7.44599 15.8661 7.73245 16.7091 8.28883L17.8118 7.62483L17.9763 7.52563C16.9661 6.65914 15.7729 6.1396 14.5285 6.02442C13.2841 5.90925 12.037 6.20293 10.925 6.873C9.81305 7.54308 8.87947 8.56345 8.2275 9.82135C7.57552 11.0793 7.23054 12.5257 7.23067 14.0008C7.23067 14.2046 7.23721 14.4075 7.2503 14.6096C7.26863 14.8959 7.21491 15.1821 7.0959 15.4324C6.97689 15.6826 6.79792 15.8857 6.58149 16.016L6 16.3664V18.0008L7.71196 16.9696L8.26637 16.6352L8.81266 16.3064L18.6201 10.4008L19.7221 9.73763L22 8.36563V6.73203L19.7417 8.09363Z" fill="black"/>
<path d="M22 10.001L9.36977 17.601L8.26773 18.2658L6 19.6314V21.2642L8.25216 19.9082L10.1787 18.7482L19.4913 13.1402C19.5228 13.4256 19.5386 13.7131 19.5387 14.001C19.5381 15.1433 19.2847 16.2657 18.8036 17.2565C18.3225 18.2474 17.6305 19.0723 16.7963 19.6494C15.9621 20.2264 15.0146 20.5356 14.048 20.5462C13.0814 20.5568 12.1293 20.2685 11.2862 19.7098L11.2185 19.7522L10.023 20.4722C11.0329 21.3387 12.2259 21.8584 13.4701 21.9738C14.7143 22.0893 15.9613 21.796 17.0733 21.1264C18.1853 20.4568 19.119 19.4369 19.7713 18.1794C20.4235 16.922 20.7689 15.4759 20.7693 14.001C20.7693 13.7954 20.7626 13.5898 20.7497 13.3866C20.7314 13.1004 20.7851 12.8143 20.9039 12.5641C21.0228 12.3138 21.2016 12.1107 21.4178 11.9802L22 11.6298V10.001Z" fill="black"/>
</svg>
