<svg width="28" height="28" viewBox="0 0 28 28" fill="none" xmlns="http://www.w3.org/2000/svg">
<circle cx="14" cy="14" r="14" fill="white" fill-opacity="0.87"/>
<path d="M9.30144 6.91925L21.7306 16.1545L18.6567 21.0994L6.22757 11.7914L9.30144 6.91925Z" fill="black"/>
<path d="M21.7306 16.1545C20.6614 17.827 17.053 17.1726 13.645 14.5547C10.1701 12.0095 8.29909 8.59176 9.30145 6.91923C10.3706 5.2467 13.9791 5.90117 17.3871 8.51904C20.8619 10.9915 22.7329 14.482 21.7306 16.1545Z" fill="black"/>
<path d="M18.6567 21.0267C17.5875 22.6992 13.9791 22.0447 10.5711 19.4269C7.1631 16.809 5.22522 13.4639 6.2944 11.7187C7.36357 10.0461 10.972 10.7006 14.38 13.3185C17.788 15.9364 19.6591 19.3541 18.6567 21.0267Z" fill="black"/>
<path d="M21.7306 16.1545L18.6567 21.0994C17.5876 22.7719 13.9791 22.0447 10.5711 19.4996C9.90286 18.9905 9.30145 18.4815 8.70004 17.8998C9.16781 17.827 9.76922 17.5362 10.3706 16.809C11.4398 15.5728 11.9744 15.2819 12.4422 15.3546C12.9099 15.3546 13.4445 15.8636 14.3132 17.0998C15.1819 18.3361 16.3847 18.6997 17.1198 18.0452C17.1866 17.9725 17.2534 17.9725 17.3203 17.8998C17.9217 17.3907 18.1221 17.1726 19.2581 14.8456C19.5254 14.2638 20.461 13.3185 21.7306 13.7548C22.0647 14.7001 22.0647 15.5 21.7306 16.1545Z" fill="black"/>
<path fill-rule="evenodd" clip-rule="evenodd" d="M21.2628 15.8636C20.3273 17.318 17.053 16.5908 13.9123 14.1911C10.7047 11.7914 8.8337 8.73719 9.76922 7.28282C10.7047 5.82844 13.9791 6.55563 17.1198 8.95535C20.2605 11.3551 22.1315 14.4093 21.2628 15.8636ZM18.3226 13.6821C17.8549 14.4093 16.2511 14.0457 14.6473 12.8822C13.1104 11.7187 12.1749 10.1916 12.6426 9.46438C13.1104 8.73719 14.7142 9.10079 16.3179 10.2643C17.8549 11.4278 18.7904 12.9549 18.3226 13.6821Z" fill="white"/>
<path d="M9.03415 8.59176C9.03415 8.51904 8.96733 8.44632 8.90051 8.51904C8.83368 8.59176 8.76686 8.59176 8.76686 8.66448C8.83368 8.88264 8.90051 9.02807 8.90051 9.17351C8.90051 9.24623 8.96733 9.31895 9.03415 9.24623C9.10098 9.24623 9.1678 9.17351 9.10098 9.10079C9.10098 8.95536 9.10098 8.80992 9.03415 8.59176Z" fill="white"/>
<path d="M9.36827 9.75528C9.36827 9.68256 9.30145 9.60984 9.23462 9.68256C9.1678 9.75528 9.1678 9.75528 9.1678 9.82799C9.90286 11.646 11.4398 13.6094 13.4445 15.0637C13.5113 15.1365 13.5781 15.0637 13.645 15.0637C13.7118 14.991 13.645 14.9183 13.645 14.8456C11.5734 13.3912 10.1033 11.5005 9.36827 9.75528Z" fill="white"/>
<path d="M17.4539 16.8817C17.3871 16.8817 17.3203 16.8817 17.3203 16.9544C17.3203 17.0272 17.3203 17.0999 17.3871 17.0999C17.5875 17.1726 17.8548 17.2453 18.0553 17.318C18.1221 17.318 18.189 17.318 18.189 17.2453C18.189 17.1726 18.189 17.0999 18.1221 17.0999C17.9217 17.0272 17.6544 16.9544 17.4539 16.8817Z" fill="white"/>
<path d="M18.6567 17.1726C18.5899 17.1726 18.5231 17.2453 18.5231 17.318C18.5231 17.3907 18.5899 17.4635 18.6567 17.4635C19.1913 17.5362 19.7927 17.6089 20.2605 17.5362C20.3273 17.5362 20.3941 17.4635 20.3941 17.3907C20.3941 17.318 20.3273 17.2453 20.2605 17.2453C19.7259 17.318 19.1913 17.2453 18.6567 17.1726Z" fill="white"/>
</svg>
