<svg width="28" height="28" viewBox="0 0 28 28" fill="none" xmlns="http://www.w3.org/2000/svg">
<circle cx="14" cy="14" r="14" fill="white" fill-opacity="0.87"/>
<path d="M13.9991 21.9983C18.4169 21.9983 21.9983 18.4169 21.9983 13.9991C21.9983 9.58133 18.4169 6 13.9991 6C9.58133 6 6 9.58133 6 13.9991C6 18.4169 9.58133 21.9983 13.9991 21.9983Z" fill="black"/>
<path d="M11.3644 12.0104C11.3004 11.931 11.2034 11.8869 11.0998 11.8869H8.96331C8.94567 11.8869 8.93024 11.8803 8.91701 11.8693C8.90598 11.8583 8.89937 11.845 8.89937 11.8296V10.3898C8.89937 10.3744 8.90598 10.3612 8.91701 10.3502C8.93024 10.3369 8.94567 10.3303 8.96331 10.3325H11.2211C11.7899 10.3325 12.2816 10.5662 12.6961 11.0315L13.2451 11.7017L12.1757 13.0048L11.3644 12.0104ZM15.311 11.0248C15.7233 10.564 16.2172 10.3325 16.7927 10.3325H19.0438C19.0592 10.3303 19.0747 10.3369 19.0857 10.3457C19.0967 10.3568 19.1011 10.3722 19.0989 10.3898V11.8296C19.0989 11.845 19.0945 11.8583 19.0857 11.8693C19.0747 11.8825 19.0592 11.8891 19.0438 11.8869H16.9073C16.8059 11.8847 16.7089 11.931 16.6427 12.0104L15.0685 13.9264L16.6494 15.8556C16.7133 15.9284 16.8081 15.9725 16.9051 15.9703H19.0416C19.057 15.9681 19.0747 15.9769 19.0835 15.9879C19.0923 16.0011 19.0989 16.0188 19.0967 16.0342V17.474C19.0967 17.4894 19.0923 17.5026 19.0835 17.5137C19.0725 17.5269 19.057 17.5335 19.0416 17.5313H16.7927C16.2172 17.5313 15.7277 17.2976 15.3176 16.8324L14.008 15.2339L12.6983 16.8324C12.286 17.2976 11.7921 17.5313 11.2166 17.5313H8.96331C8.94787 17.5335 8.93024 17.5247 8.92142 17.5137C8.91039 17.5004 8.90598 17.4828 8.90819 17.4674V16.0276C8.90819 16.0122 8.9126 15.9989 8.92142 15.9879C8.93244 15.9747 8.94787 15.9681 8.96331 15.9703H11.0998C11.2012 15.9703 11.2982 15.924 11.3644 15.8468L12.91 13.9595L15.311 11.0248Z" fill="white"/>
</svg>
