<svg width="28" height="28" fill="none" xmlns="http://www.w3.org/2000/svg">
  <path d="M14 28c7.732 0 14-6.268 14-14S21.732 0 14 0 0 6.268 0 14s6.268 14 14 14z" fill="#fff" fill-opacity=".87"/>
  <path d="M11.319 6.465c1.61-.6 3.422-.601 5.062-.108 2.135.66 3.938 2.264 4.88 4.278.26.573.508 1.172.533 1.81-1.2-.693-2.516-1.142-3.834-1.552-2.11-.757-4.318-1.282-6.314-2.323-.465-.276-1.057-.56-1.184-1.136-.05-.498.479-.776.857-.97zM6.459 11.311c.466-1.26 1.23-2.429 2.268-3.295.264 2.162 1.188 4.25 2.714 5.822 1.83 1.894 4.437 3.056 7.09 3.012 1.052.033 2.082-.21 3.11-.405-1.011 3.636-5.014 6.05-8.722 5.469-2.238-.285-4.305-1.605-5.552-3.468-1.406-2.059-1.76-4.793-.908-7.135z" fill="#000"/>
  <path d="M17.96 10.893c1.318.41 2.634.859 3.834 1.551l.081.043c.111.834.193 1.684.044 2.519-.603-.255-1.093-.702-1.604-1.098-.985-.816-1.99-1.75-2.356-3.015z" fill="#454444"/>
</svg>
