<svg width="28" height="28" fill="none" xmlns="http://www.w3.org/2000/svg">
  <path d="M14 28c7.732 0 14-6.268 14-14S21.732 0 14 0 0 6.268 0 14s6.268 14 14 14z" fill="#fff" fill-opacity=".87"/>
  <path d="M18.039 7h-8.02a1.116 1.116 0 0 0 0 2.226h2.979v10.661a1.035 1.035 0 1 0 2.062 0V9.226h2.978a1.116 1.116 0 0 0 0-2.226z" fill="#000"/>
  <path d="M14 15.264c-1.37.02-2.738-.143-4.065-.487C8.651 14.407 8 13.89 8 13.241c0-.7.782-1.257 2.26-1.623a.414.414 0 0 1 .2.8c-1.355.336-1.632.731-1.632.818 0 .116.327.449 1.337.74 2.521.607 5.15.607 7.672 0 1.01-.291 1.337-.624 1.337-.74 0-.084-.265-.467-1.559-.8a.414.414 0 0 1 .205-.8c1.426.366 2.18.921 2.18 1.6 0 .649-.651 1.166-1.935 1.536-1.327.345-2.694.51-4.065.492z" fill="#000"/>
</svg>
