<svg width="28" height="28" viewBox="0 0 28 28" fill="none" xmlns="http://www.w3.org/2000/svg">
<circle cx="14" cy="14" r="14" fill="white" fill-opacity="0.87"/>
<path d="M15.7513 21.9999C14.5853 21.9999 13.7342 21.7249 13.1981 21.1749C12.7015 20.7093 12.4133 20.0701 12.3965 19.3971C12.3905 19.1926 12.4389 18.9902 12.5369 18.8095C12.6284 18.6535 12.7605 18.524 12.9198 18.4343C13.105 18.3439 13.3091 18.2968 13.516 18.2968C13.7229 18.2968 13.927 18.3439 14.1121 18.4343C14.2712 18.5236 14.4027 18.6533 14.4929 18.8095C14.5938 18.9893 14.644 19.1921 14.6384 19.3971C14.6488 19.642 14.577 19.8834 14.4341 20.0846C14.315 20.2488 14.1447 20.3708 13.9489 20.4323C14.1404 20.6711 14.4115 20.8366 14.7148 20.8999C15.0541 20.9964 15.4056 21.046 15.759 21.0473C16.2268 21.0513 16.685 20.9172 17.0739 20.6623C17.4772 20.3833 17.778 19.9844 17.9317 19.5249C18.1265 18.9779 18.2215 18.4016 18.2125 17.8224C18.2282 17.2186 18.1242 16.6175 17.9061 16.0524C17.7421 15.6005 17.4308 15.2139 17.0202 14.9524C16.6386 14.7159 16.1955 14.5918 15.7439 14.5949C15.3503 14.6276 14.9709 14.7537 14.6384 14.9624L13.8186 15.3649V14.9624L17.5027 10.123H12.3965V15.1449C12.3821 15.5073 12.48 15.8655 12.6774 16.1724C12.7728 16.3062 12.902 16.4135 13.0523 16.484C13.2026 16.5545 13.3689 16.5858 13.5352 16.5749C13.8424 16.5688 14.1395 16.4663 14.3827 16.2824C14.6585 16.0846 14.8984 15.8429 15.0925 15.5674C15.11 15.5191 15.1423 15.4772 15.1849 15.4475C15.2191 15.4185 15.2627 15.4025 15.308 15.4025C15.3967 15.4104 15.4806 15.4453 15.548 15.5024C15.6333 15.5958 15.6798 15.7171 15.6781 15.8424C15.6683 15.9266 15.6529 16.0101 15.6322 16.0924C15.4508 16.5223 15.1467 16.8919 14.7564 17.157C14.3939 17.3972 13.9657 17.5246 13.528 17.5224C12.4225 17.5224 11.6566 17.3091 11.2303 16.8824C11.0113 16.6466 10.8424 16.3704 10.7337 16.0699C10.625 15.7694 10.5786 15.4507 10.5972 15.1324V10.123H8V9.18993H10.6093V7.06244L10.0119 6.47708V6H11.7454L12.3965 6.33004V9.18993L19.1417 9.16984L19.8133 9.82983L15.6772 13.8995C15.9271 13.8011 16.1902 13.7388 16.4584 13.7145C16.9892 13.7373 17.5071 13.882 17.9701 14.137C18.5064 14.3866 18.9583 14.7815 19.2723 15.2749C19.5537 15.6926 19.7528 16.1581 19.8595 16.6474C19.9473 17.0334 19.9943 17.4272 20 17.8225C20.0027 18.5771 19.828 19.3221 19.4894 19.9999C19.1682 20.6563 18.6277 21.1855 17.9574 21.5C17.2713 21.8311 16.5162 22.0022 15.7513 21.9999Z" fill="black"/>
</svg>
