<svg width="28" height="28" viewBox="0 0 28 28" fill="none" xmlns="http://www.w3.org/2000/svg">
<circle cx="14" cy="14" r="14" fill="white" fill-opacity="0.87"/>
<path d="M14 22C18.4183 22 22 18.4183 22 14C22 9.58172 18.4183 6 14 6C9.58172 6 6 9.58172 6 14C6 18.4183 9.58172 22 14 22Z" fill="black"/>
<path fill-rule="evenodd" clip-rule="evenodd" d="M13.8833 15.0333C12.7 15.0333 11.75 14.0833 11.75 12.9C11.75 11.7166 12.7 10.7666 13.8833 10.7666C15.0667 10.7666 16.0167 11.7166 16.0167 12.9C16.0167 14.0833 15.0667 15.0333 13.8833 15.0333ZM13.8833 9.69998C15.65 9.69998 17.0833 11.1333 17.0833 12.9C17.0833 14.6666 15.65 16.1 13.8833 16.1C12.1167 16.1 10.6833 14.6666 10.6833 12.9C10.6833 11.1333 12.1167 9.69998 13.8833 9.69998ZM16.9333 16.2666C17.15 16.4833 17.15 16.8166 16.9333 17.0166L14.8 19.15C14.5833 19.3666 14.25 19.3666 14.05 19.15C13.8333 18.9333 13.8333 18.6 14.05 18.4L16.1833 16.2666C16.3833 16.05 16.7333 16.05 16.9333 16.2666ZM18.1667 10.2333C18.1667 10.5333 17.9333 10.7666 17.6333 10.7666C17.3333 10.7666 17.1 10.5333 17.1 10.2333C17.1 9.93332 17.3333 9.69998 17.6333 9.69998C17.9167 9.69998 18.1667 9.93332 18.1667 10.2333Z" fill="white"/>
</svg>
