<svg width="28" height="28" viewBox="0 0 28 28" fill="none" xmlns="http://www.w3.org/2000/svg">
  <path d="M14 28C21.732 28 28 21.732 28 14C28 6.26801 21.732 0 14 0C6.26801 0 0 6.26801 0 14C0 21.732 6.26801 28 14 28Z" fill="white" fill-opacity="0.87"/>
  <path d="M19.1194 6H9.90323L9 6.78689V21.2131L9.93548 22H19.129L20 21.2131V6.78689L19.1194 6Z" fill="black"/>
  <rect x="10.7419" y="7.57373" width="7.54839" height="12.8233" fill="white"/>
  <path d="M15.2793 10H13.8054H13.7214V11.8047H12V13.3555H17V11.8047H15.2793V10Z" fill="black"/>
  <path d="M15.2793 10H13.8054H13.7214V11.8047H12V13.3555H17V11.8047H15.2793V10Z" fill="black"/>
  <path d="M15.2793 18.3555H13.8054H13.7214V16.5508H12V15H17V16.5508H15.2793V18.3555Z" fill="black"/>
</svg>
