<svg width="28" height="28" viewBox="0 0 28 28" fill="none" xmlns="http://www.w3.org/2000/svg">
<circle cx="14" cy="14" r="14" fill="white" fill-opacity="0.87"/>
<path d="M14 6C18.4176 6 22 9.5824 22 14C22 18.4176 18.4176 22 14 22C9.5824 22 6 18.4176 6 14C6 9.5824 9.5824 6 14 6Z" fill="black"/>
<path d="M17.072 11.552C16.9712 11.672 16.9776 11.9376 16.816 11.856C16.816 11.856 15.6912 11.4256 16.384 10.16C16.5712 9.86719 16.7648 9.84799 16.736 9.13599C16.9088 9.39839 17.4752 9.92479 17.52 10.752C17.5648 11.304 17.2352 11.3776 17.072 11.552Z" fill="white"/>
<path d="M16.176 13.52C16.4528 13.4272 16.9008 13.28 16.928 12.336C17.3552 12.9904 18.8048 13.9088 18.112 16.72C17.8304 17.816 16.7808 18.3488 15.792 18.752C15.1744 19.0144 14.544 19.4528 14.288 20.112C14.288 20.112 9.61442 19.5216 9.76002 14.88C9.87682 12.472 12.1328 11.552 13.088 9.79199C13.5968 8.68159 13.424 7.56799 13.424 7.56799C13.424 7.56799 16.4 9.41919 15.056 12.272C14.6192 13.28 15.6624 13.6208 16.176 13.52Z" fill="white"/>
<path d="M11.584 14.352V15.904H13.232V17.552H14.784V15.904H16.432V14.352H11.584Z" fill="black"/>
</svg>
