<svg width="28" height="28" viewBox="0 0 28 28" fill="none" xmlns="http://www.w3.org/2000/svg">
<path d="M14 28C21.732 28 28 21.732 28 14C28 6.26801 21.732 0 14 0C6.26801 0 0 6.26801 0 14C0 21.732 6.26801 28 14 28Z" fill="white" fill-opacity="0.87"/>
<path d="M22.949 9.96709C22.176 9.42709 21.349 8.85108 20.542 8.27908C20.5234 8.26472 20.504 8.25136 20.484 8.23908C20.3892 8.16201 20.282 8.10149 20.167 8.06008H20.158C17.997 7.53808 15.8 7.00209 13.674 6.48409L7.89099 5.07709L7.739 5.03709C7.54984 4.97214 7.34945 4.94628 7.14999 4.96108C7.09108 4.96988 7.03477 4.99138 6.98499 5.02409L6.93098 5.06909C6.86327 5.13731 6.81139 5.21958 6.77899 5.31008L6.76599 5.34609V5.55109L6.77499 5.58209C7.99399 8.99809 9.244 12.4631 10.45 15.8171C11.379 18.3981 12.343 21.0731 13.286 23.6991C13.318 23.7882 13.3759 23.8657 13.4524 23.9215C13.5289 23.9773 13.6204 24.0088 13.715 24.0121H13.76C13.8497 24.015 13.9386 23.9937 14.0172 23.9504C14.0959 23.9071 14.1614 23.8434 14.207 23.7661L17.744 18.6081C18.606 17.3534 19.468 16.0971 20.33 14.8391C20.683 14.3251 21.036 13.8071 21.388 13.2941C21.969 12.4461 22.567 11.5701 23.161 10.7171L23.192 10.6721V10.6101C23.2138 10.4905 23.2029 10.3673 23.1605 10.2534C23.1181 10.1396 23.0457 10.0392 22.951 9.96308L22.949 9.96709ZM18.807 11.8431C17.976 12.2761 17.128 12.7231 16.275 13.1651L17.766 11.5651C18.387 10.8951 19.034 10.2031 19.666 9.52409L19.679 9.51109C19.738 9.43671 19.8022 9.36654 19.871 9.30109C19.92 9.25209 19.971 9.20109 20.023 9.14509C20.353 9.37309 20.688 9.60509 21.01 9.83309C21.242 9.99842 21.4787 10.1651 21.72 10.3331C20.738 10.8331 19.755 11.3471 18.804 11.8471L18.807 11.8431ZM16.669 11.6331C16.03 12.3251 15.369 13.0331 14.713 13.7331C13.44 12.1881 12.141 10.6211 10.882 9.10709L9.16299 7.03909C9.03299 6.89209 8.90799 6.73109 8.78299 6.57909C8.70299 6.47909 8.61799 6.37908 8.53299 6.27908C9.05099 6.41308 9.57299 6.53809 10.087 6.65909C10.538 6.76609 11.007 6.87809 11.467 6.99409L19.241 8.88309C18.379 9.80309 17.513 10.7361 16.673 11.6381L16.669 11.6331ZM14.427 20.3381C14.476 19.8691 14.527 19.3871 14.574 18.9141C14.614 18.5341 14.654 18.1461 14.695 17.7751C14.758 17.1811 14.825 16.5651 14.878 15.9621L14.891 15.8551C14.936 15.4711 14.98 15.0741 15.007 14.6761C15.0589 14.6472 15.1127 14.6218 15.168 14.6001C15.2364 14.5704 15.3032 14.537 15.368 14.5001C16.3993 13.9601 17.4327 13.4211 18.468 12.8831C19.5 12.3471 20.558 11.7931 21.607 11.2441C20.651 12.6281 19.691 14.0261 18.762 15.3881C17.962 16.5531 17.141 17.7551 16.324 18.9381C16.002 19.4111 15.668 19.8941 15.351 20.3581C14.994 20.8761 14.628 21.4071 14.27 21.9391C14.315 21.4031 14.37 20.8631 14.426 20.3391L14.427 20.3381ZM8.20099 7.33109C8.14299 7.17009 8.07999 7.00508 8.02699 6.84908C9.23299 8.30508 10.447 9.76909 11.627 11.1891C12.239 11.9261 12.851 12.6581 13.462 13.3991C13.583 13.5371 13.703 13.6851 13.819 13.8281C13.971 14.0111 14.119 14.2031 14.288 14.3861C14.234 14.8461 14.188 15.3101 14.141 15.7571C14.11 16.0701 14.078 16.3821 14.041 16.6991C14.028 16.8991 14.001 17.0991 13.978 17.2991C13.947 17.5711 13.878 18.1881 13.878 18.1881V18.2191C13.798 19.1191 13.699 20.0321 13.606 20.9191C13.566 21.2851 13.53 21.6601 13.49 22.0351C13.468 21.9681 13.441 21.9011 13.419 21.8351C13.352 21.6561 13.285 21.4691 13.219 21.2861L12.741 19.9601C11.227 15.7494 9.71333 11.5384 8.2 7.32709" fill="black"/>
</svg>
