<svg width="28" height="28" viewBox="0 0 28 28" fill="none" xmlns="http://www.w3.org/2000/svg">
<circle cx="14" cy="14" r="14" fill="white" fill-opacity="0.87"/>
<path d="M14 22C9.6 22 6 18.4 6 14C6 9.6 9.6 6 14 6C18.4 6 22 9.6 22 14C22 18.4 18.4 22 14 22Z" fill="black"/>
<path d="M18.032 18.8H9.968C9.5456 18.8 9.2 18.4544 9.2 18.032V9.96801C9.2 9.54561 9.5456 9.20001 9.968 9.20001H18.032C18.4544 9.20001 18.8 9.54561 18.8 9.96801V18.032C18.8 18.4544 18.4544 18.8 18.032 18.8Z" fill="white"/>
<path d="M11.0733 17.8336C11.048 17.8336 11.0275 17.8106 11.0275 17.7853V16.4954C11.0275 16.4701 11.007 16.4471 10.9818 16.4471H10.5264C10.5008 16.4471 10.4781 16.4266 10.4781 16.4013V16.152C10.4781 16.1267 10.5011 16.1037 10.5264 16.1037H11.928C11.9533 16.1037 11.9763 16.1264 11.9763 16.152V16.4013C11.9763 16.4266 11.9533 16.4471 11.928 16.4471H11.4752C11.4499 16.4471 11.4269 16.4698 11.4269 16.4954V17.7853C11.4269 17.8106 11.4064 17.8336 11.3811 17.8336H11.0733Z" fill="black"/>
<path d="M13.3754 16.152C13.3754 16.1267 13.3958 16.1037 13.4211 16.1037H13.7264C13.7517 16.1037 13.7747 16.1264 13.7747 16.152V17.0323C13.7747 17.5539 13.4797 17.8567 13.0115 17.8567C12.5459 17.8567 12.2534 17.5539 12.2534 17.0323V16.152C12.2534 16.1267 12.2739 16.1037 12.2992 16.1037H12.6045C12.6298 16.1037 12.6528 16.1264 12.6528 16.152V17.0448C12.6528 17.3018 12.785 17.4848 13.0141 17.4848C13.2432 17.4848 13.3754 17.3018 13.3754 17.0448V16.152Z" fill="black"/>
<path d="M15.1766 16.6685C15.136 16.6685 15.1232 16.6531 15.1078 16.6227C15.0544 16.4979 14.9373 16.4192 14.7593 16.4192C14.599 16.4192 14.4643 16.4752 14.4643 16.5821C14.4643 16.6992 14.5891 16.7475 14.8637 16.7805C15.281 16.8288 15.52 16.9562 15.52 17.2867C15.52 17.6582 15.1942 17.8541 14.7773 17.8541C14.416 17.8541 14.1056 17.6784 14.0573 17.3098C14.0521 17.2742 14.0701 17.2614 14.1056 17.2614H14.3856C14.4211 17.2614 14.4416 17.2768 14.4518 17.3046C14.4899 17.4269 14.6198 17.521 14.808 17.521C14.9734 17.521 15.1184 17.4598 15.1184 17.3302C15.1184 17.175 14.9657 17.1472 14.6605 17.1088C14.3094 17.063 14.0653 16.9613 14.0653 16.6381C14.0653 16.3149 14.3427 16.0835 14.7776 16.0835C15.1693 16.0835 15.4416 16.2947 15.4976 16.6102C15.5053 16.6458 15.495 16.6688 15.457 16.6688H15.1766V16.6685Z" fill="black"/>
<path d="M15.8659 17.8336C15.8406 17.8336 15.8202 17.8106 15.8202 17.7853V16.152C15.8202 16.1267 15.8406 16.1037 15.8659 16.1037H16.5578C17.0717 16.1037 17.471 16.4573 17.471 16.9738C17.471 17.4826 17.0768 17.8336 16.5578 17.8336H15.8659ZM16.5578 17.4899C16.8352 17.4899 17.0512 17.2711 17.0512 16.9683C17.0512 16.6656 16.8349 16.4467 16.5552 16.4467H16.2678C16.2426 16.4467 16.2221 16.4695 16.2221 16.4951V17.4439C16.2221 17.4691 16.2426 17.4896 16.2678 17.4896H16.5578V17.4899Z" fill="black"/>
<path d="M18.544 15.152H9.456C9.3856 15.152 9.328 15.0944 9.328 15.024V9.968C9.328 9.616 9.616 9.328 9.968 9.328H18.032C18.384 9.328 18.672 9.616 18.672 9.968V15.024C18.672 15.0944 18.6144 15.152 18.544 15.152Z" fill="black"/>
<path d="M14.4714 14.1139H13.6394C13.5866 14.1139 13.5434 14.0707 13.5434 14.0179V10.4979C13.5434 10.4451 13.5866 10.4019 13.6394 10.4019H14.4714C14.5242 10.4019 14.5674 10.4451 14.5674 10.4979V14.0179C14.5674 14.0707 14.5242 14.1139 14.4714 14.1139Z" fill="white"/>
<path d="M15.888 11.4259H12.112C12.0592 11.4259 12.016 11.3827 12.016 11.3299V10.4979C12.016 10.4451 12.0592 10.4019 12.112 10.4019H15.888C15.9408 10.4019 15.984 10.4451 15.984 10.4979V11.3299C15.984 11.3827 15.9408 11.4259 15.888 11.4259Z" fill="white"/>
</svg>
