<svg width="28" height="28" viewBox="0 0 28 28" fill="none" xmlns="http://www.w3.org/2000/svg">
<circle cx="14" cy="14" r="14" fill="white" fill-opacity="0.87"/>
<path d="M16.2588 17H15.5812C15.4557 17 15.349 16.8495 15.349 16.652V13.9812L14.1631 15.0909C14.0627 15.185 13.9373 15.185 13.8369 15.0909L12.6573 13.9812V16.652C12.6573 16.8401 12.5569 17 12.4251 17H11.7537C11.6282 17 11.5216 16.8495 11.5216 16.652V11.4984C11.5216 11.2445 11.6596 11.0376 11.829 11.0376C11.8918 11.0376 11.9482 11.0658 11.9984 11.1223L13.8682 13.0502C13.9435 13.1348 14.0502 13.1348 14.1255 13.0502L15.9953 11.1223C16.1333 10.9812 16.3278 11.0376 16.422 11.2445C16.4596 11.3198 16.4721 11.4138 16.4784 11.4984V16.652C16.4847 16.8401 16.3843 17 16.2588 17Z" fill="black"/>
<path d="M10.5114 16.9906H6.30745C6.13804 16.9906 6 16.7837 6 16.5298V11.348C6.00627 11.1505 6.10667 11 6.23843 11H6.91608C7.04157 11 7.14824 11.1505 7.14824 11.348V15.2884H9.69569V11.348C9.69569 11.1599 9.79608 11 9.92784 11H10.5867C10.7122 11 10.8188 11.1505 10.8188 11.348V16.5298C10.8188 16.7837 10.6808 16.9906 10.5114 16.9906Z" fill="black"/>
<path d="M17.5012 11H21.7051C21.8745 11 22.0126 11.2069 22.0126 11.4608V16.6426C22.0126 16.8307 21.9122 16.9906 21.7867 16.9906H21.109C20.9835 16.9906 20.8769 16.8401 20.8769 16.6426V12.9279C20.8769 12.8056 20.8079 12.7022 20.7263 12.7022H18.4863C18.4047 12.7022 18.3357 12.8056 18.3357 12.9279V16.6426C18.3357 16.8307 18.2353 16.9906 18.1035 16.9906H17.4259C17.3004 16.9906 17.1937 16.8401 17.1937 16.6426V11.4608C17.1937 11.2069 17.3318 11 17.5012 11Z" fill="black"/>
<path d="M19.2643 13.7931H19.9357C20.0612 13.7931 20.1679 13.9436 20.1679 14.1411V15.1661C20.1679 15.3542 20.0675 15.5141 19.9357 15.5141H19.2643C19.1388 15.5141 19.0322 15.3636 19.0322 15.1661V14.1316C19.0322 13.9436 19.1388 13.7931 19.2643 13.7931Z" fill="black"/>
</svg>
