<svg width="28" height="28" fill="none" xmlns="http://www.w3.org/2000/svg">
  <path d="M14 28c7.732 0 14-6.268 14-14S21.732 0 14 0 0 6.268 0 14s6.268 14 14 14z" fill="#fff" fill-opacity=".87"/>
  <path d="M12.275 9.64c-.2-.024-.21-.032-.114-.04.18-.025.599.008.894.066.684.14 1.302.503 1.958 1.139l.171.173.247-.033c1.056-.148 2.14-.033 3.042.33.248.1.637.298.685.347.019.017.047.124.066.232.067.388.038.677-.104.9-.076.123-.076.156-.029.264.038.082.152.14.257.14.228 0 .466-.314.58-.751l.047-.174.086.083c.485.47.865 1.123.922 1.585l.02.124-.086-.107a1.5 1.5 0 0 0-.457-.422c-.323-.19-.665-.247-1.568-.289-.818-.04-1.284-.099-1.74-.23-.78-.224-1.179-.513-2.101-1.578-.409-.47-.665-.726-.922-.94a3.422 3.422 0 0 0-1.854-.818z" fill="#000"/>
  <path d="M19.358 10.69c.018-.314.066-.52.17-.71a.548.548 0 0 1 .086-.141c.01 0-.01.058-.038.124-.076.182-.085.437-.038.726.067.372.095.421.552.826.209.19.456.43.55.528l.162.182-.161-.132c-.2-.165-.656-.479-.76-.52-.067-.033-.077-.033-.124.008-.038.033-.048.083-.048.322-.01.371-.066.603-.209.842-.076.124-.085.1-.019-.041.048-.107.057-.157.057-.512 0-.718-.095-.892-.675-1.18a7.55 7.55 0 0 0-.532-.24 2.259 2.259 0 0 1-.257-.107c.02-.017.58.123.799.206.332.116.39.124.427.116.029-.025.048-.091.058-.298zm-6.693 1.23c-.4-.48-.656-1.222-.6-1.775l.02-.174.095.017c.171.024.466.123.608.198.38.198.552.47.713 1.147.048.199.114.43.143.504.047.124.228.413.38.595.105.132.038.198-.2.181-.36-.033-.846-.322-1.16-.693zm6.208 3.59c-1.883-.66-2.548-1.23-2.548-2.195 0-.14.01-.256.01-.256.009 0 .075.05.161.107.38.264.808.38 1.996.528.694.091 1.094.157 1.455.265 1.15.33 1.863 1.007 2.034 1.923.048.265.02.768-.057 1.032-.066.207-.256.586-.304.595-.01 0-.028-.041-.028-.108-.02-.346-.22-.677-.552-.933-.4-.297-.912-.52-2.167-.957zm-1.331.273a1.752 1.752 0 0 0-.095-.346l-.048-.124.086.09c.123.124.218.273.304.48.066.156.066.206.066.462 0 .247-.009.305-.066.446a1.48 1.48 0 0 1-.4.553c-.342.305-.788.47-1.425.545-.114.008-.438.033-.723.05-.713.032-1.188.098-1.616.23-.057.017-.114.033-.124.025-.019-.016.276-.165.514-.264.332-.14.675-.215 1.426-.33.37-.05.75-.116.846-.149.941-.256 1.407-.892 1.255-1.668z" fill="#000"/>
  <path d="M18.407 17.112c-.247-.47-.304-.916-.171-1.337.019-.041.038-.083.057-.083a.44.44 0 0 1 .133.058c.114.066.352.182.96.47.77.364 1.207.645 1.512.967.266.28.427.602.503.999.048.223.02.76-.047.982a2.507 2.507 0 0 1-1.379 1.585c-.104.05-.19.083-.2.083-.009 0 .03-.083.086-.182.229-.42.257-.825.086-1.28-.105-.28-.323-.619-.76-1.188-.524-.66-.647-.834-.78-1.074zm-7.083 2.527c.704-.512 1.569-.875 2.367-.99.343-.05.913-.034 1.227.04.504.116.96.364 1.198.67.228.296.332.552.437 1.122.038.223.086.454.095.503.076.298.228.529.418.653.295.19.809.198 1.312.033.086-.025.162-.05.162-.042.019.017-.238.166-.409.24-.238.107-.428.14-.684.14-.457 0-.846-.206-1.16-.619a4.44 4.44 0 0 1-.314-.545c-.333-.669-.504-.867-.894-1.09-.342-.19-.78-.23-1.112-.09-.437.181-.551.668-.247.965.124.124.352.223.542.248.352.042.656-.198.656-.503 0-.199-.086-.314-.314-.405-.304-.116-.637.016-.627.272 0 .108.057.174.18.223.076.033.076.033.02.025-.276-.05-.343-.347-.124-.537.266-.23.827-.132 1.017.19.076.133.085.397.019.562-.162.363-.618.553-1.084.446-.314-.075-.447-.149-.827-.487-.665-.595-.922-.71-1.873-.834l-.18-.025.2-.165z" fill="#000"/>
  <path fill-rule="evenodd" clip-rule="evenodd" d="M6.324 6.355c2.215 2.336 5.628 5.969 5.799 6.167.142.165.085.322-.152.438a1.628 1.628 0 0 1-.542.132.74.74 0 0 1-.457-.174c-.085-.074-.456-.544-1.292-1.675a106.588 106.588 0 0 0-1.19-1.594c-.038-.016-.038-.016 1.122 1.783.732 1.131.97 1.536.97 1.585 0 .108-.038.166-.19.314-.257.248-.371.529-.457 1.115-.095.652-.351 1.114-1.084 1.899-.427.462-.494.545-.598.735-.134.23-.172.363-.19.66-.02.314.018.512.123.809.095.264.2.438.456.776.219.297.352.52.352.603 0 .066.02.066.361 0 .818-.165 1.493-.446 1.864-.793.228-.215.285-.33.285-.627 0-.19-.01-.231-.067-.347-.095-.182-.275-.33-.665-.561-.514-.306-.732-.554-.79-.884-.047-.28.01-.47.295-.99.295-.537.371-.76.419-1.305.028-.347.076-.487.19-.594.123-.116.228-.157.523-.19.485-.058.798-.165 1.046-.372.218-.173.313-.347.323-.603l.01-.19-.124-.115C12.218 11.911 6.029 6 6 6c-.01 0 .143.157.324.355zm2.918 11.74c.105-.157.048-.355-.123-.454-.162-.09-.41-.05-.41.074 0 .033.02.066.077.083.085.041.095.082.028.173-.066.09-.066.174.02.231.133.091.313.042.408-.107zm3.851-4.343a.784.784 0 0 0-.514.487c-.038.133-.019.372.048.446.104.116.2.149.466.149.522 0 .97-.198 1.017-.438.047-.198-.152-.47-.428-.594a1.102 1.102 0 0 0-.59-.05zm.608.413c.076-.099.047-.206-.095-.28-.257-.14-.646-.025-.646.19 0 .107.2.222.39.222.123 0 .294-.066.351-.132z" fill="#000"/>
</svg>
