<svg width="28" height="28" fill="none" xmlns="http://www.w3.org/2000/svg">
  <path d="M14 28c7.732 0 14-6.268 14-14S21.732 0 14 0 0 6.268 0 14s6.268 14 14 14z" fill="#fff" fill-opacity=".87"/>
  <path d="M16.925 15.618c0-1.618-.93-2.173-2.792-2.404-1.33-.185-1.596-.555-1.596-1.203 0-.647.444-1.063 1.33-1.063.798 0 1.241.277 1.463.971a.335.335 0 0 0 .31.231h.71c.177 0 .31-.139.31-.323v-.047c-.178-1.017-.976-1.803-1.995-1.896v-1.11c0-.184-.133-.323-.355-.37h-.665c-.177 0-.31.14-.354.37v1.064c-1.33.185-2.172 1.11-2.172 2.266 0 1.526.886 2.127 2.748 2.358 1.241.232 1.64.51 1.64 1.249 0 .74-.62 1.249-1.463 1.249-1.152 0-1.551-.51-1.684-1.203-.044-.185-.177-.277-.31-.277h-.754c-.177 0-.31.138-.31.323v.047c.177 1.156.886 1.988 2.35 2.22v1.11c0 .184.132.323.354.37h.665c.177 0 .31-.14.354-.37v-1.11c1.33-.232 2.216-1.203 2.216-2.452z" fill="#000"/>
  <path d="M11.74 20.474c-3.458-1.295-5.23-5.318-3.945-8.879a6.705 6.705 0 0 1 3.944-4.115c.178-.093.266-.231.266-.463V6.37c0-.185-.088-.324-.266-.37-.044 0-.133 0-.177.046-4.21 1.387-6.516 6.058-5.186 10.451.798 2.59 2.704 4.578 5.186 5.41.178.093.355 0 .4-.184.043-.047.043-.093.043-.185v-.648c0-.139-.133-.323-.266-.416zm4.698-14.428c-.177-.092-.355 0-.4.185-.043.046-.043.093-.043.185v.648c0 .185.133.37.266.462 3.457 1.295 5.23 5.318 3.944 8.879a6.705 6.705 0 0 1-3.944 4.115c-.178.093-.266.231-.266.463v.647c0 .185.088.324.266.37.044 0 .133 0 .177-.046 4.21-1.387 6.515-6.058 5.186-10.451-.798-2.636-2.748-4.624-5.186-5.457z" fill="#000"/>
</svg>
