<svg width="28" height="28" viewBox="0 0 28 28" fill="none" xmlns="http://www.w3.org/2000/svg">
<circle cx="14" cy="14" r="14" fill="white" fill-opacity="0.87"/>
<path d="M16.9714 12.7429V13.7333H19.7143C19.6762 13.4667 19.6762 13.0095 19.5619 12.7429H16.9714Z" fill="black"/>
<path d="M19.7143 14.381H16.4762V15.3714H19.5619C19.6762 15.0667 19.6762 14.6476 19.7143 14.381Z" fill="black"/>
<path d="M8.20953 15.3333H11.2952V14.3429H8.05714C8.09524 14.6476 8.09524 15.0667 8.20953 15.3333Z" fill="black"/>
<path d="M8.20953 12.7429C8.17143 13.0095 8.09524 13.4286 8.05714 13.7333H10.8V12.7429H8.20953Z" fill="black"/>
<path d="M13.8476 13.8857C13.6952 14.4572 13.5048 15.0286 13.3524 15.6C13.2 16.1714 13.0095 16.7429 12.819 17.3143H11.4857C11.3333 16.9714 11.181 16.6286 11.0286 16.1714C10.8762 15.7524 10.6857 15.2572 10.5333 14.7238C10.381 14.2286 10.1905 13.6572 10 13.0476C9.80952 12.4381 9.65714 11.9048 9.50476 11.2572H11.2952C11.3333 11.5238 11.4476 11.8286 11.4857 12.1333C11.5619 12.4762 11.6381 12.781 11.7143 13.1238C11.7905 13.4667 11.8667 13.8095 11.9429 14.1524C12.019 14.4952 12.1333 14.8381 12.2095 15.1429C12.3238 14.8 12.4 14.4572 12.5143 14.1143C12.6286 13.7714 12.7048 13.4286 12.781 13.0857C12.8571 12.7429 12.9333 12.4 13.0095 12.0952C13.0857 11.7524 13.1619 11.4857 13.2381 11.2191H14.4952C14.5333 11.4857 14.6476 11.7905 14.7238 12.0952C14.8 12.4381 14.8762 12.7429 14.9524 13.0857C15.0286 13.4286 15.1048 13.7714 15.219 14.1143C15.2952 14.4572 15.4095 14.8 15.5238 15.1429C15.6 14.8 15.7143 14.4952 15.7905 14.1524C15.8667 13.8095 15.981 13.4667 16.0571 13.1238C16.1333 12.781 16.2095 12.4381 16.2857 12.1333C16.3619 11.7905 16.4381 11.5238 16.4762 11.2572H18.2667C18.1143 11.8667 17.9238 12.4381 17.7714 13.0476C17.581 13.6572 17.4286 14.1905 17.2381 14.7238C17.0857 15.2191 16.8952 15.7143 16.7429 16.1714C16.5905 16.5905 16.4381 17.0095 16.2857 17.3143H14.9524C14.7619 16.7429 14.5714 16.1714 14.381 15.6C14.1905 15.0286 14.0381 14.4952 13.8476 13.8857Z" fill="black"/>
<path d="M14 22C9.58095 22 6 18.419 6 14C6 9.58095 9.58095 6 14 6C18.419 6 22 9.58095 22 14C22 18.419 18.419 22 14 22ZM14 7.14286C10.2286 7.14286 7.14286 10.2286 7.14286 14C7.14286 17.7714 10.2286 20.8571 14 20.8571C17.7714 20.8571 20.8571 17.7714 20.8571 14C20.8571 10.2286 17.7714 7.14286 14 7.14286Z" fill="black"/>
</svg>
