<svg xmlns="http://www.w3.org/2000/svg" width="24" height="24" viewBox="0 0 24 24"><path d="M0,0H24V24H0Z" fill="none"/><path d="M12,22A10,10,0,1,1,22,12,10,10,0,0,1,12,22ZM9.71,19.667A17.9,17.9,0,0,1,8.027,13H4.062A8.008,8.008,0,0,0,9.71,19.667ZM10.03,13A15.915,15.915,0,0,0,12,19.752,15.9,15.9,0,0,0,13.97,13H10.03Zm9.908,0H15.973a17.9,17.9,0,0,1-1.683,6.667A8.008,8.008,0,0,0,19.938,13ZM4.062,11H8.027A17.9,17.9,0,0,1,9.71,4.333,8.008,8.008,0,0,0,4.062,11Zm5.969,0h3.938A15.9,15.9,0,0,0,12,4.248,15.9,15.9,0,0,0,10.03,11ZM14.29,4.333A17.9,17.9,0,0,1,15.973,11h3.965A8.008,8.008,0,0,0,14.29,4.333Z" fill="rgba(255,255,255,0.6)"/></svg>