<svg width="28" height="28" fill="none" xmlns="http://www.w3.org/2000/svg">
  <path d="M14 28c7.732 0 14-6.268 14-14S21.732 0 14 0 0 6.268 0 14s6.268 14 14 14z" fill="#fff" fill-opacity=".87"/>
  <path d="M13.841 13.521c-1.625 0-3.134-1.454-5.611-4.094a.84.84 0 0 1 .049-1.2.876.876 0 0 1 1.223.049c2 2.135 3.473 3.546 4.339 3.546.866 0 2.335-1.411 4.339-3.546a.876.876 0 0 1 1.223-.049.839.839 0 0 1 .049 1.2c-2.477 2.64-3.986 4.094-5.611 4.094zm4.835 7.27c-.233 0-.321-.092-.492-.274-2-2.135-3.473-3.546-4.339-3.546-.866 0-2.335 1.411-4.339 3.546a.876.876 0 0 1-1.223.049.84.84 0 0 1-.049-1.2c2.477-2.64 3.987-4.094 5.611-4.094 1.624 0 3.134 1.454 5.611 4.094a.865.865 0 0 1-.78 1.425z" fill="#000"/>
</svg>
