<svg width="28" height="28" viewBox="0 0 28 28" fill="none" xmlns="http://www.w3.org/2000/svg">
<circle cx="14" cy="14" r="14" fill="white"/>
<path fill-rule="evenodd" clip-rule="evenodd" d="M14 6C18.4176 6 22 9.5824 22 14C22 18.4176 18.4176 22 14 22C9.5824 22 6 18.4176 6 14C6 9.5824 9.5824 6 14 6Z" fill="black"/>
<path d="M13.6704 17.3728V10.7168H14.3952V17.3728H13.6704Z" fill="white"/>
<path d="M17.36 12.9344L15.1216 13.528L14.6224 11.2048L15.288 11.0544L15.5504 12.1552C15.5504 12.1552 16.1552 11.1632 15.3488 10.136C14.8736 9.608 14.648 9.5856 14.1152 9.5024C13.6464 9.4352 12.5568 9.5936 12.232 10.8656C12.0944 11.6848 12.2496 12.2912 13.3056 13.0848L13.2464 13.968C13.2464 13.968 12.0672 13.1376 11.7632 12.5552C11.528 12.0944 11.1248 11.184 11.8528 9.9168C12.2448 9.2832 13.0176 8.6752 14.3792 8.7392C15.064 8.768 16.736 9.6048 16.4768 11.56C16.432 11.9264 16.2416 12.4144 16.2416 12.4144L17.16 12.2096L17.36 12.9344Z" fill="white"/>
<path d="M16.0816 18.1424C15.672 18.7648 14.8832 19.352 13.5248 19.2528C12.84 19.2064 11.192 18.3248 11.5024 16.3776C11.5568 16.0128 11.76 15.5312 11.76 15.5312L10.8368 15.7104L10.656 14.9824L12.9104 14.448L13.3488 16.784L12.6784 16.9168L12.4448 15.808C12.4448 15.808 11.8144 16.7824 12.592 17.832C13.0528 18.3728 13.2768 18.4 13.8096 18.4976C14.2752 18.5776 15.3696 18.4464 15.728 17.184C15.8864 16.3696 15.7472 15.7584 14.7136 14.936L14.7968 14.0544C14.7968 14.0544 15.9536 14.9152 16.2416 15.5056C16.4624 15.9744 16.8416 16.896 16.0816 18.1424Z" fill="white"/>
</svg>
