<svg width="28" height="28" fill="none" xmlns="http://www.w3.org/2000/svg">
  <path d="M14 28c7.732 0 14-6.268 14-14S21.732 0 14 0 0 6.268 0 14s6.268 14 14 14z" fill="#fff" fill-opacity=".87"/>
  <path d="M16.585 16.334h-3.598a.108.108 0 0 1-.085-.174l4.317-5.529a.9.9 0 0 0-.717-1.46h-1.734a.108.108 0 0 1-.108-.108v-1.16a.908.908 0 0 0-1.816 0v1.16a.108.108 0 0 1-.108.108h-1.829a.905.905 0 0 0 0 1.809h3.517a.108.108 0 0 1 .085.174l-4.318 5.531a.9.9 0 0 0 .717 1.46h1.828a.108.108 0 0 1 .108.108v.987a.908.908 0 0 0 1.816 0v-.989a.108.108 0 0 1 .108-.108h1.819a.905.905 0 1 0 0-1.809h-.002z" fill="#000"/>
</svg>
