<svg width="28" height="28" viewBox="0 0 28 28" fill="none" xmlns="http://www.w3.org/2000/svg">
<circle cx="14" cy="14" r="14" fill="white" fill-opacity="0.87"/>
<path d="M20 12.6105L17.554 13.6377L11.0652 16.7485L17.554 19.6869V14.8299L20 13.7917V20.9672L17.554 21.9943L8 17.6876V15.3985L14.6134 12.3427L8 9.34927V7.02716L10.4849 6L20 10.3141V12.6105Z" fill="#49C1BF"/>
<path d="M8 7.02717L17.554 11.3413L20 10.3141L10.4849 6L8 7.02717Z" fill="black"/>
<path d="M17.5541 11.3314L20.0001 10.3043V12.6007L17.5541 13.6279V11.3314Z" fill="#1B1B1B"/>
<path d="M8 7.02908V9.3512L14.6134 12.3446L8 15.4004V17.6895L17.554 21.9962V19.6925L11.0652 16.7504L17.554 13.6396V11.3431L8 7.02908Z" fill="#2A2B2D"/>
<path d="M17.5541 21.9792L20.0001 20.952V13.7766L17.5541 14.8147V21.9792Z" fill="#1B1B1B"/>
</svg>
