<svg width="28" height="28" viewBox="0 0 28 28" fill="none" xmlns="http://www.w3.org/2000/svg">
<path d="M14 28C21.732 28 28 21.732 28 14C28 6.26801 21.732 0 14 0C6.26801 0 0 6.26801 0 14C0 21.732 6.26801 28 14 28Z" fill="white" fill-opacity="0.87"/>
<path d="M18.3646 16.7678C18.943 17.5438 19.5393 18.3378 20.1357 19.1318C18.943 20.5393 17.461 21.4416 15.6719 21.8206C13.684 22.2356 11.8045 21.9289 9.9792 20.9183C11.6057 19.7092 13.196 18.5182 14.8044 17.3272C15.1659 17.6701 15.5093 18.0129 15.8526 18.3378C16.2321 18.6987 16.0876 18.7167 16.5755 18.446C17.2442 18.0671 17.8044 17.5438 18.2381 16.9122C18.2562 16.8761 18.2924 16.84 18.3104 16.8039C18.2924 16.8039 18.3104 16.8039 18.3646 16.7678ZM11.2623 18.3558C10.8105 18.6987 10.3949 19.0055 9.9792 19.3303C9.67197 19.5649 9.36475 19.7814 9.05752 20.016C8.93102 20.1243 8.84066 20.1243 8.69608 19.998C7.3226 18.7709 6.45514 17.255 6.12984 15.4505C5.80454 13.6278 6.0937 11.8955 6.96116 10.2533C6.97923 10.2172 7.01537 10.1631 7.03345 10.127C7.03345 10.1089 7.05152 10.1089 7.08766 10.0909C8.28042 11.6609 9.49125 13.2308 10.684 14.8008C10.6479 14.8549 10.6298 14.891 10.5936 14.9271C10.2322 15.3061 9.87076 15.685 9.49125 16.046C9.38282 16.1542 9.36475 16.2445 9.43703 16.3708C9.81655 17.0926 10.3406 17.6881 10.9912 18.1754C11.0816 18.2295 11.1539 18.2836 11.2623 18.3558ZM18.0032 7.14944C17.4249 7.56449 16.8466 7.97954 16.2683 8.37654C15.2743 9.08032 14.2804 9.80215 13.3045 10.5059C13.178 10.5962 13.0876 10.6142 12.9792 10.4879C12.6539 10.145 12.3105 9.83824 11.9852 9.49538C11.8948 9.40515 11.8045 9.3871 11.678 9.44124C10.9009 9.83824 10.2864 10.3977 9.7804 11.1014C9.74426 11.1375 9.70812 11.1917 9.67197 11.2458C9.38282 10.8668 9.11174 10.524 8.84065 10.1631C8.5515 9.78411 8.28042 9.40515 8.00934 9.04423C7.91898 8.91791 7.90091 8.82768 8.02741 8.70136C9.41896 7.16748 11.1358 6.2652 13.196 6.04865C14.8225 5.86819 16.3767 6.19301 17.8225 6.96898C17.8767 7.00507 17.9309 7.02312 17.9851 7.05921C17.9851 7.11334 17.9851 7.13139 18.0032 7.14944ZM20.949 17.9768C20.5694 17.4896 20.2261 17.0385 19.8827 16.5873C19.0875 15.5407 18.2924 14.476 17.4791 13.4293C17.3707 13.285 17.3707 13.1947 17.4972 13.0684C17.8406 12.7256 18.1659 12.3827 18.5092 12.0398C18.5996 11.9496 18.6357 11.8594 18.5634 11.733C18.1659 10.9751 17.6237 10.3435 16.9189 9.83824C16.8647 9.80215 16.8104 9.74801 16.7382 9.71192C16.7924 9.65779 16.8466 9.6217 16.8827 9.5856C17.5695 9.06228 18.2562 8.557 18.943 8.03367C19.0514 7.94345 19.1417 7.90735 19.2683 8.03367C20.9851 9.5856 21.9068 11.5165 21.9971 13.8444C22.0333 15.1978 21.7261 16.4791 21.1116 17.6881C21.0574 17.7603 21.0032 17.8505 20.949 17.9768Z" fill="black"/>
</svg>
